<svg width="68" height="67" viewBox="0 0 68 67" fill="none" xmlns="http://www.w3.org/2000/svg">
<path d="M20.5127 38.2921C20.6443 38.1591 20.6826 37.9619 20.6108 37.7908C20.539 37.6198 20.3691 37.5081 20.1824 37.5081L17.1434 37.52C17.0213 37.52 16.9017 37.5699 16.8155 37.6554L15.7291 38.7412C15.3462 39.1237 14.8341 39.3375 14.2885 39.3375C13.7429 39.3375 13.2309 39.1308 12.8432 38.7507L7.60257 33.5855L10.9073 30.2806C11.015 30.1713 11.0604 30.0193 11.0341 29.8744C11.0245 29.7746 10.9838 29.6819 10.9168 29.6083C10.5818 28.9763 10.3976 28.2944 10.3641 27.5816C10.3545 27.3987 10.2396 27.2395 10.0673 27.173C10.0123 27.1516 9.95487 27.1421 9.89983 27.1421C9.78018 27.1421 9.66053 27.1896 9.57199 27.2775L7.34891 29.499L0.13409 36.7193C0.0431567 36.8096 -0.00470287 36.9307 8.30789e-05 37.059C0.00486903 37.185 0.0599075 37.3061 0.155627 37.3893C0.461928 37.6578 0.756264 37.8645 1.03385 38.0023C1.34015 38.1567 1.64645 38.2327 1.94318 38.2327C1.94797 38.2327 1.95275 38.2327 1.95754 38.2327C2.25427 38.2232 2.54142 38.1662 2.81662 38.0617C3.10377 37.9524 3.38375 37.7647 3.64459 37.5033L5.413 35.7333L10.6775 40.9199C11.6467 41.875 12.9341 42.3977 14.3005 42.3929C15.6693 42.3882 16.9519 41.856 17.9139 40.8937L20.5151 38.2921H20.5127Z" fill="#392C45"/>
<path d="M35.0835 45.2797C35.0787 43.9207 34.5426 42.6472 33.5735 41.6921L30.9532 39.1095C30.8646 39.0216 30.745 38.9765 30.6253 38.9765C30.5655 38.9765 30.5057 38.9883 30.4483 39.0121C30.276 39.0834 30.1635 39.2521 30.1635 39.4374L30.1755 42.4548C30.1755 42.5759 30.2257 42.6947 30.3119 42.7803L31.4054 43.8589C32.2047 44.6453 32.2095 45.9307 31.415 46.7218L29.5174 48.6202L26.2127 51.925L22.8841 48.6439L20.9721 46.7599C20.3379 46.135 20.1417 45.1466 20.4959 44.3531C20.5844 44.1987 20.6897 44.0585 20.8117 43.9373L24.4419 40.307L26.5357 38.2114C26.5357 38.2114 26.5525 38.1948 26.5597 38.1853L29.7064 35.0396L30.6828 34.0631C30.6828 34.0631 30.6899 34.056 30.6947 34.0512L32.6115 32.1339C32.6115 32.1339 32.633 32.1125 32.6402 32.1006C32.7479 31.9795 32.7838 31.8108 32.7335 31.6564C32.6809 31.4924 32.5421 31.3712 32.3722 31.3427L29.8883 30.9103C29.862 30.9056 29.8333 30.9032 29.8069 30.9032C29.6849 30.9032 29.5676 30.9507 29.4791 31.0386L21.3813 39.138L18.7801 41.7396L18.6844 41.8347C17.5621 42.9561 17.0524 44.5598 17.3204 46.1231C17.3323 46.192 17.3587 46.2538 17.397 46.3084C17.5932 47.3039 18.079 48.2068 18.8088 48.9243L25.904 55.9165C25.9949 56.0068 26.1146 56.0496 26.2318 56.0496C26.3491 56.0496 26.4687 56.0044 26.5597 55.9142L33.6022 48.8696C34.5642 47.9074 35.0906 46.6292 35.0858 45.2726L35.0835 45.2797Z" fill="#392C45"/>
<path d="M34.8275 17.0636L33.7793 18.1114C32.8174 19.0736 32.2909 20.3519 32.2957 21.7085C32.3005 23.0675 32.8365 24.341 33.8057 25.2961L36.426 27.8787C36.5145 27.9666 36.6342 28.0117 36.7538 28.0117C36.8136 28.0117 36.8734 27.9998 36.9309 27.9761C37.1032 27.9048 37.2156 27.7361 37.2156 27.5508L37.2037 24.5334C37.2037 24.4122 37.1534 24.2934 37.0673 24.2079L35.9737 23.1293C35.5884 22.7491 35.3731 22.2407 35.3731 21.699C35.3731 21.1573 35.5812 20.6488 35.9641 20.2639L37.8617 18.3656L41.1664 15.0608L44.4951 18.3419L46.4071 20.2259C47.0412 20.8508 47.2374 21.8392 46.8833 22.6327C46.7947 22.7871 46.6894 22.9273 46.5674 23.0485L42.9373 26.6788L40.8434 28.7744C40.8434 28.7744 40.8266 28.791 40.8195 28.8005L37.6727 31.9462L36.6988 32.9227C36.6988 32.9227 36.6916 32.9298 36.6868 32.9345L34.77 34.8519C34.77 34.8519 34.7509 34.8733 34.7413 34.8828C34.6336 35.0039 34.5977 35.1726 34.6456 35.3271C34.6982 35.491 34.837 35.6122 35.0069 35.6407L37.4908 36.0731C37.5172 36.0778 37.5459 36.0802 37.5722 36.0802C37.6942 36.0802 37.8115 36.0327 37.9 35.9448L45.9979 27.8454L48.599 25.2438L48.6948 25.1488C49.8147 24.0273 50.3268 22.426 50.0588 20.8603C50.0468 20.7914 50.0205 20.7296 49.9822 20.675C49.786 19.6795 49.3002 18.7766 48.5703 18.0591L41.4751 11.0669C41.3842 10.9766 41.2646 10.9338 41.1473 10.9338C41.03 10.9338 40.9104 10.979 40.8195 11.0693L35.038 16.8522L34.8251 17.066L34.8275 17.0636Z" fill="#392C45"/>
<path d="M67.2211 29.6035C66.9172 29.335 66.6205 29.1283 66.3429 28.9905C66.0366 28.8361 65.7303 28.7601 65.4336 28.7601C65.4288 28.7601 65.424 28.7601 65.4192 28.7601C65.1225 28.7696 64.8353 28.8266 64.5601 28.9311C64.273 29.0404 63.993 29.2281 63.7321 29.4895L61.9637 31.2595L56.6992 26.0729C55.73 25.1178 54.445 24.5951 53.0762 24.5999C51.7074 24.6046 50.4248 25.1368 49.4652 26.0991L46.8641 28.7007C46.7324 28.8337 46.6942 29.0309 46.7659 29.202C46.8377 29.373 47.0076 29.4847 47.1943 29.4847L50.2334 29.4728C50.3554 29.4728 50.4751 29.4229 50.5612 29.3374L51.6476 28.2516C52.0305 27.8691 52.5426 27.6553 53.0882 27.6553C53.6338 27.6553 54.1459 27.862 54.5335 28.2421L59.7742 33.4073L56.4695 36.7122C56.3618 36.8214 56.3163 36.9735 56.3426 37.1184C56.3522 37.2182 56.3929 37.3109 56.4599 37.3845C56.7949 38.0165 56.9792 38.6984 57.0127 39.4112C57.0222 39.5941 57.1371 39.7533 57.3094 39.8198C57.3644 39.8412 57.4219 39.8507 57.4769 39.8507C57.5966 39.8507 57.7162 39.8032 57.8047 39.7153L60.023 37.4962C60.023 37.4962 60.0254 37.4938 60.0278 37.4914L67.2426 30.2759C67.3336 30.1856 67.3814 30.0644 67.3767 29.9361C67.3719 29.8102 67.3168 29.6914 67.2211 29.6059V29.6035Z" fill="#392C45"/>
<path d="M28.8571 20.3661C28.9457 20.454 29.0653 20.4991 29.185 20.4991C29.2448 20.4991 29.3046 20.4873 29.362 20.4635C29.5343 20.3922 29.6468 20.2235 29.6468 20.0382L29.6348 17.0209C29.6348 16.8997 29.5846 16.7809 29.4984 16.6954L28.4048 15.6167C28.0196 15.2366 27.8042 14.7281 27.8042 14.1864C27.8042 13.6447 28.0124 13.1363 28.3953 12.7514L33.5976 7.54819L36.9262 10.8293C37.0148 10.9172 37.1344 10.9623 37.2541 10.9623C37.2804 10.9623 37.3067 10.96 37.3354 10.9552C37.4359 10.9457 37.5293 10.9053 37.6034 10.8388C38.24 10.5062 38.9268 10.3232 39.6447 10.29C39.8289 10.2805 39.9892 10.1664 40.0562 9.99535C40.1233 9.82429 40.0802 9.63184 39.951 9.50355L37.7159 7.3011C37.7159 7.3011 37.7159 7.3011 37.7135 7.29872L30.4413 0.13305C30.3551 0.0475177 30.2379 0 30.1134 0C30.1086 0 30.1039 0 30.0991 0C29.9722 0.00475177 29.8502 0.0593972 29.7665 0.154433C29.496 0.458546 29.2879 0.75078 29.1491 1.02638C28.9935 1.3305 28.9169 1.63461 28.9169 1.92922C28.9169 1.93397 28.9169 1.93872 28.9169 1.94348C28.9265 2.23809 28.9839 2.52319 29.0892 2.79642C29.1993 3.08152 29.3884 3.3595 29.6516 3.61847L31.4344 5.37426L26.2105 10.6012C24.2219 12.5898 24.2339 15.8115 26.2368 17.7859L28.8571 20.3685V20.3661Z" fill="#392C45"/>
<path d="M11.0988 26.3675L16.9209 32.1077L17.1363 32.3191L18.1916 33.3598C19.1607 34.3149 20.4482 34.8376 21.8146 34.8328C23.1833 34.8281 24.466 34.2959 25.428 33.3336L28.0291 30.732C28.1607 30.599 28.199 30.4018 28.1272 30.2307C28.0554 30.0597 27.8855 29.948 27.6989 29.948L24.6598 29.9599C24.5378 29.9599 24.4181 30.0098 24.332 30.0953L23.2456 31.1811C22.8627 31.5636 22.3506 31.7774 21.805 31.7774C21.2594 31.7774 20.7473 31.5707 20.3596 31.1906L18.4476 29.3065L15.119 26.0254L18.4237 22.7206L20.3213 20.8222C20.7281 20.4159 21.3025 20.1807 21.8983 20.1784C22.195 20.1784 22.487 20.2354 22.7454 20.3494C22.901 20.435 23.0422 20.5419 23.1642 20.663L26.8207 24.2673L28.9313 26.3462C28.9313 26.3462 28.948 26.3628 28.9576 26.3699L32.1259 29.4942L33.107 30.4612C33.107 30.4612 33.1142 30.4683 33.119 30.4731L35.0501 32.3762C35.0501 32.3762 35.0717 32.3952 35.0812 32.4047C35.1674 32.4807 35.2775 32.5211 35.3899 32.5211C35.4354 32.5211 35.4832 32.514 35.5287 32.4997C35.6938 32.4474 35.8159 32.3096 35.8446 32.1409L36.2801 29.6748C36.3064 29.5275 36.2586 29.3754 36.1509 29.2685L25.2772 18.5509C24.3415 17.6267 23.0948 17.123 21.7715 17.1277C21.4987 17.1277 21.2259 17.1515 20.9579 17.1966C20.8885 17.2085 20.8263 17.2346 20.7712 17.2726C19.7662 17.4675 18.8592 17.9498 18.1366 18.6744L11.094 25.7189C10.9146 25.8995 10.9146 26.1917 11.0964 26.3699L11.0988 26.3675Z" fill="#392C45"/>
<path d="M38.5317 46.6339C38.4432 46.546 38.3236 46.5009 38.2039 46.5009C38.1441 46.5009 38.0843 46.5127 38.0268 46.5365C37.8545 46.6078 37.7421 46.7765 37.7421 46.9618L37.754 49.9792C37.754 50.1003 37.8043 50.2191 37.8904 50.3046L38.984 51.3833C39.3693 51.7634 39.5847 52.2719 39.5847 52.8136C39.5847 53.3553 39.3765 53.8637 38.9936 54.2486L33.7913 59.4518L30.4626 56.1707C30.3741 56.0828 30.2544 56.0377 30.1348 56.0377C30.1085 56.0377 30.0821 56.04 30.0558 56.0448C29.9553 56.0543 29.862 56.0947 29.7878 56.1612C29.1513 56.4938 28.4645 56.6768 27.7466 56.71C27.5623 56.7195 27.402 56.8336 27.335 57.0046C27.268 57.1757 27.3111 57.3682 27.4403 57.4965L29.6729 59.6965C29.6729 59.6965 29.6777 59.7013 29.6777 59.7037L36.9452 66.867C37.0337 66.9525 37.151 67 37.273 67C37.2778 67 37.2826 67 37.2874 67C37.4142 66.9953 37.5363 66.9406 37.62 66.8456C37.8904 66.5415 38.0986 66.2492 38.2374 65.9736C38.393 65.6695 38.4695 65.3654 38.4695 65.0708C38.4695 65.066 38.4695 65.0613 38.4695 65.0565C38.46 64.7619 38.4025 64.4768 38.2972 64.2036C38.1872 63.9185 37.9981 63.6429 37.7349 63.3815L35.9521 61.6257L41.176 56.3988C42.138 55.4366 42.6644 54.1583 42.6596 52.8017C42.6548 51.4427 42.1188 50.1692 41.1497 49.2141L38.5294 46.6315L38.5317 46.6339Z" fill="#BC9B6A"/>
<path d="M56.2902 40.6324L49.195 33.6402C48.2259 32.6851 46.9384 32.1624 45.572 32.1671C44.2033 32.1719 42.9206 32.7041 41.9587 33.6663L39.3575 36.2679C39.2259 36.401 39.1876 36.5982 39.2594 36.7692C39.3312 36.9403 39.5011 37.052 39.6877 37.052L42.7268 37.0401C42.8488 37.0401 42.9685 36.9902 43.0546 36.9047L44.141 35.8189C44.5239 35.4364 45.036 35.2225 45.5816 35.2225C46.1272 35.2225 46.6393 35.4292 47.027 35.8094L48.939 37.6935L52.2676 40.9746L47.0653 46.1777C46.6585 46.584 46.0841 46.8192 45.4883 46.8216C45.1916 46.8216 44.8996 46.7646 44.6436 46.6506C44.488 46.565 44.3468 46.4581 44.2248 46.3369L40.5683 42.7327L38.4577 40.6538C38.4577 40.6538 38.441 40.6372 38.4314 40.6301L35.2631 37.5058L34.282 36.5388C34.282 36.5388 34.2748 36.5317 34.27 36.5269L32.3389 34.6238C32.3389 34.6238 32.3173 34.6048 32.3078 34.5953C32.2216 34.5193 32.1116 34.4789 31.9991 34.4789C31.9536 34.4789 31.9058 34.486 31.8603 34.5003C31.6952 34.5525 31.5731 34.6903 31.5444 34.859L31.1089 37.3252C31.0826 37.4725 31.1304 37.6246 31.2381 37.7315L39.3958 45.7715L42.0161 48.3541L42.1118 48.4491C43.0475 49.3733 44.2942 49.877 45.6175 49.8723C45.8903 49.8723 46.1631 49.8485 46.4311 49.8034C46.5005 49.7915 46.5627 49.7653 46.6178 49.7273C47.6228 49.5325 48.5298 49.0502 49.2524 48.3256L50.3006 47.2778L56.295 41.281C56.4745 41.1005 56.4745 40.8082 56.2926 40.6301L56.2902 40.6324Z" fill="#BC9B6A"/>
<path d="M21.6373 53.9944C21.3956 54.769 21.276 55.161 21.276 55.1705C21.1013 55.6599 20.9146 56.0044 20.716 56.1992L18.9883 55.218C19.1869 54.7048 19.4669 53.9255 19.8282 52.8801C20.4097 53.1082 20.7495 53.2508 20.85 53.3054C21.2879 53.524 21.5536 53.7521 21.6397 53.992L21.6373 53.9944Z" fill="#A7A9AC"/>
<path d="M12.4676 44.89C12.2259 45.6646 12.1063 46.0566 12.1063 46.0661C11.9316 46.5555 11.7449 46.9 11.5463 47.0949L9.8186 46.1136C10.0172 45.6004 10.2972 44.8211 10.6585 43.7758C11.24 44.0038 11.5798 44.1464 11.6803 44.201C12.1183 44.4196 12.3839 44.6477 12.47 44.8877L12.4676 44.89Z" fill="#A7A9AC"/>
<path d="M57.5848 21.0099C57.3431 21.7845 57.2235 22.1765 57.2235 22.186C57.0488 22.6754 56.8621 23.0199 56.6635 23.2147L54.9358 22.2335C55.1344 21.7203 55.4144 20.941 55.7757 19.8956C56.3572 20.1237 56.697 20.2663 56.7975 20.3209C57.2354 20.5395 57.5011 20.7676 57.5872 21.0075L57.5848 21.0099Z" fill="#A7A9AC"/>
<path d="M48.4149 11.9056C48.1732 12.6801 48.0536 13.0721 48.0536 13.0816C47.8789 13.571 47.6922 13.9156 47.4936 14.1104L45.7659 13.1291C45.9645 12.6159 46.2445 11.8366 46.6058 10.7913C47.1873 11.0193 47.5271 11.1619 47.6276 11.2165C48.0655 11.4351 48.3311 11.6632 48.4173 11.9032L48.4149 11.9056Z" fill="#A7A9AC"/>
<path d="M13.0202 21.6894C12.2401 21.4495 11.8453 21.3307 11.8357 21.3307C11.3428 21.1572 10.9958 20.9719 10.7996 20.7747L11.7879 19.0593C12.3047 19.2565 13.0896 19.5345 14.1425 19.8933C13.9128 20.4706 13.7692 20.808 13.7142 20.9078C13.4941 21.3426 13.2643 21.6063 13.0226 21.6918L13.0202 21.6894Z" fill="#A7A9AC"/>
<path d="M22.1902 12.5851C21.4101 12.3451 21.0152 12.2263 21.0056 12.2263C20.5127 12.0529 20.1657 11.8675 19.9695 11.6703L20.9578 9.95496C21.4747 10.1522 22.2596 10.4301 23.3125 10.7889C23.0827 11.3662 22.9392 11.7036 22.8841 11.8034C22.664 12.2382 22.4342 12.5019 22.1926 12.5874L22.1902 12.5851Z" fill="#A7A9AC"/>
<path d="M46.3784 57.1733C45.5983 56.9334 45.2034 56.8146 45.1939 56.8146C44.7009 56.6411 44.3539 56.4558 44.1577 56.2586L45.146 54.5432C45.6629 54.7404 46.4478 55.0184 47.5007 55.3771C47.271 55.9545 47.1274 56.2919 47.0724 56.3917C46.8522 56.8264 46.6225 57.0902 46.3808 57.1757L46.3784 57.1733Z" fill="#A7A9AC"/>
<path d="M55.5483 48.069C54.7682 47.829 54.3734 47.7102 54.3638 47.7102C53.8708 47.5368 53.5239 47.3514 53.3276 47.1542L54.3159 45.4388C54.8328 45.636 55.6177 45.914 56.6706 46.2728C56.4409 46.8501 56.2973 47.1875 56.2423 47.2873C56.0221 47.7221 55.7924 47.9858 55.5507 48.0713L55.5483 48.069Z" fill="#A7A9AC"/>
</svg>
