<svg width="184" height="52" viewBox="0 0 184 52" fill="none" xmlns="http://www.w3.org/2000/svg">
<path d="M1.89125 14C1.79791 14 1.75125 13.9533 1.75125 13.86V4.62C1.75125 4.52667 1.79791 4.48 1.89125 4.48H5.58725C6.10058 4.48 6.56258 4.55467 6.97325 4.704C7.38391 4.85333 7.73391 5.06333 8.02325 5.334C8.31258 5.60467 8.53191 5.92667 8.68125 6.3C8.83058 6.67333 8.90525 7.08867 8.90525 7.546C8.90525 7.994 8.82591 8.40467 8.66725 8.778C8.51791 9.15133 8.29858 9.47333 8.00925 9.744C7.72925 10.0147 7.38391 10.2247 6.97325 10.374C6.56258 10.5233 6.10058 10.598 5.58725 10.598H3.89325C3.83725 10.598 3.80925 10.626 3.80925 10.682V13.86C3.80925 13.9533 3.76258 14 3.66925 14H1.89125ZM5.46125 8.82C5.89991 8.82 6.24058 8.708 6.48325 8.484C6.72591 8.25067 6.84725 7.938 6.84725 7.546C6.84725 7.154 6.72591 6.84133 6.48325 6.608C6.24058 6.37467 5.89991 6.258 5.46125 6.258H3.89325C3.83725 6.258 3.80925 6.286 3.80925 6.342V8.736C3.80925 8.792 3.83725 8.82 3.89325 8.82H5.46125ZM13.1058 14.154C12.3871 14.154 11.7664 13.9907 11.2438 13.664C10.7211 13.3373 10.3618 12.866 10.1658 12.25C10.0911 12.0073 10.0351 11.76 9.99778 11.508C9.96045 11.2467 9.94178 10.948 9.94178 10.612C9.94178 10.276 9.96045 9.982 9.99778 9.73C10.0351 9.46867 10.0911 9.21667 10.1658 8.974C10.3618 8.358 10.7211 7.88667 11.2438 7.56C11.7664 7.23333 12.3871 7.07 13.1058 7.07C13.8244 7.07 14.4451 7.23333 14.9678 7.56C15.4904 7.88667 15.8498 8.358 16.0458 8.974C16.1204 9.21667 16.1764 9.46867 16.2138 9.73C16.2511 9.982 16.2698 10.276 16.2698 10.612C16.2698 10.948 16.2511 11.2467 16.2138 11.508C16.1764 11.76 16.1204 12.0073 16.0458 12.25C15.8498 12.866 15.4904 13.3373 14.9678 13.664C14.4451 13.9907 13.8244 14.154 13.1058 14.154ZM13.1058 12.502C13.6471 12.502 13.9971 12.2593 14.1558 11.774C14.2024 11.6153 14.2351 11.4567 14.2538 11.298C14.2724 11.13 14.2818 10.9013 14.2818 10.612C14.2818 10.3227 14.2724 10.0987 14.2538 9.94C14.2351 9.772 14.2024 9.60867 14.1558 9.45C13.9971 8.96467 13.6471 8.722 13.1058 8.722C12.5644 8.722 12.2144 8.96467 12.0558 9.45C12.0091 9.60867 11.9764 9.772 11.9578 9.94C11.9391 10.0987 11.9298 10.3227 11.9298 10.612C11.9298 10.9013 11.9391 11.13 11.9578 11.298C11.9764 11.4567 12.0091 11.6153 12.0558 11.774C12.2144 12.2593 12.5644 12.502 13.1058 12.502ZM23.5075 14C23.4235 14 23.3675 13.9533 23.3395 13.86L22.1775 9.926H22.1495L20.9595 13.86C20.9315 13.9533 20.8755 14 20.7915 14H19.4055C19.3215 14 19.2655 13.9533 19.2375 13.86L17.0675 7.364C17.0395 7.27067 17.0722 7.224 17.1655 7.224H18.8875C18.9902 7.224 19.0555 7.27067 19.0835 7.364L20.2035 11.396H20.2315L21.3935 7.364C21.4215 7.27067 21.4869 7.224 21.5895 7.224H22.7655C22.8589 7.224 22.9195 7.27067 22.9475 7.364L24.1375 11.396H24.1655L25.2295 7.364C25.2575 7.27067 25.3182 7.224 25.4115 7.224H27.1335C27.2362 7.224 27.2735 7.27067 27.2455 7.364L25.0755 13.86C25.0475 13.9533 24.9915 14 24.9075 14H23.5075ZM31.4333 14.154C30.6586 14.154 30.0146 13.986 29.5013 13.65C28.9879 13.314 28.6333 12.838 28.4373 12.222C28.3626 12.0073 28.3019 11.774 28.2553 11.522C28.2179 11.27 28.1993 10.9667 28.1993 10.612C28.1993 10.2573 28.2179 9.954 28.2553 9.702C28.2926 9.44067 28.3486 9.20267 28.4233 8.988C28.6193 8.372 28.9693 7.90067 29.4733 7.574C29.9866 7.238 30.6073 7.07 31.3353 7.07C32.0913 7.07 32.7166 7.238 33.2113 7.574C33.7153 7.91 34.0653 8.37667 34.2613 8.974C34.2986 9.086 34.3313 9.20733 34.3593 9.338C34.3873 9.45933 34.4106 9.59933 34.4293 9.758C34.4479 9.91667 34.4619 10.1033 34.4713 10.318C34.4806 10.5233 34.4853 10.7707 34.4853 11.06C34.4853 11.1533 34.4339 11.2 34.3313 11.2H30.2293C30.1733 11.2 30.1453 11.228 30.1453 11.284C30.1546 11.424 30.1826 11.55 30.2293 11.662C30.3226 11.9607 30.4906 12.1847 30.7333 12.334C30.9759 12.4833 31.2746 12.558 31.6293 12.558C31.9653 12.558 32.2593 12.5067 32.5113 12.404C32.7633 12.292 32.9873 12.1427 33.1833 11.956C33.2673 11.8907 33.3326 11.8907 33.3793 11.956L34.3033 12.824C34.3779 12.8893 34.3826 12.9547 34.3173 13.02C33.9906 13.3653 33.5846 13.6407 33.0993 13.846C32.6139 14.0513 32.0586 14.154 31.4333 14.154ZM32.4693 9.898C32.5253 9.898 32.5533 9.87 32.5533 9.814C32.5533 9.71133 32.5439 9.62267 32.5253 9.548C32.5159 9.464 32.5019 9.38467 32.4833 9.31C32.4086 9.07667 32.2686 8.89467 32.0633 8.764C31.8673 8.63333 31.6293 8.568 31.3493 8.568C31.0693 8.568 30.8266 8.63333 30.6213 8.764C30.4253 8.89467 30.2899 9.07667 30.2153 9.31C30.1966 9.38467 30.1779 9.464 30.1593 9.548C30.1499 9.62267 30.1453 9.71133 30.1453 9.814C30.1453 9.87 30.1733 9.898 30.2293 9.898H32.4693ZM36.2181 14C36.1248 14 36.0781 13.9533 36.0781 13.86V7.364C36.0781 7.27067 36.1248 7.224 36.2181 7.224H37.8981C37.9914 7.224 38.0381 7.27067 38.0381 7.364V7.938H38.0521C38.2108 7.66733 38.4394 7.45733 38.7381 7.308C39.0368 7.14933 39.3961 7.07 39.8161 7.07C40.0401 7.07 40.2548 7.10733 40.4601 7.182C40.6748 7.24733 40.8568 7.34533 41.0061 7.476C41.0714 7.532 41.0854 7.59733 41.0481 7.672L40.2641 9.1C40.2174 9.156 40.1521 9.16533 40.0681 9.128C39.7321 8.91333 39.4054 8.81067 39.0881 8.82C38.7241 8.83867 38.4581 8.974 38.2901 9.226C38.1221 9.478 38.0381 9.83267 38.0381 10.29V13.86C38.0381 13.9533 37.9914 14 37.8981 14H36.2181ZM45.097 14.154C44.3224 14.154 43.6784 13.986 43.165 13.65C42.6517 13.314 42.297 12.838 42.101 12.222C42.0264 12.0073 41.9657 11.774 41.919 11.522C41.8817 11.27 41.863 10.9667 41.863 10.612C41.863 10.2573 41.8817 9.954 41.919 9.702C41.9564 9.44067 42.0124 9.20267 42.087 8.988C42.283 8.372 42.633 7.90067 43.137 7.574C43.6504 7.238 44.271 7.07 44.999 7.07C45.755 7.07 46.3804 7.238 46.875 7.574C47.379 7.91 47.729 8.37667 47.925 8.974C47.9624 9.086 47.995 9.20733 48.023 9.338C48.051 9.45933 48.0744 9.59933 48.093 9.758C48.1117 9.91667 48.1257 10.1033 48.135 10.318C48.1444 10.5233 48.149 10.7707 48.149 11.06C48.149 11.1533 48.0977 11.2 47.995 11.2H43.893C43.837 11.2 43.809 11.228 43.809 11.284C43.8184 11.424 43.8464 11.55 43.893 11.662C43.9864 11.9607 44.1544 12.1847 44.397 12.334C44.6397 12.4833 44.9384 12.558 45.293 12.558C45.629 12.558 45.923 12.5067 46.175 12.404C46.427 12.292 46.651 12.1427 46.847 11.956C46.931 11.8907 46.9964 11.8907 47.043 11.956L47.967 12.824C48.0417 12.8893 48.0464 12.9547 47.981 13.02C47.6544 13.3653 47.2484 13.6407 46.763 13.846C46.2777 14.0513 45.7224 14.154 45.097 14.154ZM46.133 9.898C46.189 9.898 46.217 9.87 46.217 9.814C46.217 9.71133 46.2077 9.62267 46.189 9.548C46.1797 9.464 46.1657 9.38467 46.147 9.31C46.0724 9.07667 45.9324 8.89467 45.727 8.764C45.531 8.63333 45.293 8.568 45.013 8.568C44.733 8.568 44.4904 8.63333 44.285 8.764C44.089 8.89467 43.9537 9.07667 43.879 9.31C43.8604 9.38467 43.8417 9.464 43.823 9.548C43.8137 9.62267 43.809 9.71133 43.809 9.814C43.809 9.87 43.837 9.898 43.893 9.898H46.133ZM53.8718 14C53.7785 14 53.7318 13.9533 53.7318 13.86V13.37H53.7178C53.5592 13.6033 53.3352 13.7947 53.0458 13.944C52.7565 14.084 52.3878 14.154 51.9398 14.154C51.3705 14.154 50.8898 14.0187 50.4978 13.748C50.1058 13.468 49.8212 13.062 49.6438 12.53C49.5598 12.2593 49.4992 11.984 49.4618 11.704C49.4245 11.4147 49.4058 11.0507 49.4058 10.612C49.4058 10.164 49.4245 9.8 49.4618 9.52C49.4992 9.24 49.5598 8.96467 49.6438 8.694C49.8212 8.15267 50.1058 7.74667 50.4978 7.476C50.8898 7.20533 51.3705 7.07 51.9398 7.07C52.3878 7.07 52.7565 7.14467 53.0458 7.294C53.3352 7.434 53.5592 7.62067 53.7178 7.854H53.7318V4.62C53.7318 4.52667 53.7785 4.48 53.8718 4.48H55.5518C55.6452 4.48 55.6918 4.52667 55.6918 4.62V13.86C55.6918 13.9533 55.6452 14 55.5518 14H53.8718ZM52.5698 12.502C53.1018 12.502 53.4472 12.2593 53.6058 11.774C53.6525 11.6433 53.6852 11.494 53.7038 11.326C53.7225 11.1487 53.7318 10.9107 53.7318 10.612C53.7318 10.3133 53.7225 10.08 53.7038 9.912C53.6852 9.73467 53.6525 9.58067 53.6058 9.45C53.4565 8.96467 53.1112 8.722 52.5698 8.722C52.0192 8.722 51.6692 8.96467 51.5198 9.45C51.4732 9.58067 51.4405 9.73467 51.4218 9.912C51.4032 10.08 51.3938 10.3133 51.3938 10.612C51.3938 10.9107 51.4032 11.1487 51.4218 11.326C51.4405 11.494 51.4732 11.6433 51.5198 11.774C51.6785 12.2593 52.0285 12.502 52.5698 12.502ZM61.1094 4.62C61.1094 4.52667 61.156 4.48 61.2494 4.48H64.9594C65.9954 4.48 66.7607 4.71333 67.2554 5.18C67.75 5.64667 67.9974 6.258 67.9974 7.014C67.9974 7.53667 67.89 7.96133 67.6754 8.288C67.47 8.61467 67.2087 8.86667 66.8914 9.044V9.072C67.05 9.128 67.204 9.22133 67.3534 9.352C67.512 9.47333 67.6474 9.62733 67.7594 9.814C67.8807 10.0007 67.9787 10.2153 68.0534 10.458C68.128 10.6913 68.1654 10.948 68.1654 11.228C68.1654 12.1707 67.8714 12.8707 67.2834 13.328C66.7047 13.776 65.8974 14 64.8614 14H61.2494C61.156 14 61.1094 13.9533 61.1094 13.86V4.62ZM64.7074 8.372C65.0994 8.372 65.4027 8.274 65.6174 8.078C65.8414 7.882 65.9534 7.60667 65.9534 7.252C65.9534 6.89733 65.8414 6.62667 65.6174 6.44C65.4027 6.244 65.0994 6.146 64.7074 6.146H63.2514C63.1954 6.146 63.1674 6.174 63.1674 6.23V8.288C63.1674 8.344 63.1954 8.372 63.2514 8.372H64.7074ZM63.1674 12.25C63.1674 12.306 63.1954 12.334 63.2514 12.334H64.8194C65.2394 12.334 65.5567 12.2313 65.7714 12.026C65.9954 11.8113 66.1074 11.5173 66.1074 11.144C66.1074 10.78 65.9954 10.4907 65.7714 10.276C65.5567 10.0613 65.2394 9.954 64.8194 9.954H63.2514C63.1954 9.954 63.1674 9.982 63.1674 10.038V12.25ZM70.2063 16.52C70.113 16.52 70.0663 16.4733 70.0663 16.38V15.008C70.0663 14.9147 70.113 14.868 70.2063 14.868H70.5003C70.743 14.868 70.9343 14.812 71.0743 14.7C71.2236 14.5973 71.3403 14.42 71.4243 14.168L71.6063 13.664L69.0863 7.364C69.0583 7.27067 69.0956 7.224 69.1983 7.224H70.9903C71.0743 7.224 71.1303 7.27067 71.1583 7.364L72.5163 11.284H72.5443L73.8043 7.364C73.8323 7.27067 73.8883 7.224 73.9723 7.224H75.7083C75.811 7.224 75.8483 7.27067 75.8203 7.364L73.0763 14.574C72.9363 14.9473 72.787 15.26 72.6283 15.512C72.479 15.764 72.311 15.9647 72.1243 16.114C71.9376 16.2633 71.7276 16.366 71.4943 16.422C71.261 16.4873 70.9903 16.52 70.6823 16.52H70.2063Z" fill="#F4F4F4"/>
<g clip-path="url(#clip0_1003_4008)">
<path d="M163.095 0.231295C159.557 1.36885 158.491 5.89377 161.138 8.4975L161.803 9.15475L159.846 14.9057L157.889 20.644L156.822 20.6693C155.668 20.6946 154.852 20.9221 153.949 21.4782L153.372 21.8195L151.691 19.4812C150.762 18.192 149.972 17.0797 149.959 17.0291C149.934 16.9659 150.123 16.6879 150.373 16.3972C151.139 15.5503 151.377 14.8931 151.377 13.5786C151.377 12.6812 151.314 12.3146 151.101 11.847C150.725 11.0128 149.784 10.0395 148.943 9.63505C148.328 9.33171 148.09 9.28115 147.111 9.28115C146.133 9.28115 145.882 9.33171 145.28 9.63505C144.414 10.0648 143.624 10.899 143.184 11.847C142.908 12.4284 142.858 12.757 142.846 13.5786C142.846 14.476 142.896 14.6908 143.26 15.4366C143.736 16.4098 144.414 17.0797 145.405 17.5474C145.995 17.8254 146.283 17.876 147.174 17.876C147.764 17.8633 148.366 17.8001 148.517 17.7117C148.768 17.5726 148.88 17.699 150.574 20.0373C151.553 21.4024 152.356 22.5779 152.368 22.6663C152.368 22.7422 152.155 23.2604 151.879 23.8039C151.402 24.7771 151.377 24.853 151.377 26.079C151.377 26.7868 151.415 27.5072 151.478 27.6968C151.536 27.9328 150.307 28.6869 147.789 29.9593C145.706 31.0084 143.962 31.8173 143.912 31.7541C143.849 31.7035 143.598 31.4002 143.348 31.0842C142.708 30.3006 141.616 29.5043 140.713 29.163C140.086 28.9229 139.722 28.8723 138.455 28.8723C136.974 28.8723 136.936 28.885 135.97 29.34C131.918 31.2864 130.989 36.4433 134.114 39.5527C135.418 40.8545 136.798 41.4486 138.517 41.4486C140.236 41.4486 141.616 40.8545 142.921 39.5527C144.502 37.9854 145.154 35.6976 144.615 33.6121C144.514 33.2329 144.439 32.9169 144.452 32.9043C144.464 32.8917 146.158 32.0195 148.216 30.9578L151.967 29.0366L152.155 29.3273C152.619 30.0351 153.761 30.9957 154.551 31.3749C155.342 31.7541 155.48 31.7794 156.835 31.7794C158.19 31.7794 158.34 31.7541 159.018 31.4255C159.419 31.2359 159.771 31.0842 159.783 31.0842C159.808 31.0842 161.276 32.7147 163.045 34.6991L166.27 38.3013L165.943 38.9839C165.366 40.2225 165.191 41.1326 165.191 42.8389C165.191 44.6464 165.379 45.5185 166.094 46.972C167.223 49.285 169.381 51.0672 171.89 51.7624C173.007 52.0784 175.416 52.0784 176.532 51.7624C182.078 50.2077 184.876 44.0397 182.366 38.8575C181.425 36.911 180.234 35.6597 178.414 34.6991C176.946 33.9281 176.031 33.7006 174.224 33.6753L172.593 33.65L171.476 29.4537C170.862 27.1407 170.385 25.2321 170.41 25.2069C170.46 25.1563 175.441 24.6255 175.466 24.6634C175.479 24.6887 175.629 25.0173 175.805 25.4091C176.834 27.7095 179.506 28.6574 181.714 27.5199C182.442 27.1533 183.282 26.2307 183.659 25.4217C184.073 24.5243 184.11 23.1593 183.772 22.1355C183.483 21.3013 182.492 20.189 181.626 19.734C181.049 19.4306 180.848 19.3927 179.732 19.3927C178.615 19.3927 178.414 19.4306 177.812 19.7466C176.532 20.4165 175.629 21.6805 175.453 23.0076L175.378 23.589L172.743 23.8671C171.301 24.0188 170.096 24.1325 170.071 24.1072C170.059 24.082 169.205 20.9095 168.189 17.0544C167.173 13.1994 166.307 9.95104 166.282 9.83729C166.245 9.71089 166.395 9.57186 166.759 9.3949C168.553 8.58598 169.77 6.13392 169.381 4.12425C168.804 1.1287 165.893 -0.666107 163.095 0.231295ZM164.3 9.92576L165.053 10.0016L166.922 17.0797C168.189 21.8953 168.754 24.1831 168.653 24.2463C168.578 24.2842 167.198 24.4611 165.592 24.6255C163.986 24.7771 162.568 24.9414 162.456 24.9794C162.318 25.0046 162.23 24.9667 162.23 24.8656C162.23 24.7645 162.042 24.2968 161.803 23.8039C161.351 22.8433 160.523 21.9206 159.645 21.4024C159.332 21.2128 159.093 20.9979 159.118 20.9095C159.143 20.821 159.996 18.2678 161.038 15.2343C162.895 9.76145 162.92 9.71089 163.233 9.77409C163.409 9.81201 163.886 9.88784 164.3 9.92576ZM170.247 29.6433C170.887 32.0448 171.388 34.0292 171.363 34.0419C171.351 34.0671 170.937 34.2567 170.46 34.4842C169.369 34.9898 168.177 35.8367 167.524 36.5824C167.248 36.8984 166.997 37.1512 166.96 37.1512C166.872 37.1512 160.925 30.4775 160.875 30.3258C160.85 30.2626 161 29.9972 161.213 29.7318C161.828 28.9481 162.255 27.8612 162.33 26.8879C162.368 26.3823 162.443 26.0284 162.531 26.0158C162.706 26.0158 168.917 25.308 169.017 25.2827C169.055 25.2827 169.607 27.2418 170.247 29.6433Z" fill="white"/>
<path d="M110.916 4.79417C110.05 5.0596 108.933 5.38823 108.444 5.5399L107.528 5.81797V6.38675C107.528 6.86705 107.566 6.95552 107.754 6.89232C107.98 6.82913 109.761 6.29827 111.581 5.75477L112.672 5.41351V4.85737C112.672 4.54139 112.634 4.2886 112.584 4.30124C112.521 4.31387 111.781 4.52875 110.916 4.79417Z" fill="white"/>
<path d="M93.451 11.5183L93.4134 18.0023L93.037 18.7607C92.5854 19.6707 91.8828 20.2521 90.8791 20.5429C89.8879 20.8336 87.6672 20.7324 86.6886 20.3533C85.8856 20.0499 85.0325 19.3547 84.7314 18.7733C84.1793 17.699 84.3299 16.157 85.158 14.6402C85.1831 14.5897 85.0827 14.5265 84.9196 14.4886C84.5181 14.3748 84.0162 14.9057 83.4642 16.0306C83.0376 16.9027 83 17.067 83 18.0529C83 18.9124 83.0627 19.2663 83.2886 19.7718C83.803 20.9094 84.7816 21.7183 86.2746 22.2492C87.341 22.6284 89.5993 22.7168 90.8916 22.4388C92.9868 21.9585 94.7182 20.7072 95.4584 19.1146L95.7972 18.3815L95.8348 11.7079L95.8725 5.04688H93.4887L93.451 11.5183Z" fill="white"/>
<path d="M99.3728 11.8722V18.6975L107.277 18.7228C112.509 18.748 115.169 18.7228 115.131 18.6343C115.106 18.5585 114.993 18.2804 114.88 18.0023C114.767 17.7243 114.516 16.6246 114.315 15.5629C113.901 13.4521 113.563 12.5421 112.885 11.7837C111.681 10.4566 109.36 9.93835 106.775 10.4313C105.219 10.722 105.132 10.7725 105.27 11.2528C105.332 11.4677 105.408 11.67 105.433 11.7079C105.458 11.7331 106.01 11.6573 106.662 11.5436C108.469 11.2276 109.661 11.4551 110.526 12.2893C111.078 12.8201 111.342 13.4395 111.731 15.0952C111.907 15.8283 112.132 16.6373 112.233 16.8774L112.408 17.3071H101.757V5.04688H99.3728V11.8722Z" fill="white"/>
<path d="M119.698 15.0193C119.698 19.2409 119.622 20.1256 119.183 20.7323C118.732 21.3643 118.268 21.5286 116.913 21.516C115.972 21.516 115.683 21.5539 115.633 21.6929C115.47 22.0974 117.201 22.5398 118.606 22.4639C120.137 22.3755 121.028 21.8193 121.718 20.4669C122.019 19.9108 122.019 19.8476 122.056 15.4364L122.094 10.9873H119.698V15.0193Z" fill="white"/>
<path d="M119.51 24.1199L117.126 24.8404L117.088 25.2575C117.013 26.0538 116.988 26.0538 119.685 25.2322L122.207 24.4738V23.9177C122.207 23.5638 122.157 23.3742 122.056 23.3868C121.969 23.3995 120.827 23.7281 119.51 24.1199Z" fill="white"/>
<path d="M84.2295 31.0967C84.0037 31.3242 83.9911 45.1139 84.2169 45.3414C84.3048 45.4299 84.7062 45.4931 85.1328 45.4931C85.5594 45.4931 85.9609 45.4299 86.0487 45.3414C86.1616 45.2276 86.1993 44.3934 86.1993 42.3332V39.4893L88.445 39.5525C90.5904 39.6157 90.7159 39.6283 91.0045 39.919C91.431 40.3109 91.5565 41.006 91.6443 43.1548C91.7447 45.6826 91.6443 45.5057 93.0244 45.4678C94.116 45.4299 94.1661 45.4172 94.2038 45.1391C94.2289 44.9622 94.141 44.722 93.9779 44.5451C93.727 44.2797 93.6894 44.0648 93.6141 42.1183C93.5137 39.8432 93.3757 39.2871 92.7735 38.6551L92.4724 38.3265L92.7359 38.0863C93.037 37.8083 93.5263 36.8856 93.6517 36.3294C93.8148 35.6848 93.7396 33.9659 93.5388 33.3465C93.2503 32.4744 92.4849 31.6655 91.6192 31.3242C90.9543 31.0588 90.6783 31.0335 87.6421 30.983C85.1203 30.945 84.3424 30.9703 84.2295 31.0967ZM90.7786 33.2833C91.0296 33.3971 91.293 33.6372 91.4185 33.89C91.7196 34.4588 91.7196 35.925 91.431 36.4811C91.0547 37.1889 90.7285 37.2774 88.3321 37.2774H86.1993V33.1064H88.2694C89.7875 33.1064 90.465 33.1569 90.7786 33.2833Z" fill="white"/>
<path d="M96.0355 31.122C95.9978 31.2231 95.9853 31.7413 96.0104 32.2975L96.048 33.296H97.8045V31.0209L96.9513 30.983C96.324 30.9577 96.0856 30.9956 96.0355 31.122Z" fill="white"/>
<path d="M100.151 31.0589C100.025 31.1474 100 32.6767 100.025 38.3013L100.063 45.43H101.819L101.882 41.9541C101.945 38.5035 101.945 38.4656 102.284 37.7578C102.685 36.8857 103.2 36.5191 103.99 36.5191C104.667 36.5191 104.956 36.6708 105.232 37.189C105.433 37.5429 105.47 38.0864 105.521 41.5117L105.583 45.43L106.349 45.4679C106.901 45.4932 107.152 45.4552 107.265 45.3162C107.49 45.0381 107.39 37.1511 107.152 36.4812C106.913 35.824 106.198 35.015 105.596 34.737C104.969 34.4463 103.714 34.421 103.099 34.6864C102.861 34.7875 102.484 35.015 102.271 35.2046L101.882 35.5333V33.3972C101.882 31.9057 101.832 31.2106 101.732 31.1095C101.569 30.9451 100.402 30.9072 100.151 31.0589Z" fill="white"/>
<path d="M119.096 31.1094C118.857 31.3495 118.882 45.1518 119.121 45.3541C119.234 45.4425 119.598 45.4931 120.037 45.4678L120.764 45.4299V31.0209L120.012 30.983C119.535 30.9577 119.196 31.0083 119.096 31.1094Z" fill="white"/>
<path d="M111.493 34.7498C110.351 35.2048 109.535 36.3803 109.485 37.6443L109.473 38.2257L110.313 38.2636L111.141 38.3015L111.229 37.8844C111.455 36.8353 111.982 36.3929 112.986 36.3929C113.738 36.3929 114.278 36.6837 114.504 37.2145C114.981 38.3647 114.679 38.6807 112.785 38.9714C111.129 39.2368 110.301 39.5402 109.799 40.1216C109.209 40.8041 108.996 41.5246 109.046 42.7506C109.096 43.6606 109.147 43.8881 109.473 44.4316C110.414 45.9737 112.785 46.2138 114.29 44.9119L114.805 44.4696L114.918 44.7729C114.981 44.9372 115.194 45.2027 115.395 45.367C115.696 45.6071 115.859 45.6324 116.524 45.5945C116.95 45.5692 117.339 45.506 117.389 45.4681C117.502 45.3543 117.502 44.0398 117.389 43.8629C117.339 43.787 117.138 43.7365 116.963 43.7491L116.624 43.787L116.561 40.248C116.499 36.848 116.486 36.6837 116.198 36.1022C115.884 35.445 115.307 34.9394 114.592 34.674C113.876 34.4212 112.233 34.4591 111.493 34.7498ZM114.679 41.158C114.679 42.0681 114.479 42.6116 113.964 43.1171C113.4 43.6733 112.973 43.8502 112.245 43.8502C111.58 43.8502 111.104 43.4205 110.978 42.7253C110.828 41.8026 111.33 41.1833 112.459 40.9432C114.73 40.4502 114.679 40.4502 114.679 41.158Z" fill="white"/>
<path d="M96.1235 34.9265C96.0231 35.0402 95.998 36.557 96.0105 40.2603L96.0482 45.4299H97.8047L97.8423 40.2603C97.8549 36.557 97.8298 35.0402 97.7294 34.9265C97.6416 34.8127 97.3279 34.7495 96.9264 34.7495C96.5249 34.7495 96.2113 34.8127 96.1235 34.9265Z" fill="white"/>
</g>
<defs>
<clipPath id="clip0_1003_4008">
<rect width="101" height="52" fill="white" transform="translate(83)"/>
</clipPath>
</defs>
</svg>
