<svg width="50" height="51" viewBox="0 0 50 51" fill="none" xmlns="http://www.w3.org/2000/svg">
<circle cx="25" cy="25.084" r="25" fill="#E8DEF1"/>
<path fill-rule="evenodd" clip-rule="evenodd" d="M27.294 24.9484C27.7009 24.5249 28.0561 24.0513 28.3495 23.5378C30.0892 23.2983 31.4291 21.8056 31.4291 20C31.4291 18.1944 30.0892 16.7017 28.3494 16.4621C28.0519 15.9413 27.6907 15.4615 27.2764 15.0334C27.4671 15.0113 27.6611 15 27.8577 15C30.6191 15 32.8577 17.2386 32.8577 20C32.8577 22.7614 30.6191 25 27.8577 25C27.6861 25 27.5166 24.9914 27.3495 24.9745L27.294 24.9484ZM29.3864 26.4286C29.8144 26.8652 30.1869 27.3565 30.4922 27.8911C31.2578 27.9975 31.9731 28.3504 32.5259 28.9032C33.1957 29.573 33.572 30.4814 33.572 31.4286V35H35.0006V31.4286C35.0006 28.6671 32.762 26.4286 30.0006 26.4286H29.3864ZM25.7143 20C25.7143 18.0276 24.1153 16.4286 22.1429 16.4286C20.1704 16.4286 18.5714 18.0276 18.5714 20C18.5714 21.9725 20.1704 23.5715 22.1429 23.5715C24.1153 23.5715 25.7143 21.9725 25.7143 20ZM17.1429 20C17.1429 17.2386 19.3814 15 22.1429 15C24.9043 15 27.1429 17.2386 27.1429 20C27.1429 22.7615 24.9043 25 22.1429 25C19.3814 25 17.1429 22.7615 17.1429 20ZM27.8571 35H29.2857V31.4286C29.2857 28.6672 27.0471 26.4286 24.2857 26.4286H20C17.2386 26.4286 15 28.6672 15 31.4286V35H16.4286V31.4286C16.4286 29.4562 18.0276 27.8572 20 27.8572H24.2857C25.2329 27.8572 26.1413 28.2335 26.8111 28.9032C27.4809 29.573 27.8571 30.4814 27.8571 31.4286V35Z" fill="#392C45"/>
</svg>
