<svg width="50" height="51" viewBox="0 0 50 51" fill="none" xmlns="http://www.w3.org/2000/svg">
<circle cx="25" cy="25.084" r="25" fill="#E8DEF1"/>
<path fill-rule="evenodd" clip-rule="evenodd" d="M28.75 34C29.5784 34 30.25 33.3284 30.25 32.5C30.25 31.6716 29.5784 31 28.75 31C27.9216 31 27.25 31.6716 27.25 32.5C27.25 33.3284 27.9216 34 28.75 34ZM28.75 19C29.5784 19 30.25 18.3284 30.25 17.5C30.25 16.6716 29.5784 16 28.75 16C27.9216 16 27.25 16.6716 27.25 17.5C27.25 18.3284 27.9216 19 28.75 19ZM16 26.5C16.8284 26.5 17.5 25.8284 17.5 25C17.5 24.1716 16.8284 23.5 16 23.5C15.1716 23.5 14.5 24.1716 14.5 25C14.5 25.8284 15.1716 26.5 16 26.5ZM34 22C32.6358 22.0041 31.4465 22.9289 31.1065 24.25H27.8935C27.6785 23.3937 27.0942 22.6772 26.2986 22.2943C25.5031 21.9114 24.5786 21.9017 23.7752 22.2677L21.3925 19.2902C21.7844 18.7755 21.9977 18.147 22 17.5C22 15.8431 20.6569 14.5 19 14.5C17.3431 14.5 16 15.8431 16 17.5C16 19.1569 17.3431 20.5 19 20.5C19.4229 20.499 19.8407 20.4077 20.2255 20.2323L22.6075 23.2098C21.798 24.266 21.798 25.734 22.6075 26.7902L20.2255 29.7677C19.8407 29.5923 19.4229 29.501 19 29.5C17.3431 29.5 16 30.8431 16 32.5C16 34.1569 17.3431 35.5 19 35.5C20.6569 35.5 22 34.1569 22 32.5C21.9978 31.853 21.7845 31.2245 21.3925 30.7097L23.7745 27.7323C24.578 28.0986 25.5027 28.089 26.2984 27.7061C27.0941 27.3231 27.6785 26.6065 27.8935 25.75H31.1065C31.4989 27.2557 32.979 28.21 34.5125 27.9461C36.0459 27.6821 37.1217 26.2878 36.9881 24.7376C36.8545 23.1874 35.556 21.9977 34 22ZM17.5 17.5C17.5 16.6716 18.1716 16 19 16C19.8284 16 20.5 16.6716 20.5 17.5C20.5 18.3284 19.8284 19 19 19C18.1719 18.9992 17.5008 18.3281 17.5 17.5ZM17.5 32.5C17.5 33.3284 18.1716 34 19 34C19.8281 33.9992 20.4992 33.3281 20.5 32.5C20.5 31.6716 19.8284 31 19 31C18.1716 31 17.5 31.6716 17.5 32.5ZM25 26.5C24.1716 26.5 23.5 25.8284 23.5 25C23.5 24.1716 24.1716 23.5 25 23.5C25.8284 23.5 26.5 24.1716 26.5 25C26.4992 25.8281 25.8281 26.4992 25 26.5ZM32.5 25C32.5 25.8284 33.1716 26.5 34 26.5C34.8281 26.4992 35.4992 25.8281 35.5 25C35.5 24.1716 34.8284 23.5 34 23.5C33.1716 23.5 32.5 24.1716 32.5 25Z" fill="#392C45"/>
</svg>
