<svg width="50" height="51" viewBox="0 0 50 51" fill="none" xmlns="http://www.w3.org/2000/svg">
<circle cx="25" cy="25.084" r="25" fill="#E8DEF1"/>
<path fill-rule="evenodd" clip-rule="evenodd" d="M32.5 17.5V20.5H17.5V17.5H32.5ZM32.5 16H17.5C16.6716 16 16 16.6716 16 17.5V20.5C16 21.3284 16.6716 22 17.5 22H32.5C33.3284 22 34 21.3284 34 20.5V17.5C34 16.6716 33.3284 16 32.5 16ZM20.5 25V32.5H17.5V25H20.5ZM20.5 23.5H17.5C16.6716 23.5 16 24.1716 16 25V32.5C16 33.3284 16.6716 34 17.5 34H20.5C21.3284 34 22 33.3284 22 32.5V25C22 24.1716 21.3284 23.5 20.5 23.5ZM32.5 25V32.5H25V25H32.5ZM32.5 23.5H25C24.1716 23.5 23.5 24.1716 23.5 25V32.5C23.5 33.3284 24.1716 34 25 34H32.5C33.3284 34 34 33.3284 34 32.5V25C34 24.1716 33.3284 23.5 32.5 23.5Z" fill="#392C45"/>
</svg>
