<svg width="50" height="51" viewBox="0 0 50 51" fill="none" xmlns="http://www.w3.org/2000/svg">
<circle cx="25" cy="25.084" r="25" fill="#E8DEF1"/>
<path fill-rule="evenodd" clip-rule="evenodd" d="M30.2503 28C29.1131 28.0057 28.04 28.5271 27.3328 29.4175L21.8503 25.99C22.0501 25.3451 22.0501 24.6549 21.8503 24.01L27.3328 20.5825C28.4817 22.0052 30.4894 22.3917 32.0844 21.4972C33.6794 20.6028 34.3967 18.6882 33.782 16.9659C33.1673 15.2436 31.3999 14.2158 29.5989 14.5334C27.798 14.851 26.4888 16.4213 26.5003 18.25C26.5038 18.5854 26.5543 18.9186 26.6503 19.24L21.1678 22.6675C20.1757 21.4186 18.5022 20.9339 16.9963 21.4593C15.4903 21.9846 14.4814 23.4051 14.4814 25C14.4814 26.595 15.4903 28.0154 16.9963 28.5408C18.5022 29.0661 20.1757 28.5814 21.1678 27.3325L26.6503 30.76C26.5543 31.0814 26.5038 31.4146 26.5003 31.75C26.5003 33.8211 28.1792 35.5 30.2503 35.5C32.3213 35.5 34.0003 33.8211 34.0003 31.75C34.0003 29.679 32.3213 28 30.2503 28ZM30.2503 16C31.4929 16 32.5003 17.0074 32.5003 18.25C32.5003 19.4927 31.4929 20.5 30.2503 20.5C29.0076 20.5 28.0003 19.4927 28.0003 18.25C28.0003 17.0074 29.0076 16 30.2503 16ZM18.2503 27.25C17.0076 27.25 16.0003 26.2427 16.0003 25C16.0003 23.7574 17.0076 22.75 18.2503 22.75C19.4929 22.75 20.5003 23.7574 20.5003 25C20.5003 26.2427 19.4929 27.25 18.2503 27.25ZM30.2503 34C29.0076 34 28.0003 32.9927 28.0003 31.75C28.0003 30.5074 29.0076 29.5 30.2503 29.5C31.4929 29.5 32.5003 30.5074 32.5003 31.75C32.5003 32.9927 31.4929 34 30.2503 34Z" fill="#392C45"/>
</svg>
