<svg width="33" height="33" viewBox="0 0 33 33" fill="none" xmlns="http://www.w3.org/2000/svg">
<path d="M2.37578 31.9464L2.3759 31.9467L2.38832 31.9419L19.8295 25.0744L19.8307 25.0739C20.3177 24.8791 20.5585 24.3453 20.4134 23.8616L20.4136 23.8615L20.4099 23.8509C18.5686 18.5846 14.4807 14.4957 9.21519 12.653C8.70043 12.4509 8.17271 12.7671 7.98733 13.2305L7.98684 13.2318L1.12063 30.6698C0.972496 31.02 1.06954 31.4533 1.32056 31.7043C1.5018 31.8856 1.73173 31.9853 1.96873 31.9948C2.1325 32.0351 2.26773 31.9857 2.34605 31.957C2.35712 31.953 2.36706 31.9493 2.37578 31.9464ZM9.41356 14.8483C13.4137 16.4908 16.5697 19.6142 18.2128 23.6112L3.72078 29.3045L9.41356 14.8483Z" fill="#E4A430" stroke="#E4A430" stroke-width="0.5"/>
<path d="M16.3661 13.547L16.382 13.5549L16.3989 13.5605C16.4031 13.5619 16.4073 13.5634 16.4117 13.5648C16.5119 13.5983 16.6546 13.646 16.8049 13.646C17.1545 13.646 17.489 13.4477 17.676 13.1204L17.6764 13.1206L17.6826 13.1081C19.5352 9.4029 19.4977 4.9957 17.6095 1.29254C17.3658 0.806343 16.78 0.61133 16.2934 0.854608C15.8066 1.09803 15.6112 1.68423 15.8546 2.17108L15.8546 2.1711L15.8567 2.17509C17.49 5.29969 17.4912 9.06682 15.927 12.2311C15.684 12.7178 15.8794 13.3036 16.3661 13.547Z" fill="#E4A430" stroke="#E4A430" stroke-width="0.5"/>
<path d="M32.5404 17.518L32.5408 17.5181L32.547 17.5057C32.7902 17.0194 32.5954 16.4339 32.1096 16.19C28.442 14.3011 23.9982 14.2642 20.2934 16.1166C19.8066 16.36 19.6112 16.9462 19.8546 17.4331C20.098 17.9199 20.6842 18.1153 21.1711 17.8719L21.0593 17.6483L21.1701 17.8724C24.329 16.3107 28.092 16.3442 31.2172 17.9378C31.3855 18.0441 31.5545 18.0438 31.6574 18.0436C31.6615 18.0436 31.6655 18.0436 31.6693 18.0436C32.0189 18.0436 32.3534 17.8453 32.5404 17.518Z" fill="#E4A430" stroke="#E4A430" stroke-width="0.5"/>
<path d="M28.7426 6.21092L28.7272 6.20899H28.7116H27.5034L26.8505 5.19705L26.8506 5.19704L26.8485 5.19391C26.6583 4.90864 26.3167 4.70779 25.9191 4.7575C25.5332 4.80573 25.2437 5.05026 25.1026 5.37945L25.0997 5.38616L25.0972 5.39302L24.6691 6.57865L23.4504 6.90803L23.4504 6.90801L23.4469 6.90899C23.1084 7.00572 22.8101 7.29717 22.7591 7.69757C22.711 8.03989 22.8556 8.41461 23.1375 8.64952L23.1374 8.64972L23.1465 8.65663L24.0911 9.37321L23.9935 10.576C23.9462 10.9732 24.1489 11.3152 24.4742 11.5044C24.6208 11.6005 24.7759 11.6507 24.969 11.6507C25.1465 11.6507 25.3577 11.6077 25.5272 11.4497L26.5661 10.7355L27.7109 11.1607C28.0613 11.3078 28.4516 11.2085 28.6986 10.9677C28.9918 10.7174 29.0848 10.3265 28.9886 9.98847C28.9885 9.98816 28.9884 9.98786 28.9883 9.98755L28.6597 8.80446L29.4504 7.81606C29.6927 7.5237 29.7399 7.13367 29.5954 6.79654C29.4407 6.43558 29.0906 6.25443 28.7426 6.21092ZM25.8326 8.26105C25.9946 8.17736 26.1394 8.05226 26.2334 7.88108C26.3686 8.01671 26.5344 8.10368 26.7173 8.14117C26.6419 8.29753 26.6015 8.47778 26.621 8.65831C26.4231 8.62265 26.2166 8.64687 26.0384 8.71725C26.0118 8.55391 25.95 8.39585 25.8326 8.26105Z" fill="#E4A430" stroke="#E4A430" stroke-width="0.5"/>
<path d="M8.57335 9.15821L8.57319 9.15831L8.57849 9.16625C8.77238 9.45708 9.07028 9.60459 9.4042 9.60459H9.40442H9.40463H9.40484H9.40505H9.40526H9.40547H9.40567H9.40588H9.40609H9.40629H9.4065H9.4067H9.4069H9.40711H9.40731H9.40751H9.40771H9.40791H9.4081H9.4083H9.4085H9.40869H9.40889H9.40908H9.40928H9.40947H9.40966H9.40985H9.41004H9.41023H9.41042H9.41061H9.4108H9.41098H9.41117H9.41136H9.41154H9.41172H9.41191H9.41209H9.41227H9.41245H9.41263H9.41281H9.41299H9.41317H9.41335H9.41353H9.4137H9.41388H9.41405H9.41423H9.4144H9.41457H9.41475H9.41492H9.41509H9.41526H9.41543H9.4156H9.41577H9.41594H9.4161H9.41627H9.41644H9.4166H9.41677H9.41693H9.41709H9.41726H9.41742H9.41758H9.41774H9.4179H9.41806H9.41822H9.41838H9.41854H9.4187H9.41885H9.41901H9.41917H9.41932H9.41948H9.41963H9.41978H9.41994H9.42009H9.42024H9.42039H9.42054H9.42069H9.42084H9.42099H9.42114H9.42129H9.42144H9.42159H9.42173H9.42188H9.42202H9.42217H9.42231H9.42246H9.4226H9.42275H9.42289H9.42303H9.42317H9.42331H9.42345H9.42359H9.42373H9.42387H9.42401H9.42415H9.42429H9.42443H9.42456H9.4247H9.42484H9.42497H9.42511H9.42524H9.42538H9.42551H9.42565H9.42578H9.42591H9.42604H9.42618H9.42631H9.42644H9.42657H9.4267H9.42683H9.42696H9.42709H9.42722H9.42735H9.42748H9.4276H9.42773H9.42786H9.42798H9.42811H9.42824H9.42836H9.42849H9.42861H9.42874H9.42886H9.42898H9.42911H9.42923H9.42935H9.42948H9.4296H9.42972H9.42984H9.42996H9.43008H9.43021H9.43033H9.43045H9.43057H9.43068H9.4308H9.43092H9.43104H9.43116H9.43128H9.4314H9.43151H9.43163H9.43175H9.43186H9.43198H9.4321H9.43221H9.43233H9.43244H9.43256H9.43267H9.43279H9.4329H9.43302H9.43313H9.43325H9.43336H9.43347H9.43359H9.4337H9.43381H9.43392H9.43404H9.43415H9.43426H9.43437H9.43448H9.4346H9.43471H9.43482H9.43493H9.43504H9.43515H9.43526H9.43537H9.43548H9.43559H9.4357H9.43581H9.43592H9.43603H9.43614H9.43625H9.43636H9.43647H9.43657H9.43668H9.43679H9.4369H9.43701H9.43712H9.43722H9.43733H9.43744H9.43755H9.43766H9.43776H9.43787H9.43798H9.43809H9.43819H9.4383H9.43841H9.43851H9.43862H9.43873H9.43884H9.43894H9.43905H9.43916H9.43926H9.43937H9.43948H9.43958H9.43969H9.4398H9.4399H9.44001H9.44011H9.44022H9.44033H9.44043H9.44054H9.44065H9.44075H9.44086H9.44097H9.44107H9.44118H9.44129H9.44139H9.4415H9.44161H9.44171H9.44182H9.44193H9.44203H9.44214H9.44225H9.44235H9.44246H9.44257H9.44267H9.44278H9.44289H9.443H9.4431H9.44321H9.44332H9.44343H9.44353H9.44364H9.44375H9.44386H9.44397H9.44407H9.44418H9.44429H9.4444H9.44451H9.44462H9.44472H9.44483H9.44494H9.44505H9.44516H9.44527H9.44538H9.44549H9.4456H9.44571H9.44582H9.44593H9.44604H9.44615H9.44626H9.44637H9.44649H9.4466H9.44671H9.44682H9.44693H9.44705H9.44716H9.44727H9.44738H9.4475H9.44761H9.44772H9.44784H9.44795H9.44806H9.44818H9.44829H9.44841H9.44852H9.44864H9.44875H9.44887H9.44898H9.4491H9.44922H9.44933H9.44945H9.44957H9.44969H9.4498H9.44992H9.45004H9.45016H9.45028H9.4504H9.45052H9.45064H9.45076H9.45088H9.451H9.45112H9.45124H9.45136H9.45148H9.45161H9.45173H9.45185H9.45197H9.4521H9.45222H9.45235H9.45247H9.45259H9.45272H9.45285H9.45297H9.4531H9.45322H9.45335H9.45348H9.45361H9.45373H9.45386H9.45399H9.45412H9.45425H9.45438H9.45451H9.45464H9.45477H9.45491H9.45504H9.45517H9.4553H9.45544H9.45557H9.4557H9.45584H9.45597H9.45611H9.45624H9.45638H9.45652H9.45665H9.45679H9.45693H9.45707H9.45721H9.45735H9.45749H9.45763H9.45777H9.45791H9.45805H9.45819H9.45834H9.45848H9.45862H9.45877H9.45891H9.45906H9.4592H9.45935H9.4595H9.45964H9.45979H9.45994H9.46009H9.46024H9.46039H9.46054H9.46069H9.46084H9.46099H9.46114H9.4613H9.46145H9.46161H9.46176H9.46192H9.46207H9.46223H9.46239H9.46254H9.4627H9.46286H9.46302H9.46318H9.46334H9.4635H9.46366H9.46383H9.46399H9.46415H9.46432H9.46448H9.46465H9.46481H9.46498H9.46515H9.46531H9.46548H9.46565H9.46582H9.46599H9.46616H9.46633H9.46651H9.46668H9.46685H9.46703H9.4672H9.46738H9.46756H9.46773H9.46791H9.46809H9.46827H9.46845H9.46863H9.46881H9.46899H9.46917H9.46936H9.46954H9.46973H9.46991H9.4701H9.47028H9.47047H9.47066H9.47085H9.47104H9.47123H9.47142H9.47161H9.47181H9.472H9.47219H9.47239H9.47258H9.47278H9.47298H9.47318H9.47337H9.47357H9.47377H9.47398H9.47418H9.47438H9.47458H9.47479H9.47499H9.4752H9.47541H9.47561H9.47582H9.47603H9.47624H9.47645H9.47666H9.47688H9.49244L9.50789 9.60266C9.89379 9.55442 10.1833 9.3099 10.3244 8.98071L10.3245 8.98076L10.3276 8.97284L10.7905 7.78252L12.0129 7.45212L12.0129 7.45215L12.0164 7.45117C12.3483 7.35634 12.6512 7.06973 12.7039 6.7011C12.7493 6.38316 12.6623 5.99718 12.3621 5.74698L12.3623 5.74678L12.3532 5.73986L11.4086 5.02328L11.5061 3.82045C11.5537 3.42032 11.3476 3.07614 11.018 2.88778L10.8954 3.10227L11.018 2.88778C10.6958 2.70369 10.2934 2.68762 9.98051 2.9412L8.93234 3.66182L7.7513 3.23534C7.40112 3.08891 7.01146 3.18829 6.76471 3.42876C6.47155 3.67906 6.37852 4.06999 6.47471 4.40799L6.80276 5.58898L5.97827 6.57837C5.73445 6.87096 5.68671 7.26203 5.83153 7.59995C5.98623 7.96092 6.33633 8.14207 6.68435 8.18557L6.70307 8.18791L6.72194 8.18741L7.9584 8.15487L8.57335 9.15821ZM8.84234 5.70185C9.03484 5.73654 9.23547 5.71456 9.4103 5.64855C9.43583 5.82598 9.51663 5.98422 9.63967 6.11328C9.45962 6.19639 9.29629 6.3284 9.19353 6.51541C9.06231 6.38378 8.90235 6.29799 8.72582 6.25877C8.81399 6.09362 8.86351 5.89789 8.84234 5.70185Z" fill="#E4A430" stroke="#E4A430" stroke-width="0.5"/>
<path d="M24.395 23.0622L24.3871 23.065L24.3794 23.0683C24.0502 23.2094 23.8057 23.4989 23.7575 23.8848C23.7072 24.2866 23.9128 24.6326 24.2429 24.8221L25.2855 25.4412L25.318 26.6084C25.3195 27.0189 25.5812 27.305 25.88 27.4757L25.9014 27.488L25.9249 27.4958C25.9378 27.5001 25.9522 27.5054 25.9681 27.5112C26.0463 27.5398 26.1599 27.5813 26.2947 27.5813C26.5037 27.5813 26.7315 27.4833 26.8788 27.4096L26.9025 27.3978L26.9232 27.3812L27.9143 26.5884L29.1347 26.9182C29.4758 27.0149 29.8706 26.919 30.1203 26.6193C30.3637 26.3273 30.4054 25.9474 30.314 25.6276L30.3101 25.614L30.3048 25.601L29.8472 24.4898L30.5349 23.4746L30.5349 23.4746L30.536 23.4731C30.7203 23.1965 30.7867 22.7624 30.5772 22.4401C30.3754 22.0935 30.0266 21.958 29.6739 21.958H29.664L29.6542 21.9588L28.4063 22.0573L27.6533 21.1079L27.6534 21.1079L27.6495 21.1032C27.4008 20.8048 27.0535 20.7166 26.6997 20.7609L26.6806 20.7632L26.662 20.7685C26.3438 20.8595 26.0467 21.0941 25.9453 21.4489L25.9453 21.4489L25.9448 21.4507L25.6164 22.6331L24.395 23.0622ZM27.7155 24.5125C27.5101 24.4942 27.3059 24.5525 27.1378 24.6507C27.096 24.4759 27.0028 24.3218 26.8748 24.2034C27.049 24.1121 27.1983 23.9638 27.2812 23.769C27.4095 23.8798 27.5673 23.9576 27.7453 23.9826C27.6852 24.1517 27.6698 24.3344 27.7155 24.5125Z" fill="#E4A430" stroke="#E4A430" stroke-width="0.5"/>
</svg>
