<svg width="31" height="29" viewBox="0 0 31 29" fill="none" xmlns="http://www.w3.org/2000/svg">
<path d="M27.5166 9.24902H3.10942C2.4967 9.24902 2 9.74573 2 10.3584V14.7961C2 15.4088 2.4967 15.9055 3.10942 15.9055H27.5166C28.1293 15.9055 28.626 15.4088 28.626 14.7961V10.3584C28.626 9.74573 28.1293 9.24902 27.5166 9.24902Z" stroke="#E4A430" stroke-width="2.8" stroke-linecap="round" stroke-linejoin="round"/>
<path d="M26.4071 15.9058V25.8905C26.4071 26.1848 26.2902 26.4669 26.0822 26.675C25.8741 26.8831 25.5919 26.9999 25.2977 26.9999H5.32817C5.03393 26.9999 4.75175 26.8831 4.54369 26.675C4.33564 26.4669 4.21875 26.1848 4.21875 25.8905V15.9058" stroke="#E4A430" stroke-width="2.8" stroke-linecap="round" stroke-linejoin="round"/>
<path d="M15.313 9.24902V26.9997" stroke="#E4A430" stroke-width="2.8" stroke-linecap="round" stroke-linejoin="round"/>
<path d="M15.3128 9.2493C15.3128 9.2493 20.0196 9.2493 21.5886 7.68035C22.2122 7.05605 22.5623 6.20969 22.5621 5.32731C22.5618 4.44493 22.2112 3.59876 21.5873 2.97482C20.9633 2.35089 20.1172 2.00025 19.2348 2C18.3524 1.99975 17.506 2.3499 16.8817 2.97348C15.3128 4.54244 15.3128 9.2493 15.3128 9.2493ZM15.3128 9.2493C15.3128 9.2493 10.6059 9.2493 9.03696 7.68035C8.41338 7.05605 8.06323 6.20969 8.06348 5.32731C8.06373 4.44493 8.41436 3.59876 9.0383 2.97482C9.66224 2.35089 10.5084 2.00025 11.3908 2C12.2732 1.99975 13.1195 2.3499 13.7438 2.97348C15.3128 4.54244 15.3128 9.2493 15.3128 9.2493Z" stroke="#E4A430" stroke-width="2.8" stroke-linecap="round" stroke-linejoin="round"/>
</svg>
