<svg width="66" height="62" viewBox="0 0 66 62" fill="none" xmlns="http://www.w3.org/2000/svg">
<path d="M33.0004 38.2155C32.3508 38.2155 31.7407 37.9643 31.2807 37.5067L15.2603 21.5695C10.3085 16.6436 10.3085 8.62766 15.2603 3.70089C17.6603 1.31418 20.8495 0 24.2413 0C27.5306 0 30.6286 1.2355 33.0004 3.48574C35.373 1.2355 38.471 0.000802968 41.7595 0.000802968C45.1521 0.000802968 48.3414 1.31498 50.7406 3.7017C53.1397 6.08921 54.4608 9.26187 54.4608 12.636C54.4608 16.0118 53.1389 19.1844 50.7397 21.5703L34.7193 37.5067C34.2601 37.9643 33.6492 38.2155 33.0004 38.2155ZM24.2413 3.21119C21.7114 3.21119 19.3323 4.1914 17.5424 5.9712C13.8496 9.6456 13.8496 15.6248 17.5424 19.2984L33.0004 34.676L48.4576 19.2992C50.2475 17.5194 51.2328 15.1528 51.2328 12.6352C51.2328 10.1184 50.2475 7.75181 48.4584 5.9712C46.6693 4.1914 44.2911 3.21119 41.7603 3.21119C39.2296 3.21119 36.8514 4.1914 35.0623 5.9712L33.002 8.02235L30.9401 5.9712C29.151 4.1914 26.772 3.21119 24.2413 3.21119ZM55.9537 62H38.7357V45.9714C38.7357 43.4634 39.5266 41.0703 41.0227 39.0504C41.3705 38.5808 41.7563 38.1345 42.1703 37.7226L48.527 31.399C49.4155 30.5159 50.8608 30.5151 51.7485 31.399L51.901 31.5507C52.4962 32.1417 52.982 32.8325 53.3358 33.5914C54.5972 36.2952 54.0202 39.5281 51.901 41.6363L49.7334 43.7918C49.6245 43.9009 49.563 44.0482 49.5623 44.202V44.9976L56.2475 38.3472C56.4428 38.1529 56.5541 37.8848 56.5541 37.611V26.7444C56.5541 25.9103 56.6986 25.0922 56.9827 24.3135C57.6226 22.5562 58.9662 21.0895 60.6682 20.2915C61.6277 19.8411 62.655 19.6131 63.7219 19.6131C64.3303 19.6131 64.9025 19.8491 65.3326 20.277C65.7627 20.7049 66 21.2741 66 21.8794V40.4473C66 42.5177 65.1559 44.5448 63.6839 46.0083L58.5111 51.1542C58.2052 51.4585 57.922 51.7852 57.6686 52.1272C56.5614 53.614 55.9529 55.4492 55.9529 57.2972V62H55.9537ZM41.9637 58.7888H52.7258V57.2972C52.7258 54.766 53.5594 52.2524 55.0741 50.219C55.4211 49.7509 55.8109 49.3006 56.2297 48.8839L61.4026 43.738C62.2733 42.8718 62.7728 41.6724 62.7728 40.4473V22.9383C62.5235 22.9993 62.2806 23.086 62.0457 23.196C61.1096 23.6351 60.3704 24.4411 60.0186 25.4085C59.862 25.8366 59.7822 26.2888 59.7829 26.7444V37.6118C59.7829 38.7309 59.3262 39.8267 58.5305 40.6183L51.6089 47.5039C50.7228 48.3862 49.4018 48.6479 48.2429 48.1702C47.0841 47.6926 46.3352 46.5783 46.3352 45.3299V44.202C46.3352 43.1897 46.7314 42.2367 47.4521 41.5206L49.618 39.3659C50.7841 38.2059 51.1013 36.4285 50.4081 34.9425C50.3174 34.7486 50.211 34.5623 50.0901 34.3854L44.4533 39.9929C44.1539 40.2908 43.8738 40.6143 43.6221 40.9547C42.5375 42.4182 41.9645 44.1522 41.9645 45.9697V58.7888H41.9637ZM27.2651 62H10.0471V57.2972C10.0471 55.45 9.4386 53.6148 8.33302 52.1296C8.07659 51.7839 7.79442 51.4579 7.4889 51.1542L2.31607 46.0083C0.844116 44.544 0 42.5169 0 40.4473V21.8794C0 21.2741 0.237256 20.7049 0.667384 20.277C1.09832 19.8491 1.66967 19.6131 2.27814 19.6131C3.34418 19.6131 4.37149 19.8411 5.33181 20.2915C7.03376 21.0895 8.37741 22.5562 9.01816 24.3151C9.30222 25.0922 9.44667 25.9103 9.44667 26.7444V37.6118C9.44667 37.8856 9.55884 38.1537 9.75333 38.348L16.4385 44.9984V44.2028C16.4385 44.0503 16.3763 43.9001 16.2674 43.7918L14.0998 41.6354C11.9814 39.5281 11.4052 36.2952 12.6658 33.5914C13.0196 32.8325 13.5054 32.1417 14.1006 31.5507L14.2531 31.399C15.1416 30.5151 16.587 30.5151 17.4746 31.399L23.8313 37.7226C24.2445 38.1336 24.6311 38.5808 24.9789 39.0504C26.4751 41.0695 27.2659 43.4626 27.2659 45.9714V62H27.2651ZM13.2751 58.7888H24.0371V45.9714C24.0371 44.1538 23.4642 42.4198 22.3796 40.9563C22.127 40.6159 21.8477 40.2924 21.5484 39.9937L15.9115 34.3862C15.7905 34.5628 15.6839 34.7491 15.5927 34.9433C14.8995 36.4293 15.2167 38.2067 16.382 39.3651L18.5488 41.5206C19.2694 42.2375 19.6656 43.1897 19.6656 44.2028V45.3307C19.6656 46.5783 18.9167 47.6934 17.7579 48.171C16.5991 48.6487 15.278 48.3862 14.3919 47.5039L7.47115 40.6191C6.67545 39.8276 6.2187 38.7317 6.2187 37.6126V26.7444C6.2187 26.2852 6.13961 25.8364 5.98386 25.4101C5.6312 24.4411 4.892 23.6351 3.95588 23.196C3.72261 23.0866 3.47907 23.0002 3.22878 22.9383V40.4473C3.22878 41.6724 3.72831 42.8718 4.59906 43.738L9.77189 48.8839C10.1907 49.3006 10.5805 49.7509 10.9291 50.2214C12.4414 52.2524 13.2759 54.7668 13.2759 57.2972V58.7888H13.2751Z" fill="white"/>
</svg>
