<svg width="10" height="13" viewBox="0 0 10 13" fill="none" xmlns="http://www.w3.org/2000/svg">
<path d="M5 0.374512C3.67392 0.374512 2.40215 0.877797 1.46447 1.77365C0.526784 2.66951 0 3.88455 0 5.15147C0 8.37592 4.40625 12.0184 4.59375 12.1736C4.70696 12.2661 4.85103 12.317 5 12.317C5.14897 12.317 5.29304 12.2661 5.40625 12.1736C5.625 12.0184 10 8.37592 10 5.15147C10 3.88455 9.47322 2.66951 8.53553 1.77365C7.59785 0.877797 6.32608 0.374512 5 0.374512ZM5 10.9137C3.66875 9.71945 1.25 7.14586 1.25 5.15147C1.25 4.20128 1.64509 3.29 2.34835 2.61811C3.05161 1.94622 4.00544 1.56875 5 1.56875C5.99456 1.56875 6.94839 1.94622 7.65165 2.61811C8.35491 3.29 8.75 4.20128 8.75 5.15147C8.75 7.14586 6.33125 9.72542 5 10.9137ZM5 2.76299C4.50555 2.76299 4.0222 2.90307 3.61107 3.16552C3.19995 3.42797 2.87952 3.801 2.6903 4.23744C2.50108 4.67388 2.45157 5.15412 2.54804 5.61744C2.6445 6.08076 2.8826 6.50635 3.23223 6.84039C3.58186 7.17442 4.02732 7.4019 4.51227 7.49406C4.99723 7.58622 5.49989 7.53892 5.95671 7.35814C6.41352 7.17737 6.80397 6.87123 7.07867 6.47844C7.35338 6.08566 7.5 5.62387 7.5 5.15147C7.5 4.51801 7.23661 3.91049 6.76777 3.46256C6.29893 3.01464 5.66304 2.76299 5 2.76299ZM5 6.34572C4.75277 6.34572 4.5111 6.27567 4.30554 6.14445C4.09998 6.01322 3.93976 5.82671 3.84515 5.60849C3.75054 5.39027 3.72579 5.15015 3.77402 4.91849C3.82225 4.68683 3.9413 4.47404 4.11612 4.30702C4.29093 4.14 4.51366 4.02626 4.75614 3.98018C4.99861 3.9341 5.24995 3.95775 5.47835 4.04814C5.70676 4.13853 5.90199 4.2916 6.03934 4.48799C6.17669 4.68438 6.25 4.91528 6.25 5.15147C6.25 5.46821 6.1183 5.77197 5.88388 5.99593C5.64946 6.21989 5.33152 6.34572 5 6.34572Z" fill="#F4F4F4"/>
</svg>
