<svg width="177" height="67" viewBox="0 0 177 67" fill="none" xmlns="http://www.w3.org/2000/svg">
<path d="M129.512 38.2921C129.644 38.1591 129.682 37.9619 129.611 37.7908C129.539 37.6197 129.369 37.5081 129.182 37.5081L126.143 37.52C126.021 37.52 125.901 37.5699 125.815 37.6554L124.729 38.7412C124.346 39.1237 123.834 39.3375 123.288 39.3375C122.743 39.3375 122.231 39.1308 121.843 38.7507L116.602 33.5855L119.907 30.2806C120.015 30.1713 120.06 30.0193 120.034 29.8744C120.024 29.7746 119.984 29.6819 119.917 29.6083C119.582 28.9763 119.397 28.2944 119.364 27.5816C119.354 27.3987 119.239 27.2395 119.067 27.173C119.012 27.1516 118.955 27.1421 118.9 27.1421C118.78 27.1421 118.66 27.1896 118.572 27.2775L116.349 29.499L109.134 36.7193C109.043 36.8096 108.995 36.9307 109 37.059C109.005 37.185 109.06 37.3061 109.155 37.3893C109.462 37.6578 109.756 37.8645 110.034 38.0023C110.34 38.1567 110.646 38.2327 110.943 38.2327C110.948 38.2327 110.953 38.2327 110.957 38.2327C111.254 38.2232 111.541 38.1662 111.816 38.0617C112.104 37.9524 112.384 37.7647 112.644 37.5033L114.413 35.7333L119.677 40.9199C120.646 41.875 121.934 42.3977 123.3 42.3929C124.669 42.3882 125.952 41.856 126.914 40.8937L129.515 38.2921H129.512Z" fill="#392C45"/>
<path d="M144.083 45.2797C144.078 43.9207 143.542 42.6472 142.573 41.6921L139.953 39.1095C139.864 39.0216 139.745 38.9765 139.625 38.9765C139.565 38.9765 139.505 38.9883 139.448 39.0121C139.276 39.0834 139.163 39.2521 139.163 39.4374L139.175 42.4548C139.175 42.5759 139.225 42.6947 139.312 42.7803L140.405 43.8589C141.204 44.6453 141.209 45.9307 140.415 46.7218L138.517 48.6202L135.212 51.925L131.884 48.6439L129.972 46.7599C129.338 46.135 129.141 45.1466 129.496 44.3531C129.584 44.1987 129.689 44.0585 129.811 43.9373L133.442 40.307L135.535 38.2114C135.535 38.2114 135.552 38.1948 135.559 38.1853L138.706 35.0396L139.683 34.0631C139.683 34.0631 139.69 34.056 139.694 34.0512L141.611 32.1339C141.611 32.1339 141.633 32.1125 141.64 32.1006C141.748 31.9795 141.784 31.8108 141.733 31.6564C141.681 31.4924 141.542 31.3712 141.372 31.3427L138.888 30.9103C138.862 30.9056 138.833 30.9032 138.807 30.9032C138.685 30.9032 138.567 30.9507 138.479 31.0386L130.381 39.138L127.78 41.7396L127.684 41.8347C126.562 42.9561 126.052 44.5598 126.32 46.1231C126.332 46.192 126.358 46.2538 126.397 46.3084C126.593 47.3039 127.079 48.2068 127.809 48.9243L134.904 55.9165C134.995 56.0068 135.114 56.0496 135.232 56.0496C135.349 56.0496 135.468 56.0044 135.559 55.9142L142.602 48.8697C143.564 47.9074 144.09 46.6292 144.086 45.2726L144.083 45.2797Z" fill="#392C45"/>
<path d="M143.827 17.0636L142.779 18.1114C141.817 19.0736 141.291 20.3519 141.295 21.7085C141.3 23.0675 141.836 24.341 142.805 25.2961L145.426 27.8787C145.514 27.9666 145.634 28.0117 145.754 28.0117C145.813 28.0117 145.873 27.9998 145.931 27.9761C146.103 27.9048 146.215 27.7361 146.215 27.5508L146.203 24.5334C146.203 24.4122 146.153 24.2934 146.067 24.2079L144.973 23.1293C144.588 22.7491 144.373 22.2407 144.373 21.699C144.373 21.1573 144.581 20.6488 144.964 20.2639L146.862 18.3656L150.166 15.0608L153.495 18.3419L155.407 20.2259C156.041 20.8508 156.237 21.8392 155.883 22.6327C155.794 22.7871 155.689 22.9273 155.567 23.0485L151.937 26.6788L149.843 28.7744C149.843 28.7744 149.826 28.791 149.819 28.8005L146.672 31.9462L145.699 32.9227C145.699 32.9227 145.691 32.9298 145.687 32.9345L143.77 34.8519C143.77 34.8519 143.751 34.8733 143.741 34.8828C143.633 35.0039 143.597 35.1726 143.645 35.3271C143.698 35.491 143.837 35.6122 144.007 35.6407L146.491 36.0731C146.517 36.0778 146.546 36.0802 146.572 36.0802C146.694 36.0802 146.811 36.0327 146.9 35.9448L154.998 27.8454L157.599 25.2438L157.695 25.1488C158.814 24.0273 159.327 22.426 159.059 20.8603C159.047 20.7914 159.02 20.7296 158.982 20.675C158.786 19.6795 158.3 18.7766 157.57 18.0591L150.475 11.0669C150.384 10.9766 150.264 10.9338 150.147 10.9338C150.03 10.9338 149.91 10.979 149.819 11.0693L144.038 16.8522L143.825 17.066L143.827 17.0636Z" fill="#392C45"/>
<path d="M176.221 29.6035C175.917 29.335 175.62 29.1283 175.343 28.9905C175.036 28.8361 174.73 28.7601 174.433 28.7601C174.429 28.7601 174.424 28.7601 174.419 28.7601C174.122 28.7696 173.835 28.8266 173.56 28.9311C173.273 29.0404 172.993 29.2281 172.732 29.4895L170.963 31.2595L165.699 26.0729C164.73 25.1178 163.445 24.5951 162.076 24.5999C160.707 24.6046 159.425 25.1368 158.465 26.0991L155.864 28.7007C155.732 28.8337 155.694 29.0309 155.766 29.202C155.837 29.373 156.007 29.4847 156.194 29.4847L159.233 29.4728C159.355 29.4728 159.475 29.4229 159.561 29.3374L160.647 28.2516C161.03 27.8691 161.542 27.6553 162.088 27.6553C162.634 27.6553 163.146 27.862 163.533 28.2421L168.774 33.4073L165.469 36.7122C165.362 36.8214 165.316 36.9735 165.342 37.1184C165.352 37.2182 165.393 37.3109 165.46 37.3845C165.795 38.0165 165.979 38.6984 166.012 39.4112C166.022 39.5941 166.137 39.7533 166.309 39.8198C166.364 39.8412 166.422 39.8507 166.477 39.8507C166.596 39.8507 166.716 39.8032 166.805 39.7153L169.023 37.4962C169.023 37.4962 169.025 37.4938 169.028 37.4914L176.242 30.2759C176.333 30.1856 176.381 30.0644 176.376 29.9361C176.372 29.8102 176.317 29.6914 176.221 29.6059V29.6035Z" fill="#392C45"/>
<path d="M137.857 20.3661C137.945 20.454 138.065 20.4991 138.185 20.4991C138.245 20.4991 138.304 20.4873 138.362 20.4635C138.534 20.3922 138.647 20.2235 138.647 20.0382L138.635 17.0209C138.635 16.8997 138.584 16.7809 138.498 16.6954L137.405 15.6167C137.019 15.2366 136.804 14.7281 136.804 14.1864C136.804 13.6447 137.012 13.1363 137.395 12.7514L142.597 7.54819L145.926 10.8293C146.015 10.9172 146.134 10.9623 146.254 10.9623C146.28 10.9623 146.306 10.96 146.335 10.9552C146.436 10.9457 146.529 10.9053 146.603 10.8388C147.24 10.5062 147.927 10.3232 148.644 10.29C148.829 10.2805 148.989 10.1664 149.056 9.99535C149.123 9.82429 149.08 9.63184 148.951 9.50355L146.716 7.3011C146.716 7.3011 146.716 7.3011 146.713 7.29872L139.441 0.13305C139.355 0.0475177 139.238 0 139.113 0C139.108 0 139.104 0 139.099 0C138.972 0.00475177 138.85 0.0593972 138.766 0.154433C138.496 0.458546 138.288 0.75078 138.149 1.02638C137.993 1.3305 137.917 1.63461 137.917 1.92922C137.917 1.93397 137.917 1.93872 137.917 1.94348C137.926 2.23809 137.984 2.52319 138.089 2.79642C138.199 3.08152 138.388 3.3595 138.651 3.61847L140.434 5.37426L135.21 10.6012C133.222 12.5898 133.234 15.8115 135.237 17.7859L137.857 20.3685V20.3661Z" fill="#392C45"/>
<path d="M120.099 26.3675L125.921 32.1077L126.136 32.3191L127.191 33.3598C128.161 34.3149 129.448 34.8376 130.814 34.8328C132.183 34.8281 133.466 34.2959 134.428 33.3336L137.029 30.732C137.16 30.599 137.199 30.4018 137.127 30.2307C137.055 30.0597 136.885 29.948 136.699 29.948L133.66 29.9599C133.538 29.9599 133.418 30.0098 133.332 30.0953L132.245 31.1811C131.862 31.5636 131.35 31.7774 130.805 31.7774C130.259 31.7774 129.747 31.5707 129.359 31.1906L127.447 29.3065L124.119 26.0254L127.423 22.7206L129.321 20.8222C129.728 20.4159 130.302 20.1807 130.898 20.1784C131.195 20.1784 131.487 20.2354 131.745 20.3494C131.901 20.435 132.042 20.5419 132.164 20.663L135.82 24.2673L137.931 26.3462C137.931 26.3462 137.948 26.3628 137.957 26.3699L141.126 29.4942L142.107 30.4612C142.107 30.4612 142.114 30.4683 142.119 30.4731L144.05 32.3762C144.05 32.3762 144.071 32.3952 144.081 32.4047C144.167 32.4807 144.277 32.5211 144.39 32.5211C144.435 32.5211 144.483 32.514 144.528 32.4997C144.694 32.4474 144.816 32.3096 144.844 32.1409L145.28 29.6748C145.306 29.5275 145.258 29.3754 145.151 29.2685L134.277 18.5509C133.341 17.6267 132.095 17.123 130.771 17.1277C130.498 17.1277 130.226 17.1515 129.958 17.1966C129.888 17.2085 129.826 17.2346 129.771 17.2726C128.766 17.4675 127.859 17.9498 127.136 18.6744L120.094 25.7189C119.914 25.8995 119.914 26.1917 120.096 26.3699L120.099 26.3675Z" fill="#392C45"/>
<path d="M147.532 46.6339C147.443 46.546 147.324 46.5009 147.204 46.5009C147.144 46.5009 147.084 46.5127 147.027 46.5365C146.855 46.6078 146.742 46.7765 146.742 46.9618L146.754 49.9792C146.754 50.1003 146.804 50.2191 146.89 50.3046L147.984 51.3833C148.369 51.7634 148.585 52.2719 148.585 52.8136C148.585 53.3553 148.376 53.8637 147.994 54.2486L142.791 59.4518L139.463 56.1707C139.374 56.0828 139.254 56.0377 139.135 56.0377C139.108 56.0377 139.082 56.04 139.056 56.0448C138.955 56.0543 138.862 56.0947 138.788 56.1612C138.151 56.4938 137.464 56.6768 136.747 56.71C136.562 56.7195 136.402 56.8336 136.335 57.0046C136.268 57.1757 136.311 57.3682 136.44 57.4965L138.673 59.6965C138.673 59.6965 138.678 59.7013 138.678 59.7037L145.945 66.867C146.034 66.9525 146.151 67 146.273 67C146.278 67 146.283 67 146.287 67C146.414 66.9953 146.536 66.9406 146.62 66.8456C146.89 66.5415 147.099 66.2492 147.237 65.9736C147.393 65.6695 147.47 65.3654 147.47 65.0708C147.47 65.066 147.47 65.0613 147.47 65.0565C147.46 64.7619 147.403 64.4768 147.297 64.2036C147.187 63.9185 146.998 63.6429 146.735 63.3815L144.952 61.6257L150.176 56.3988C151.138 55.4366 151.664 54.1583 151.66 52.8017C151.655 51.4427 151.119 50.1692 150.15 49.2141L147.529 46.6315L147.532 46.6339Z" fill="#BC9B6A"/>
<path d="M165.29 40.6324L158.195 33.6402C157.226 32.6851 155.938 32.1624 154.572 32.1671C153.203 32.1719 151.92 32.7041 150.958 33.6663L148.357 36.2679C148.226 36.401 148.187 36.5982 148.259 36.7692C148.331 36.9403 148.501 37.052 148.687 37.052L151.727 37.0401C151.849 37.0401 151.968 36.9902 152.054 36.9047L153.141 35.8189C153.524 35.4364 154.036 35.2225 154.581 35.2225C155.127 35.2225 155.639 35.4292 156.027 35.8094L157.939 37.6935L161.267 40.9746L156.065 46.1777C155.658 46.584 155.084 46.8192 154.488 46.8216C154.191 46.8216 153.899 46.7646 153.643 46.6506C153.488 46.565 153.347 46.4581 153.225 46.3369L149.568 42.7327L147.457 40.6538C147.457 40.6538 147.441 40.6372 147.431 40.6301L144.263 37.5058L143.282 36.5388C143.282 36.5388 143.275 36.5317 143.27 36.5269L141.339 34.6238C141.339 34.6238 141.317 34.6048 141.308 34.5953C141.221 34.5193 141.111 34.4789 140.999 34.4789C140.953 34.4789 140.906 34.486 140.86 34.5003C140.695 34.5525 140.573 34.6903 140.544 34.859L140.109 37.3252C140.082 37.4725 140.13 37.6246 140.238 37.7315L148.396 45.7715L151.016 48.3541L151.112 48.4491C152.047 49.3733 153.294 49.877 154.617 49.8723C154.89 49.8723 155.163 49.8485 155.431 49.8034C155.5 49.7915 155.562 49.7653 155.618 49.7273C156.623 49.5325 157.53 49.0502 158.252 48.3255L159.3 47.2778L165.295 41.281C165.474 41.1005 165.474 40.8082 165.292 40.6301L165.29 40.6324Z" fill="#BC9B6A"/>
<path d="M130.637 53.9944C130.396 54.769 130.276 55.161 130.276 55.1705C130.101 55.6599 129.915 56.0044 129.716 56.1992L127.988 55.218C128.187 54.7048 128.467 53.9255 128.828 52.8801C129.41 53.1082 129.75 53.2508 129.85 53.3054C130.288 53.524 130.554 53.7521 130.64 53.992L130.637 53.9944Z" fill="#A7A9AC"/>
<path d="M121.467 44.89C121.226 45.6646 121.106 46.0566 121.106 46.0661C120.931 46.5555 120.745 46.9 120.546 47.0949L118.818 46.1136C119.017 45.6004 119.297 44.8211 119.658 43.7758C120.24 44.0038 120.58 44.1464 120.68 44.201C121.118 44.4196 121.384 44.6477 121.47 44.8877L121.467 44.89Z" fill="#A7A9AC"/>
<path d="M166.585 21.0099C166.343 21.7845 166.223 22.1765 166.223 22.186C166.049 22.6754 165.862 23.0199 165.663 23.2147L163.936 22.2335C164.134 21.7203 164.414 20.941 164.775 19.8956C165.357 20.1237 165.697 20.2663 165.797 20.3209C166.235 20.5395 166.501 20.7676 166.587 21.0075L166.585 21.0099Z" fill="#A7A9AC"/>
<path d="M157.415 11.9056C157.173 12.6801 157.053 13.0721 157.053 13.0816C156.879 13.571 156.692 13.9156 156.493 14.1104L154.766 13.1291C154.964 12.6159 155.244 11.8366 155.606 10.7913C156.187 11.0193 156.527 11.1619 156.627 11.2165C157.065 11.4351 157.331 11.6632 157.417 11.9032L157.415 11.9056Z" fill="#A7A9AC"/>
<path d="M122.02 21.6894C121.24 21.4495 120.845 21.3307 120.835 21.3307C120.343 21.1572 119.996 20.9719 119.799 20.7747L120.788 19.0593C121.304 19.2565 122.089 19.5345 123.142 19.8933C122.913 20.4706 122.769 20.808 122.714 20.9078C122.494 21.3426 122.264 21.6063 122.022 21.6918L122.02 21.6894Z" fill="#A7A9AC"/>
<path d="M131.19 12.5851C130.41 12.3451 130.015 12.2263 130.005 12.2263C129.512 12.0529 129.165 11.8675 128.969 11.6703L129.958 9.95496C130.474 10.1522 131.259 10.4301 132.312 10.7889C132.083 11.3662 131.939 11.7036 131.884 11.8034C131.664 12.2382 131.434 12.5019 131.192 12.5874L131.19 12.5851Z" fill="#A7A9AC"/>
<path d="M155.378 57.1733C154.598 56.9334 154.203 56.8146 154.193 56.8146C153.7 56.6411 153.353 56.4558 153.157 56.2586L154.146 54.5432C154.662 54.7404 155.447 55.0184 156.5 55.3771C156.27 55.9545 156.127 56.2919 156.072 56.3917C155.852 56.8264 155.622 57.0902 155.38 57.1757L155.378 57.1733Z" fill="#A7A9AC"/>
<path d="M164.548 48.069C163.768 47.829 163.373 47.7102 163.363 47.7102C162.87 47.5368 162.523 47.3514 162.327 47.1542L163.315 45.4388C163.832 45.636 164.617 45.914 165.67 46.2728C165.44 46.8501 165.297 47.1875 165.242 47.2873C165.022 47.7221 164.792 47.9858 164.55 48.0713L164.548 48.069Z" fill="#A7A9AC"/>
<path d="M66.4912 23.7703V23.3901C66.4912 23.3307 66.5199 23.3022 66.5797 23.3022H66.8908C66.9506 23.3022 66.9793 23.3307 66.9793 23.3901V26.5311C66.9793 26.7069 67.0128 26.8305 67.0822 26.897C67.1516 26.9659 67.2593 26.9992 67.4077 26.9992H67.8624C67.982 26.9992 68.0706 27.0158 68.1304 27.0514C68.1902 27.0871 68.2189 27.1536 68.2189 27.2558C68.2189 27.3746 68.1902 27.4435 68.1352 27.4625C68.0777 27.4839 67.9892 27.4934 67.8648 27.4934H67.3838C67.2761 27.4934 67.1708 27.4839 67.0631 27.4625C66.9554 27.4411 66.8621 27.4055 66.7783 27.3508C66.6946 27.2985 66.6276 27.2201 66.5725 27.1203C66.5199 27.0206 66.4935 26.8899 66.4935 26.7307C66.3859 26.8376 66.2542 26.9208 66.0939 26.9825C65.9336 27.0443 65.723 27.0752 65.4621 27.0752C65.017 27.0752 64.6629 26.9469 64.3972 26.6903C64.1316 26.4337 64 26.0393 64 25.5095C64 25.1911 64.0407 24.9202 64.1197 24.6993C64.1986 24.4783 64.3135 24.2977 64.4595 24.1599C64.6054 24.0221 64.7777 23.92 64.9764 23.8582C65.175 23.7964 65.3927 23.7655 65.6321 23.7655H66.4959L66.4912 23.7703ZM65.4885 26.5834C65.869 26.5834 66.1322 26.4978 66.2758 26.3268C66.4194 26.1557 66.4912 25.9229 66.4912 25.6283V24.2668H65.5339C65.2109 24.2668 64.9572 24.3595 64.7682 24.5401C64.5791 24.723 64.4858 25.0461 64.4858 25.5118C64.4858 25.8896 64.5719 26.1628 64.7418 26.3292C64.9117 26.4979 65.1606 26.581 65.4885 26.581V26.5834ZM64.7442 22.7082C64.6844 22.7082 64.6557 22.6797 64.6557 22.6203V22.0905C64.6557 22.0311 64.6844 22.0026 64.7442 22.0026H65.2085C65.2683 22.0026 65.297 22.0311 65.297 22.0905V22.6203C65.297 22.6797 65.2683 22.7082 65.2085 22.7082H64.7442ZM65.8833 22.7082C65.8235 22.7082 65.7948 22.6797 65.7948 22.6203V22.0905C65.7948 22.0311 65.8235 22.0026 65.8833 22.0026H66.3476C66.4074 22.0026 66.4361 22.0311 66.4361 22.0905V22.6203C66.4361 22.6797 66.4074 22.7082 66.3476 22.7082H65.8833Z" fill="#29323B"/>
<path d="M67.8526 27.4934C67.733 27.4934 67.6564 27.472 67.6205 27.4316C67.5846 27.3912 67.5679 27.3247 67.5679 27.2368C67.5679 27.118 67.5846 27.0491 67.6181 27.0277C67.6516 27.0063 67.7282 26.9968 67.855 26.9968H68.7548C68.8745 26.9968 68.963 27.0111 69.0228 27.0372C69.0827 27.0634 69.1114 27.1204 69.1114 27.2107C69.1114 27.3223 69.0827 27.3984 69.0276 27.4364C68.9702 27.4744 68.8816 27.4934 68.7548 27.4934H67.855H67.8526Z" fill="#29323B"/>
<path d="M68.7262 27.4934C68.6065 27.4934 68.5299 27.472 68.4941 27.4316C68.4582 27.3912 68.4414 27.3247 68.4414 27.2368C68.4414 27.118 68.4582 27.0491 68.4917 27.0277C68.5252 27.0063 68.6017 26.9968 68.7286 26.9968H69.6284C69.748 26.9968 69.8366 27.0111 69.8964 27.0372C69.9562 27.0634 69.9849 27.1204 69.9849 27.2107C69.9849 27.3223 69.9562 27.3984 69.9012 27.4364C69.8437 27.4744 69.7552 27.4934 69.6284 27.4934H68.7286H68.7262Z" fill="#29323B"/>
<path d="M69.5997 27.4934C69.4801 27.4934 69.4035 27.472 69.3676 27.4316C69.3317 27.3912 69.3149 27.3247 69.3149 27.2368C69.3149 27.118 69.3317 27.0491 69.3652 27.0277C69.3987 27.0063 69.4753 26.9968 69.6021 26.9968H70.5019C70.6215 26.9968 70.7101 27.0111 70.7699 27.0372C70.8297 27.0634 70.8584 27.1204 70.8584 27.2107C70.8584 27.3223 70.8297 27.3984 70.7747 27.4364C70.7173 27.4744 70.6287 27.4934 70.5019 27.4934H69.6021H69.5997Z" fill="#29323B"/>
<path d="M70.4732 27.4934C70.3536 27.4934 70.277 27.472 70.2411 27.4316C70.2052 27.3912 70.1885 27.3247 70.1885 27.2368C70.1885 27.118 70.2052 27.0491 70.2387 27.0277C70.2722 27.0063 70.3488 26.9968 70.4756 26.9968H71.3754C71.4951 26.9968 71.5836 27.0111 71.6434 27.0372C71.7033 27.0634 71.732 27.1204 71.732 27.2107C71.732 27.3223 71.7033 27.3984 71.6482 27.4364C71.5908 27.4744 71.5023 27.4934 71.3754 27.4934H70.4756H70.4732Z" fill="#29323B"/>
<path d="M71.3443 27.4934C71.2247 27.4934 71.1481 27.472 71.1122 27.4316C71.0763 27.3912 71.0596 27.3247 71.0596 27.2368C71.0596 27.118 71.0763 27.0491 71.1098 27.0277C71.1433 27.0063 71.2199 26.9968 71.3467 26.9968H72.2465C72.3662 26.9968 72.4547 27.0111 72.5145 27.0372C72.5744 27.0634 72.6031 27.1204 72.6031 27.2107C72.6031 27.3223 72.5744 27.3984 72.5193 27.4364C72.4619 27.4744 72.3734 27.4934 72.2465 27.4934H71.3467H71.3443Z" fill="#29323B"/>
<path d="M74.0988 26.3434C74.0988 26.5549 74.1801 26.7188 74.3405 26.8305C74.5008 26.9421 74.7162 26.9992 74.9866 26.9992C75.1541 26.9992 75.2857 26.9897 75.3862 26.973C75.4843 26.9564 75.5585 26.9184 75.6112 26.8614C75.6614 26.8043 75.6925 26.7283 75.7045 26.6261C75.7165 26.5264 75.7236 26.3933 75.7236 26.2294V24.8418C75.7236 24.7824 75.7524 24.7539 75.8122 24.7539H76.1281C76.1855 24.7539 76.2166 24.7824 76.2166 24.8418V26.3885C76.2166 26.5881 76.3004 26.7402 76.4679 26.8447C76.6354 26.9469 76.8555 26.9992 77.1307 26.9992C77.2983 26.9992 77.4299 26.9897 77.5256 26.9683C77.6213 26.9469 77.6907 26.9089 77.7362 26.8495C77.7816 26.7901 77.808 26.7117 77.8223 26.6143C77.8343 26.5168 77.8391 26.3885 77.8391 26.2294V24.0174C77.8391 23.958 77.8678 23.9294 77.9276 23.9294H78.2435C78.3009 23.9294 78.332 23.958 78.332 24.0174V26.3339C78.332 26.5572 78.411 26.7236 78.569 26.8328C78.7269 26.9421 78.9375 26.9968 79.2007 26.9968H79.2462C79.3658 26.9968 79.4544 27.0134 79.5142 27.0491C79.574 27.0847 79.6051 27.1512 79.6051 27.2534C79.6051 27.3556 79.5764 27.4173 79.519 27.4482C79.4616 27.4767 79.3706 27.4934 79.2462 27.4934C79.0021 27.4934 78.7915 27.4648 78.6192 27.4055C78.4469 27.3461 78.3129 27.2201 78.2172 27.0253C78.1454 27.1797 78.0473 27.2962 77.918 27.3746C77.7912 27.453 77.6022 27.4934 77.3533 27.4934H76.9441C76.7766 27.4934 76.6138 27.4577 76.4535 27.3817C76.2932 27.308 76.1735 27.194 76.097 27.0419C76.0252 27.1845 75.9246 27.2938 75.793 27.3746C75.6614 27.4553 75.4772 27.4934 75.2402 27.4934H74.831C74.6659 27.4934 74.5008 27.4577 74.3405 27.3817C74.1801 27.308 74.0605 27.194 73.9839 27.0419C73.9145 27.1845 73.8164 27.2938 73.6896 27.3746C73.5627 27.453 73.3761 27.4934 73.1272 27.4934H72.1748C72.0862 27.4934 72.0144 27.4767 71.9618 27.4411C71.9091 27.4055 71.8828 27.3532 71.8828 27.2819C71.8828 27.1631 71.9115 27.0871 71.9666 27.0514C72.024 27.0158 72.1125 26.9992 72.2394 26.9992H73.1559C73.2684 26.9992 73.3569 26.9825 73.4191 26.9493C73.4814 26.916 73.5268 26.8709 73.5579 26.8067C73.5867 26.7449 73.6058 26.6642 73.6106 26.5691C73.6154 26.4741 73.6202 26.3577 73.6202 26.2294V24.8418C73.6202 24.7824 73.6489 24.7539 73.7087 24.7539H74.0246C74.082 24.7539 74.1131 24.7824 74.1131 24.8418V26.3458L74.0988 26.3434Z" fill="#29323B"/>
<path d="M79.2291 27.4934C79.1095 27.4934 79.0329 27.472 78.997 27.4316C78.9611 27.3912 78.9443 27.3247 78.9443 27.2368C78.9443 27.118 78.9611 27.0491 78.9946 27.0277C79.0281 27.0063 79.1047 26.9968 79.2315 26.9968H80.1313C80.2509 26.9968 80.3395 27.0111 80.3993 27.0372C80.4591 27.0634 80.4878 27.1204 80.4878 27.2107C80.4878 27.3223 80.4591 27.3984 80.4041 27.4364C80.3467 27.4744 80.2581 27.4934 80.1313 27.4934H79.2315H79.2291Z" fill="#29323B"/>
<path d="M80.1026 27.4934C79.983 27.4934 79.9064 27.472 79.8705 27.4316C79.8346 27.3912 79.8179 27.3247 79.8179 27.2368C79.8179 27.118 79.8346 27.0491 79.8681 27.0277C79.9016 27.0063 79.9782 26.9968 80.105 26.9968H81.0048C81.1245 26.9968 81.213 27.0111 81.2728 27.0372C81.3327 27.0634 81.3614 27.1204 81.3614 27.2107C81.3614 27.3223 81.3327 27.3984 81.2776 27.4364C81.2202 27.4744 81.1316 27.4934 81.0048 27.4934H80.105H80.1026Z" fill="#29323B"/>
<path d="M80.9737 27.4934C80.8541 27.4934 80.7775 27.472 80.7416 27.4316C80.7057 27.3912 80.689 27.3247 80.689 27.2368C80.689 27.118 80.7057 27.0491 80.7392 27.0277C80.7727 27.0063 80.8493 26.9968 80.9761 26.9968H81.8759C81.9956 26.9968 82.0841 27.0111 82.1439 27.0372C82.2038 27.0634 82.2325 27.1204 82.2325 27.2107C82.2325 27.3223 82.2038 27.3984 82.1487 27.4364C82.0913 27.4744 82.0027 27.4934 81.8759 27.4934H80.9761H80.9737Z" fill="#29323B"/>
<path d="M81.8473 27.4934C81.7276 27.4934 81.651 27.472 81.6151 27.4316C81.5793 27.3912 81.5625 27.3247 81.5625 27.2368C81.5625 27.118 81.5792 27.0491 81.6128 27.0277C81.6463 27.0063 81.7228 26.9968 81.8497 26.9968H82.7494C82.8691 26.9968 82.9576 27.0111 83.0175 27.0372C83.0773 27.0634 83.106 27.1204 83.106 27.2107C83.106 27.3223 83.0773 27.3984 83.0223 27.4364C82.9648 27.4744 82.8763 27.4934 82.7494 27.4934H81.8497H81.8473Z" fill="#29323B"/>
<path d="M82.7208 27.4934C82.6012 27.4934 82.5246 27.472 82.4887 27.4316C82.4528 27.3912 82.436 27.3247 82.436 27.2368C82.436 27.118 82.4528 27.0491 82.4863 27.0277C82.5198 27.0063 82.5964 26.9968 82.7232 26.9968H83.623C83.7426 26.9968 83.8312 27.0111 83.891 27.0372C83.9508 27.0634 83.9795 27.1204 83.9795 27.2107C83.9795 27.3223 83.9508 27.3984 83.8958 27.4364C83.8384 27.4744 83.7498 27.4934 83.623 27.4934H82.7232H82.7208Z" fill="#29323B"/>
<path d="M89.6964 26.3338C89.6964 26.5809 89.67 26.7805 89.6174 26.9302C89.5647 27.0799 89.4906 27.1963 89.3996 27.2795C89.3087 27.3626 89.201 27.4173 89.0766 27.4482C88.9521 27.4767 88.8181 27.4933 88.6769 27.4933H88.3132C88.1481 27.4933 87.9853 27.4577 87.825 27.3816C87.6647 27.308 87.5474 27.1939 87.4708 27.0419C87.399 27.1844 87.2985 27.2937 87.1669 27.3745C87.0353 27.4553 86.851 27.4933 86.6141 27.4933H86.2049C86.0374 27.4933 85.8747 27.4577 85.7143 27.3816C85.554 27.308 85.4344 27.1939 85.3578 27.0419C85.286 27.1844 85.1879 27.2937 85.0586 27.3745C84.9318 27.4529 84.7428 27.4933 84.4939 27.4933H83.5415C83.4529 27.4933 83.3811 27.4767 83.3285 27.441C83.2758 27.4054 83.2495 27.3531 83.2495 27.2818C83.2495 27.163 83.2782 27.087 83.3333 27.0514C83.3907 27.0157 83.4792 26.9991 83.6061 26.9991H84.5226C84.6351 26.9991 84.7236 26.9825 84.7858 26.9492C84.8481 26.9159 84.8935 26.8708 84.9246 26.8067C84.9534 26.7449 84.9725 26.6641 84.9773 26.5691C84.9821 26.474 84.9869 26.3576 84.9869 26.2293V24.8417C84.9869 24.7823 85.0156 24.7538 85.0754 24.7538H85.3913C85.4487 24.7538 85.4798 24.7823 85.4798 24.8417V26.3457C85.4798 26.5572 85.5612 26.7211 85.7215 26.8328C85.8819 26.9445 86.0972 27.0015 86.3676 27.0015C86.5351 27.0015 86.6668 26.992 86.7673 26.9753C86.8654 26.9587 86.9396 26.9207 86.9922 26.8637C87.0449 26.8067 87.0736 26.7306 87.0855 26.6285C87.0975 26.5287 87.1047 26.3956 87.1047 26.2317V24.8441C87.1047 24.7847 87.1334 24.7562 87.1932 24.7562H87.5091C87.5666 24.7562 87.5977 24.7847 87.5977 24.8441V26.3909C87.5977 26.5904 87.6814 26.7425 87.8489 26.847C88.0164 26.9492 88.2366 27.0015 88.5118 27.0015C88.6793 27.0015 88.8109 26.992 88.9067 26.9706C89.0024 26.9492 89.0718 26.9112 89.1172 26.8518C89.1627 26.7924 89.189 26.714 89.2034 26.6166C89.2154 26.5192 89.2201 26.3909 89.2201 26.2317V24.0197C89.2201 23.9603 89.2489 23.9318 89.3087 23.9318H89.6246C89.682 23.9318 89.7131 23.9603 89.7131 24.0197V26.3362L89.6964 26.3338Z" fill="#29323B"/>
<path d="M91.6013 29.2278C91.5415 29.2278 91.5128 29.1993 91.5128 29.1399V28.8215C91.5128 28.7621 91.5415 28.7336 91.6013 28.7336H92.6877C92.9797 28.7336 93.1951 28.6813 93.3339 28.5744C93.4727 28.4675 93.5445 28.256 93.5445 27.9377V27.4957H92.537C92.2881 27.4957 92.0608 27.4672 91.8598 27.4078C91.6587 27.3484 91.4841 27.251 91.3381 27.1156C91.1921 26.9802 91.082 26.7996 91.003 26.5715C90.9265 26.3434 90.8882 26.063 90.8882 25.7257C90.8882 25.4073 90.9289 25.1269 91.0126 24.8798C91.0964 24.6351 91.2088 24.4308 91.3548 24.2692C91.5008 24.1076 91.6683 23.9841 91.8622 23.8986C92.0536 23.813 92.2642 23.7703 92.4891 23.7703C93.0156 23.7703 93.4057 23.9271 93.6569 24.2383C93.9082 24.5496 94.035 25.0295 94.035 25.671V26.9968H94.6644C94.784 26.9968 94.875 27.011 94.9348 27.0419C94.9946 27.0704 95.0257 27.1298 95.0257 27.2178C95.0257 27.3366 94.997 27.4102 94.9396 27.4435C94.8822 27.4767 94.7912 27.491 94.6644 27.491H94.035V27.9234C94.035 28.3843 93.9393 28.7146 93.7503 28.9189C93.5612 29.1233 93.2573 29.2231 92.8409 29.2231H91.6037L91.6013 29.2278ZM92.4915 24.2668C92.1637 24.2668 91.9028 24.3904 91.7042 24.6375C91.5056 24.8846 91.4051 25.2529 91.4051 25.7423C91.4051 25.9775 91.4266 26.1747 91.4721 26.3339C91.5176 26.4931 91.5869 26.6214 91.6803 26.7188C91.776 26.8162 91.8933 26.8875 92.0368 26.9303C92.1804 26.973 92.3455 26.9968 92.5346 26.9968H93.5421V25.6876C93.5421 25.2338 93.4607 24.8822 93.3004 24.6351C93.14 24.388 92.8696 24.2645 92.4891 24.2645L92.4915 24.2668ZM91.8143 22.8175C91.7664 22.7581 91.7257 22.6868 91.6899 22.6013C91.654 22.5158 91.6372 22.4136 91.6372 22.2972C91.6372 22.2211 91.6516 22.1356 91.6779 22.0406C91.7042 21.9455 91.7545 21.8552 91.8239 21.7697C91.8933 21.6842 91.9938 21.6129 92.1182 21.5583C92.2426 21.5012 92.4006 21.4751 92.5896 21.4751C92.7428 21.4751 92.884 21.5036 93.0084 21.563C93.1328 21.6224 93.231 21.6937 93.3028 21.7745C93.3315 21.8101 93.3291 21.8457 93.2932 21.8814L93.1161 22.0406C93.1161 22.0406 93.0826 22.0358 93.0539 22.0049C92.9941 21.9574 92.9223 21.9146 92.8409 21.8719C92.7571 21.8315 92.6566 21.8101 92.537 21.8101C92.336 21.8101 92.1948 21.8648 92.1134 21.974C92.0344 22.0833 91.9938 22.1926 91.9938 22.3067C91.9938 22.4492 92.0297 22.5609 92.1015 22.6417C92.1732 22.7248 92.2402 22.7842 92.3073 22.8175H93.3506C93.3865 22.8175 93.4033 22.8389 93.4033 22.8793V23.1002C93.4033 23.1406 93.3841 23.162 93.3506 23.162H91.5247C91.4888 23.162 91.4721 23.1406 91.4721 23.1002V22.8793C91.4721 22.8389 91.4888 22.8175 91.5247 22.8175H91.8191H91.8143Z" fill="#29323B"/>
<path d="M97.2679 27.5551C97.007 27.5551 96.7701 27.5171 96.5547 27.441C96.3394 27.365 96.1671 27.2367 96.0354 27.0609C95.9254 27.2557 95.8009 27.3769 95.6573 27.4244C95.5138 27.4719 95.3582 27.4957 95.1931 27.4957H94.6666C94.547 27.4957 94.4584 27.4814 94.3986 27.4505C94.3388 27.422 94.3101 27.3555 94.3101 27.2557C94.3101 27.1369 94.3388 27.0656 94.3938 27.0395C94.4512 27.0134 94.5398 26.9991 94.6666 26.9991H95.1572C95.2218 26.9991 95.2864 26.9872 95.3534 26.9635C95.4204 26.9397 95.4779 26.897 95.5329 26.8352C95.5856 26.7734 95.631 26.6926 95.6669 26.5928C95.7028 26.493 95.7196 26.3647 95.7196 26.2127C95.7148 26.1414 95.71 26.0677 95.7052 25.987C95.7028 25.9086 95.7004 25.8254 95.7004 25.7446C95.7004 24.4307 96.2221 23.7726 97.2631 23.7726C97.7776 23.7726 98.1676 23.9294 98.4309 24.2406C98.6941 24.5519 98.8257 25.0247 98.8257 25.6567C98.8257 26.2887 98.6941 26.7924 98.4309 27.0989C98.1676 27.4054 97.78 27.5598 97.2655 27.5598L97.2679 27.5551ZM97.2726 24.2644C96.8993 24.2644 96.6313 24.3903 96.4662 24.6398C96.3011 24.8917 96.2173 25.2362 96.2173 25.6781C96.2173 26.1438 96.3011 26.4907 96.4662 26.7164C96.6313 26.9445 96.9017 27.0561 97.2726 27.0561C97.6436 27.0561 97.9164 26.9421 98.0839 26.7164C98.2514 26.4883 98.3375 26.1438 98.3375 25.6781C98.3375 25.2409 98.2538 24.8964 98.0839 24.6422C97.9164 24.388 97.646 24.262 97.2726 24.262V24.2644Z" fill="#29323B"/>
<path d="M2.60123 33.4V33.0151C2.60123 32.9557 2.63234 32.9249 2.69217 32.9249H3.27128C3.3311 32.9249 3.36221 32.9557 3.36221 33.0151V36.0563C3.36221 36.2345 3.39572 36.3605 3.46512 36.4294C3.53452 36.4983 3.64459 36.5315 3.79535 36.5315H4.1926C4.43429 36.5315 4.55395 36.6503 4.55395 36.8903C4.55395 37.04 4.52523 37.135 4.46779 37.173C4.41036 37.2111 4.31943 37.2324 4.1926 37.2324H3.65895C3.36461 37.2324 3.13248 37.1778 2.96736 37.0661C2.80224 36.9545 2.69216 36.7715 2.63712 36.5149C2.51747 36.6218 2.3715 36.7026 2.20398 36.7573C2.03408 36.8119 1.85221 36.838 1.65359 36.838C1.41907 36.838 1.2013 36.8048 0.997892 36.7382C0.796877 36.6717 0.622192 36.5719 0.473824 36.4389C0.325455 36.3034 0.210587 36.1348 0.126831 35.9281C0.0430744 35.7213 0 35.479 0 35.1963C0 34.8612 0.0478622 34.5809 0.143584 34.3528C0.239305 34.1247 0.366135 33.9418 0.524075 33.8016C0.679623 33.6614 0.863886 33.5592 1.06969 33.4975C1.27549 33.4357 1.49325 33.4024 1.7158 33.4024H2.60123V33.4ZM1.66316 36.1348C2.00537 36.1348 2.24945 36.035 2.39064 35.8354C2.53183 35.6358 2.60362 35.3554 2.60362 34.9967V34.1009H1.7182C1.43582 34.1009 1.2037 34.1794 1.02661 34.3385C0.84953 34.4977 0.760984 34.7828 0.760984 35.1939C0.760984 35.5051 0.839956 35.7403 0.995504 35.8972C1.15105 36.0563 1.37361 36.1348 1.66316 36.1348ZM0.87824 32.3142C0.818414 32.3142 0.787311 32.2834 0.787311 32.224V31.5682C0.787311 31.5088 0.816021 31.4779 0.87824 31.4779H1.49325C1.55308 31.4779 1.58419 31.5088 1.58419 31.5682V32.224C1.58419 32.2834 1.55308 32.3142 1.49325 32.3142H0.87824ZM1.98143 32.3142C1.92161 32.3142 1.8905 32.2834 1.8905 32.224V31.5682C1.8905 31.5088 1.92161 31.4779 1.98143 31.4779H2.59645C2.65627 31.4779 2.68738 31.5088 2.68738 31.5682V32.224C2.68738 32.2834 2.65627 32.3142 2.59645 32.3142H1.98143Z" fill="#29323B"/>
<path d="M4.19986 37.23C4.08021 37.23 3.99885 37.2039 3.95578 37.154C3.9127 37.1041 3.89355 37.0162 3.89355 36.8903C3.89355 36.7406 3.9127 36.6432 3.95338 36.598C3.99406 36.5529 4.07543 36.5315 4.20226 36.5315H5.19537C5.31502 36.5315 5.40596 36.5553 5.46578 36.6028C5.52561 36.6503 5.55672 36.7382 5.55672 36.8618C5.55672 37.0114 5.528 37.1088 5.47056 37.1587C5.41313 37.2086 5.3222 37.23 5.19537 37.23H4.20226H4.19986Z" fill="#29323B"/>
<path d="M5.2023 37.23C5.08265 37.23 5.00129 37.2039 4.95822 37.154C4.91514 37.1041 4.896 37.0162 4.896 36.8903C4.896 36.7406 4.91514 36.6432 4.95582 36.598C4.9965 36.5529 5.07787 36.5315 5.2047 36.5315H6.19781C6.31746 36.5315 6.4084 36.5553 6.46822 36.6028C6.52805 36.6503 6.55916 36.7382 6.55916 36.8618C6.55916 37.0114 6.53044 37.1088 6.47301 37.1587C6.41557 37.2086 6.32464 37.23 6.19781 37.23H5.2047H5.2023Z" fill="#29323B"/>
<path d="M6.20523 37.23C6.08558 37.23 6.00422 37.2039 5.96115 37.154C5.91807 37.1041 5.89893 37.0162 5.89893 36.8903C5.89893 36.7406 5.91807 36.6432 5.95875 36.598C5.99943 36.5529 6.0808 36.5315 6.20763 36.5315H7.20074C7.32039 36.5315 7.41133 36.5553 7.47115 36.6028C7.53098 36.6503 7.56209 36.7382 7.56209 36.8618C7.56209 37.0114 7.53337 37.1088 7.47594 37.1587C7.4185 37.2063 7.32757 37.23 7.20074 37.23H6.20763H6.20523Z" fill="#29323B"/>
<path d="M7.26272 37.23C7.14307 37.23 7.05213 37.2086 6.9923 37.1682C6.93248 37.1254 6.90137 37.0423 6.90137 36.9164C6.90137 36.7667 6.93009 36.6645 6.98752 36.6122C7.04495 36.56 7.13589 36.5315 7.26272 36.5315H7.87772C8.02848 36.5315 8.13856 36.4982 8.20796 36.4293C8.27736 36.3604 8.31087 36.2368 8.31087 36.0563V33.6518C8.31087 33.5924 8.34197 33.5615 8.4018 33.5615H8.98092C9.04074 33.5615 9.07185 33.5924 9.07185 33.6518V35.9208C9.07185 36.1252 9.14603 36.2772 9.29201 36.377C9.44038 36.4792 9.63661 36.5291 9.88309 36.5291H9.99078C10.1104 36.5291 10.2014 36.5552 10.2612 36.6051C10.321 36.655 10.3521 36.7405 10.3521 36.8617C10.3521 37.0185 10.3234 37.1183 10.266 37.1611C10.2085 37.2062 10.1176 37.2276 9.99078 37.2276H9.79215C9.59832 37.2276 9.43081 37.1896 9.28722 37.1112C9.14364 37.0328 9.03117 36.9164 8.9522 36.7619C8.80144 37.0732 8.48795 37.2276 8.01413 37.2276H7.26511L7.26272 37.23ZM7.72218 38.8979C7.66235 38.8979 7.63124 38.867 7.63124 38.8076V38.1542C7.63124 38.0948 7.66235 38.0639 7.72218 38.0639H8.33719C8.39701 38.0639 8.42813 38.0948 8.42813 38.1542V38.8076C8.42813 38.867 8.39701 38.8979 8.33719 38.8979H7.72218ZM8.82297 38.8979C8.76315 38.8979 8.73204 38.867 8.73204 38.8076V38.1542C8.73204 38.0948 8.76076 38.0639 8.82297 38.0639H9.43799C9.49781 38.0639 9.52892 38.0948 9.52892 38.1542V38.8076C9.52892 38.867 9.49781 38.8979 9.43799 38.8979H8.82297Z" fill="#29323B"/>
<path d="M12.312 33.4C12.6183 33.4 12.8839 33.4404 13.1065 33.5212C13.329 33.602 13.5157 33.7137 13.6617 33.8586C13.81 34.0012 13.9201 34.1746 13.9919 34.3742C14.0637 34.5738 14.0996 34.7947 14.0996 35.0323C14.0996 35.3364 14.0278 35.6215 13.8866 35.8853C13.7454 36.149 13.5468 36.3676 13.2955 36.5387C13.3266 36.5339 13.3697 36.5292 13.4319 36.5292H14.6883C14.8079 36.5292 14.8989 36.5505 14.9587 36.5909C15.0185 36.6337 15.0496 36.7169 15.0496 36.8428C15.0496 36.9925 15.0209 37.0946 14.9635 37.1469C14.906 37.1992 14.8151 37.2277 14.6883 37.2277H13.487C13.2692 37.2277 13.0658 37.2182 12.872 37.2016C12.6805 37.1825 12.4963 37.1208 12.3216 37.0139C12.1229 37.1208 11.91 37.1849 11.685 37.2016C11.4601 37.2182 11.2591 37.2277 11.0844 37.2277H9.99075C9.74905 37.2277 9.62939 37.1089 9.62939 36.8689C9.62939 36.7192 9.65811 36.6242 9.71555 36.5862C9.77298 36.5482 9.86391 36.5268 9.99075 36.5268H11.3189C11.0724 36.3533 10.8786 36.1371 10.7374 35.8758C10.5962 35.6168 10.5244 35.3341 10.5244 35.0276C10.5244 34.7876 10.5603 34.569 10.6321 34.3694C10.7039 34.1698 10.8139 33.9964 10.9623 33.8538C11.1107 33.7113 11.295 33.5972 11.5175 33.5165C11.7401 33.4357 12.0057 33.3953 12.312 33.3953V33.4ZM12.312 34.0986C12.0224 34.0986 11.7855 34.1817 11.5989 34.3504C11.4122 34.5191 11.3189 34.7591 11.3189 35.0775C11.3189 35.3958 11.4146 35.6714 11.6084 35.89C11.8023 36.1086 12.0368 36.2702 12.312 36.3795C12.5896 36.2726 12.8241 36.1086 13.0155 35.89C13.207 35.6714 13.3051 35.4006 13.3051 35.0775C13.3051 34.7543 13.2118 34.5191 13.0251 34.3504C12.8385 34.1841 12.6016 34.0986 12.312 34.0986ZM12.0057 32.673C11.9459 32.673 11.9147 32.6421 11.9147 32.5827V31.927C11.9147 31.8676 11.9435 31.8367 12.0057 31.8367H12.6207C12.6805 31.8367 12.7116 31.8676 12.7116 31.927V32.5827C12.7116 32.6421 12.6805 32.673 12.6207 32.673H12.0057Z" fill="#29323B"/>
<path d="M14.813 37.23C14.6862 37.23 14.5952 37.2086 14.5378 37.1635C14.4804 37.1183 14.4517 37.0186 14.4517 36.8641C14.4517 36.7453 14.4828 36.6598 14.5426 36.6075C14.6024 36.5576 14.6934 36.5315 14.813 36.5315H15.8348C15.6601 36.2392 15.574 35.8472 15.574 35.3578C15.574 35.018 15.6171 34.7234 15.7056 34.4739C15.7918 34.2268 15.9138 34.0225 16.0718 33.8633C16.2273 33.7041 16.4116 33.5877 16.6174 33.514C16.8256 33.4404 17.0529 33.4024 17.2994 33.4024C17.8354 33.4024 18.2566 33.5568 18.5629 33.8633C18.8692 34.1698 19.0224 34.6687 19.0224 35.3554C19.0224 35.6951 18.9817 35.9874 18.9003 36.225C18.819 36.465 18.7041 36.6574 18.5581 36.8023C18.4121 36.9473 18.2303 37.0566 18.0173 37.1255C17.8043 37.1944 17.565 37.2276 17.2994 37.2276H14.8154L14.813 37.23ZM16.4211 32.6753C16.3613 32.6753 16.3302 32.6444 16.3302 32.585V31.9293C16.3302 31.8699 16.3613 31.839 16.4211 31.839H17.0361C17.096 31.839 17.1271 31.8699 17.1271 31.9293V32.585C17.1271 32.6444 17.096 32.6753 17.0361 32.6753H16.4211ZM17.297 34.1009C16.9787 34.1009 16.737 34.2078 16.5743 34.424C16.4116 34.6402 16.3302 34.9325 16.3302 35.3031C16.3302 35.745 16.4068 36.061 16.5599 36.2487C16.7131 36.4364 16.9596 36.5315 17.297 36.5315C17.6344 36.5315 17.8785 36.4436 18.034 36.2678C18.1896 36.0919 18.2638 35.7878 18.2638 35.3578C18.2638 34.9634 18.1872 34.6545 18.034 34.4335C17.8809 34.2126 17.6344 34.1009 17.297 34.1009ZM17.5219 32.6753C17.4621 32.6753 17.431 32.6444 17.431 32.585V31.9293C17.431 31.8699 17.4597 31.839 17.5219 31.839H18.1369C18.1968 31.839 18.2279 31.8699 18.2279 31.9293V32.585C18.2279 32.6444 18.1968 32.6753 18.1369 32.6753H17.5219Z" fill="#29323B"/>
<path d="M20.8293 39.0143C20.7694 39.0143 20.7383 38.9834 20.7383 38.924V38.4036C20.7383 38.3442 20.767 38.3134 20.8293 38.3134H21.9133C22.0329 38.3134 22.1454 38.2991 22.2483 38.273C22.3512 38.2468 22.4398 38.2017 22.5139 38.1375C22.5881 38.0734 22.648 37.9879 22.691 37.8786C22.7341 37.7669 22.7532 37.6291 22.7532 37.4628V37.2299H21.7865C21.5208 37.2299 21.2815 37.199 21.0686 37.1349C20.8556 37.0731 20.6737 36.9709 20.5229 36.8308C20.3722 36.6906 20.2573 36.5029 20.1807 36.27C20.1042 36.0372 20.0635 35.7497 20.0635 35.41C20.0635 35.0702 20.1089 34.7708 20.2023 34.5166C20.2956 34.2624 20.4224 34.0533 20.5804 33.8893C20.7407 33.7254 20.925 33.6019 21.1356 33.5211C21.3461 33.4403 21.5687 33.3999 21.8032 33.3999C22.3393 33.3999 22.758 33.5543 23.0596 33.8608C23.3611 34.1697 23.5118 34.6663 23.5118 35.3529V36.5266H24.134C24.2537 36.5266 24.3446 36.5528 24.4044 36.6027C24.4643 36.6526 24.4954 36.7381 24.4954 36.8593C24.4954 37.0161 24.4667 37.1159 24.4092 37.1586C24.3518 37.2014 24.2609 37.2252 24.134 37.2252H23.5118V37.4414C23.5118 37.7217 23.4736 37.9617 23.3994 38.1589C23.3252 38.3561 23.2199 38.5177 23.0835 38.6436C22.9471 38.7695 22.7844 38.8622 22.5905 38.9216C22.3967 38.981 22.1837 39.0119 21.9492 39.0119H20.8293V39.0143ZM21.8056 34.1008C21.5041 34.1008 21.2648 34.2196 21.0877 34.4596C20.9106 34.6995 20.8221 35.0155 20.8221 35.41C20.8221 35.8352 20.9082 36.1275 21.0805 36.2891C21.2528 36.4506 21.5065 36.5314 21.8439 36.5314H22.7556V35.3577C22.7556 34.9633 22.6815 34.6544 22.5355 34.4334C22.3871 34.2125 22.1454 34.1008 21.808 34.1008H21.8056Z" fill="#29323B"/>
<path d="M24.1436 37.23C24.0239 37.23 23.933 37.2086 23.8732 37.1682C23.8133 37.1254 23.7822 37.0423 23.7822 36.9164C23.7822 36.7667 23.8109 36.6645 23.8684 36.6122C23.9258 36.5576 24.0167 36.5314 24.1436 36.5314H24.7131C24.8639 36.5314 24.974 36.4982 25.0434 36.4293C25.1128 36.3604 25.1463 36.2368 25.1463 36.0563V31.2236C25.1463 31.1642 25.1774 31.1333 25.2372 31.1333H25.8163C25.8761 31.1333 25.9072 31.1642 25.9072 31.2236V36.1014C25.9072 36.4911 25.8259 36.7762 25.6631 36.9567C25.5004 37.1397 25.23 37.23 24.8495 37.23H24.146H24.1436Z" fill="#29323B"/>
<path d="M27.929 37.1397C27.929 37.1991 27.8978 37.23 27.838 37.23H27.2589C27.1991 37.23 27.168 37.1991 27.168 37.1397V31.2213C27.168 31.1619 27.1967 31.131 27.2589 31.131H27.838C27.8978 31.131 27.929 31.1619 27.929 31.2213V37.1397Z" fill="#29323B"/>
<path d="M34.6394 35.9208C34.6394 36.1251 34.7136 36.2772 34.8596 36.377C35.0079 36.4791 35.2042 36.529 35.4507 36.529H35.5512C35.6708 36.529 35.7618 36.5552 35.8216 36.605C35.8814 36.6549 35.9125 36.7405 35.9125 36.8616C35.9125 37.0185 35.8838 37.1182 35.8264 37.161C35.7689 37.2038 35.678 37.2275 35.5512 37.2275H35.3621C35.1563 37.2275 34.9744 37.1848 34.8117 37.0969C34.649 37.009 34.5341 36.8807 34.4695 36.7072C34.3666 36.9044 34.2254 37.0398 34.0459 37.1159C33.8665 37.1919 33.6296 37.2275 33.3424 37.2275H31.337C31.2772 37.2275 31.2461 37.1967 31.2461 37.1373V36.6169C31.2461 36.5575 31.2772 36.5266 31.337 36.5266H33.0624C33.2299 36.5266 33.3663 36.5124 33.4692 36.4862C33.5721 36.4601 33.6487 36.415 33.7037 36.3508C33.7588 36.289 33.7947 36.2059 33.8114 36.1037C33.8282 36.0016 33.8377 35.8733 33.8377 35.7188V35.0013C33.8377 34.3978 33.4955 34.096 32.8087 34.096H31.7606C31.7008 34.096 31.6697 34.0652 31.6697 34.0058V33.4854C31.6697 33.426 31.6984 33.3951 31.7606 33.3951H33.0887C33.5458 33.3951 33.9191 33.5234 34.2087 33.78C34.4982 34.0366 34.6418 34.4406 34.6418 34.9918V35.916L34.6394 35.9208Z" fill="#29323B"/>
<path d="M35.5607 37.23C35.4411 37.23 35.3597 37.2039 35.3166 37.154C35.2735 37.1041 35.2544 37.0162 35.2544 36.8903C35.2544 36.7406 35.2735 36.6432 35.3142 36.598C35.3549 36.5529 35.4363 36.5315 35.5631 36.5315H36.5562C36.6759 36.5315 36.7668 36.5553 36.8266 36.6028C36.8864 36.6503 36.9175 36.7382 36.9175 36.8618C36.9175 37.0114 36.8888 37.1088 36.8314 37.1587C36.774 37.2086 36.683 37.23 36.5562 37.23H35.5631H35.5607Z" fill="#29323B"/>
<path d="M36.5631 37.23C36.4435 37.23 36.3621 37.2039 36.319 37.154C36.276 37.1041 36.2568 37.0162 36.2568 36.8903C36.2568 36.7406 36.276 36.6432 36.3167 36.598C36.3573 36.5529 36.4387 36.5315 36.5655 36.5315H37.5586C37.6783 36.5315 37.7692 36.5553 37.8291 36.6028C37.8889 36.6503 37.92 36.7382 37.92 36.8618C37.92 37.0114 37.8913 37.1088 37.8338 37.1587C37.7764 37.2086 37.6855 37.23 37.5586 37.23H36.5655H36.5631Z" fill="#29323B"/>
<path d="M37.5656 37.23C37.4459 37.23 37.3646 37.2039 37.3215 37.154C37.2784 37.1041 37.2593 37.0162 37.2593 36.8903C37.2593 36.7406 37.2784 36.6432 37.3191 36.598C37.3598 36.5529 37.4411 36.5315 37.568 36.5315H38.5611C38.6807 36.5315 38.7717 36.5553 38.8315 36.6028C38.8913 36.6503 38.9224 36.7382 38.9224 36.8618C38.9224 37.0114 38.8937 37.1088 38.8363 37.1587C38.7789 37.2086 38.6879 37.23 38.5611 37.23H37.568H37.5656Z" fill="#29323B"/>
<path d="M38.5591 37.23C38.4395 37.23 38.3485 37.2086 38.2887 37.1682C38.2289 37.1254 38.1978 37.0423 38.1978 36.9164C38.1978 36.7667 38.2265 36.6645 38.2839 36.6122C38.3413 36.5576 38.4323 36.5315 38.5591 36.5315H39.1813C39.3321 36.5315 39.4421 36.4982 39.5115 36.4293C39.5809 36.3604 39.6144 36.2368 39.6144 36.0563V33.6518C39.6144 33.5924 39.6455 33.5615 39.7054 33.5615H40.2845C40.3443 33.5615 40.3754 33.5924 40.3754 33.6518V36.099C40.3754 36.4887 40.2941 36.7738 40.1313 36.9544C39.9686 37.1349 39.6982 37.2276 39.3177 37.2276H38.5591V37.23ZM38.9468 38.8979C38.8869 38.8979 38.8558 38.867 38.8558 38.8076V38.1542C38.8558 38.0948 38.8869 38.0639 38.9468 38.0639H39.5618C39.6216 38.0639 39.6527 38.0948 39.6527 38.1542V38.8076C39.6527 38.867 39.6216 38.8979 39.5618 38.8979H38.9468ZM40.0476 38.8979C39.9877 38.8979 39.9566 38.867 39.9566 38.8076V38.1542C39.9566 38.0948 39.9854 38.0639 40.0476 38.0639H40.6626C40.7224 38.0639 40.7535 38.0948 40.7535 38.1542V38.8076C40.7535 38.867 40.7224 38.8979 40.6626 38.8979H40.0476Z" fill="#29323B"/>
<path d="M41.1437 39.0144C41.0838 39.0144 41.0527 38.9835 41.0527 38.9241V38.4038C41.0527 38.3444 41.0838 38.3135 41.1437 38.3135H41.3519C41.84 38.3135 42.0841 38.0593 42.0841 37.5508V33.6495C42.0841 33.5901 42.1152 33.5592 42.1751 33.5592H42.7542C42.814 33.5592 42.8451 33.5901 42.8451 33.6495V37.5318C42.8451 38.0165 42.7207 38.3848 42.4742 38.6342C42.2277 38.8861 41.8664 39.0096 41.3902 39.0096H41.1461L41.1437 39.0144ZM42.1631 32.673C42.1033 32.673 42.0722 32.6421 42.0722 32.5827V31.927C42.0722 31.8676 42.1009 31.8367 42.1631 31.8367H42.7781C42.8379 31.8367 42.869 31.8676 42.869 31.927V32.5827C42.869 32.6421 42.8379 32.673 42.7781 32.673H42.1631Z" fill="#29323B"/>
<path d="M46.5874 35.2104C46.6113 35.1676 46.6544 35.1652 46.7142 35.2009L47.212 35.4694C47.2598 35.5002 47.2694 35.5383 47.2383 35.5858C47.1306 35.7521 47.0253 35.9588 46.9272 36.2035C46.8291 36.4482 46.7788 36.7048 46.7788 36.9757C46.7788 37.2466 46.8219 37.4461 46.9104 37.6172C46.9966 37.7883 47.1114 37.9213 47.2502 38.0211C47.389 38.1209 47.5398 38.1898 47.7025 38.2326C47.8652 38.2753 48.0256 38.2944 48.1811 38.2944C48.5664 38.2944 48.8823 38.1946 49.1288 37.9974C49.3753 37.8002 49.4997 37.4794 49.4997 37.0375V34.4192C49.4997 34.3598 49.5308 34.3289 49.5906 34.3289H50.1697C50.2296 34.3289 50.2607 34.3598 50.2607 34.4192V35.916C50.2607 36.1204 50.3349 36.2724 50.4808 36.3722C50.6292 36.4744 50.8254 36.5243 51.0719 36.5243H51.1078C51.2275 36.5243 51.3184 36.5504 51.3782 36.6003C51.4381 36.6502 51.4692 36.7357 51.4692 36.8569C51.4692 37.0137 51.4404 37.1135 51.383 37.1563C51.3256 37.2014 51.2346 37.2228 51.1078 37.2228H50.981C50.6675 37.2228 50.4258 37.1278 50.2583 36.9353V37.0422C50.2583 37.6576 50.0764 38.1399 49.7127 38.4868C49.3489 38.8337 48.8225 39.0071 48.1357 39.0071C47.8102 39.0071 47.5159 38.9644 47.255 38.8765C46.9942 38.7886 46.7692 38.6626 46.5874 38.4963C46.4055 38.33 46.2595 38.1233 46.159 37.8833C46.0561 37.641 46.0059 37.3606 46.0059 37.0446C46.0059 36.693 46.0657 36.3532 46.1829 36.0277C46.3002 35.7022 46.4366 35.429 46.5945 35.208L46.5874 35.2104ZM48.1309 34.1079C48.0711 34.1079 48.0399 34.0771 48.0399 34.0177V33.3619C48.0399 33.3025 48.0711 33.2716 48.1309 33.2716H48.7459C48.8057 33.2716 48.8368 33.3025 48.8368 33.3619V34.0177C48.8368 34.0771 48.8057 34.1079 48.7459 34.1079H48.1309Z" fill="#29323B"/>
<path d="M51.113 37.23C50.9933 37.23 50.9119 37.2039 50.8689 37.154C50.8258 37.1041 50.8066 37.0162 50.8066 36.8903C50.8066 36.7406 50.8258 36.6432 50.8665 36.598C50.9071 36.5529 50.9885 36.5315 51.1153 36.5315H52.1085C52.2281 36.5315 52.319 36.5553 52.3789 36.6028C52.4387 36.6503 52.4698 36.7382 52.4698 36.8618C52.4698 37.0114 52.4411 37.1088 52.3837 37.1587C52.3262 37.2086 52.2353 37.23 52.1085 37.23H51.1153H51.113Z" fill="#29323B"/>
<path d="M52.1154 37.23C51.9957 37.23 51.9144 37.2039 51.8713 37.154C51.8282 37.1041 51.8091 37.0162 51.8091 36.8903C51.8091 36.7406 51.8282 36.6432 51.8689 36.598C51.9096 36.5529 51.9909 36.5315 52.1178 36.5315H53.1109C53.2305 36.5315 53.3215 36.5553 53.3813 36.6028C53.4411 36.6503 53.4722 36.7382 53.4722 36.8618C53.4722 37.0114 53.4435 37.1088 53.3861 37.1587C53.3287 37.2086 53.2377 37.23 53.1109 37.23H52.1178H52.1154Z" fill="#29323B"/>
<path d="M53.1183 37.23C52.9987 37.23 52.9173 37.2039 52.8742 37.154C52.8312 37.1041 52.812 37.0162 52.812 36.8903C52.812 36.7406 52.8312 36.6432 52.8718 36.598C52.9125 36.5529 52.9939 36.5315 53.1207 36.5315H54.1138C54.2335 36.5315 54.3244 36.5553 54.3842 36.6028C54.4441 36.6503 54.4752 36.7382 54.4752 36.8618C54.4752 37.0114 54.4464 37.1088 54.389 37.1587C54.3316 37.2086 54.2407 37.23 54.1138 37.23H53.1207H53.1183Z" fill="#29323B"/>
<path d="M54.1114 37.23C53.9917 37.23 53.9008 37.2086 53.8409 37.1682C53.7811 37.1254 53.75 37.0423 53.75 36.9164C53.75 36.7667 53.7787 36.6645 53.8361 36.6122C53.8936 36.5576 53.9845 36.5315 54.1114 36.5315H54.6809C54.8317 36.5315 54.9417 36.4982 55.0111 36.4293C55.0805 36.3604 55.114 36.2368 55.114 36.0563V33.6518C55.114 33.5924 55.1451 33.5615 55.205 33.5615H55.7841C55.8439 33.5615 55.875 33.5924 55.875 33.6518V36.099C55.875 36.4887 55.7936 36.7738 55.6309 36.9544C55.4682 37.1373 55.1978 37.2276 54.8173 37.2276H54.1137L54.1114 37.23ZM54.9776 38.8718C54.9178 38.8718 54.8867 38.8409 54.8867 38.7815V38.1257C54.8867 38.0663 54.9178 38.0354 54.9776 38.0354H55.5926C55.6525 38.0354 55.6836 38.0639 55.6836 38.1257V38.7815C55.6836 38.8409 55.6525 38.8718 55.5926 38.8718H54.9776Z" fill="#29323B"/>
<path d="M58.7633 39.0143C58.7035 39.0143 58.6724 38.9834 58.6724 38.924V38.4036C58.6724 38.3442 58.7035 38.3133 58.7633 38.3133H58.9715C59.4597 38.3133 59.7038 38.0591 59.7038 37.5507V33.6494C59.7038 33.59 59.7349 33.5591 59.7947 33.5591H60.3738C60.4336 33.5591 60.4647 33.59 60.4647 33.6494V35.9184C60.4647 36.1227 60.5389 36.2748 60.6849 36.3746C60.8333 36.4767 61.0295 36.5266 61.276 36.5266H61.3765C61.4961 36.5266 61.5871 36.5528 61.6469 36.6027C61.7067 36.6526 61.7378 36.7381 61.7378 36.8593C61.7378 37.0161 61.7091 37.1159 61.6517 37.1586C61.5943 37.2038 61.5033 37.2252 61.3765 37.2252H61.1874C60.874 37.2252 60.6323 37.1301 60.4647 36.9377V37.5293C60.4647 38.014 60.3403 38.3823 60.0938 38.6317C59.8473 38.8836 59.486 39.0071 59.0098 39.0071H58.7657L58.7633 39.0143Z" fill="#29323B"/>
<path d="M61.374 37.23C61.2544 37.23 61.1635 37.2086 61.1036 37.1682C61.0438 37.1254 61.0127 37.0423 61.0127 36.9164C61.0127 36.7667 61.0414 36.6645 61.0988 36.6122C61.1563 36.5576 61.2472 36.5315 61.374 36.5315H61.9436C62.0943 36.5315 62.2044 36.4982 62.2738 36.4293C62.3432 36.3604 62.3767 36.2368 62.3767 36.0563V33.6518C62.3767 33.5924 62.4078 33.5615 62.4677 33.5615H63.0468C63.1066 33.5615 63.1377 33.5924 63.1377 33.6518V36.099C63.1377 36.4887 63.0563 36.7738 62.8936 36.9544C62.7309 37.1373 62.4605 37.2276 62.08 37.2276H61.3764L61.374 37.23ZM62.2403 38.8718C62.1805 38.8718 62.1494 38.8409 62.1494 38.7815V38.1257C62.1494 38.0663 62.1805 38.0354 62.2403 38.0354H62.8553C62.9151 38.0354 62.9463 38.0639 62.9463 38.1257V38.7815C62.9463 38.8409 62.9151 38.8718 62.8553 38.8718H62.2403Z" fill="#29323B"/>
<path d="M64.4014 31.2213C64.4014 31.1619 64.4301 31.131 64.4923 31.131H65.0714C65.1312 31.131 65.1624 31.1619 65.1624 31.2213V36.0539C65.1624 36.2321 65.1959 36.3581 65.2652 36.427C65.3346 36.4959 65.4447 36.5291 65.5955 36.5291H65.9927C66.2344 36.5291 66.3541 36.6479 66.3541 36.8879C66.3541 37.0376 66.3254 37.1326 66.2679 37.1706C66.2105 37.2086 66.1196 37.23 65.9927 37.23H65.4591C65.0786 37.23 64.8082 37.1397 64.6455 36.9568C64.4827 36.7739 64.4014 36.4887 64.4014 36.1015V31.2236V31.2213Z" fill="#29323B"/>
<path d="M65.9977 37.23C65.8781 37.23 65.7967 37.2039 65.7536 37.154C65.7106 37.1041 65.6914 37.0162 65.6914 36.8903C65.6914 36.7406 65.7106 36.6432 65.7512 36.598C65.7919 36.5529 65.8733 36.5315 66.0001 36.5315H66.9932C67.1129 36.5315 67.2038 36.5553 67.2636 36.6028C67.3235 36.6503 67.3546 36.7382 67.3546 36.8618C67.3546 37.0114 67.3258 37.1088 67.2684 37.1587C67.211 37.2086 67.12 37.23 66.9932 37.23H66.0001H65.9977Z" fill="#29323B"/>
<path d="M67.0001 37.23C66.8805 37.23 66.7991 37.2039 66.7561 37.154C66.713 37.1041 66.6938 37.0162 66.6938 36.8903C66.6938 36.7406 66.713 36.6432 66.7537 36.598C66.792 36.5529 66.8757 36.5315 67.0025 36.5315H67.9957C68.1153 36.5315 68.2062 36.5553 68.2661 36.6028C68.3259 36.6503 68.357 36.7382 68.357 36.8618C68.357 37.0114 68.3283 37.1088 68.2709 37.1587C68.2134 37.2086 68.1225 37.23 67.9957 37.23H67.0025H67.0001Z" fill="#29323B"/>
<path d="M68.0026 37.23C67.8829 37.23 67.8016 37.2039 67.7585 37.154C67.7154 37.1041 67.6963 37.0162 67.6963 36.8903C67.6963 36.7406 67.7154 36.6432 67.7561 36.598C67.7968 36.5529 67.8782 36.5315 68.005 36.5315H68.9981C69.1178 36.5315 69.2087 36.5553 69.2685 36.6028C69.3283 36.6503 69.3595 36.7382 69.3595 36.8618C69.3595 37.0114 69.3307 37.1088 69.2733 37.1587C69.2159 37.2086 69.1249 37.23 68.9981 37.23H68.005H68.0026Z" fill="#29323B"/>
<path d="M71.1111 34.0985C70.9053 34.0985 70.7187 34.1413 70.5464 34.2244C70.3741 34.3076 70.2233 34.4216 70.0893 34.5642C70.0534 34.6069 70.0103 34.6093 69.9625 34.5737L69.5652 34.2505C69.5102 34.2078 69.503 34.1674 69.5389 34.1246C69.7064 33.9155 69.917 33.7421 70.1659 33.6043C70.4147 33.4665 70.721 33.3976 71.0824 33.3976C71.4988 33.3976 71.8386 33.4617 72.1042 33.59C72.3699 33.7183 72.578 33.887 72.7312 34.0961C72.8844 34.3052 72.992 34.5475 73.0519 34.8231C73.1117 35.0988 73.1428 35.3815 73.1428 35.6761C73.1428 35.9707 73.1165 36.2226 73.0662 36.4198C73.016 36.617 72.937 36.7762 72.8317 36.895C72.7264 37.0138 72.59 37.0993 72.4249 37.1516C72.2598 37.2015 72.0659 37.2276 71.8434 37.2276H68.9981C68.7564 37.2276 68.6367 37.1088 68.6367 36.8688C68.6367 36.7192 68.6654 36.6241 68.7229 36.5861C68.7803 36.5481 68.8712 36.5267 68.9981 36.5267H71.5634C71.7309 36.5267 71.8673 36.5124 71.9702 36.4863C72.0731 36.4602 72.1497 36.4127 72.2047 36.3485C72.2598 36.282 72.2957 36.1941 72.3124 36.0848C72.3316 35.9731 72.3387 35.8377 72.3387 35.6761C72.3387 35.4433 72.3172 35.2294 72.2765 35.0346C72.2334 34.8398 72.1664 34.6735 72.0731 34.5333C71.9798 34.3931 71.8553 34.2862 71.6974 34.2102C71.5419 34.1365 71.3456 34.0985 71.1111 34.0985ZM70.9484 38.8789C70.8886 38.8789 70.8574 38.848 70.8574 38.7886V38.1352C70.8574 38.0758 70.8886 38.0449 70.9484 38.0449H71.5634C71.6232 38.0449 71.6543 38.0758 71.6543 38.1352V38.7886C71.6543 38.848 71.6232 38.8789 71.5634 38.8789H70.9484Z" fill="#29323B"/>
<path d="M78.9416 37.2918C78.6281 37.2918 78.3529 37.2419 78.116 37.1397C77.8791 37.0375 77.6829 36.876 77.5345 36.655C77.4747 36.7501 77.4029 36.819 77.3215 36.8617C77.2402 36.9045 77.1612 36.9496 77.087 36.9972C77.0128 37.0447 76.9482 37.1088 76.8932 37.1849C76.8381 37.2633 76.8118 37.3844 76.8118 37.5531V39.0143H76.0532V37.3654C76.0532 37.1801 76.0796 37.0257 76.1346 36.9045C76.1896 36.7809 76.259 36.6812 76.3428 36.6004C76.4265 36.5196 76.5199 36.4531 76.618 36.3984C76.7185 36.3438 76.8118 36.2915 76.898 36.2369C76.9865 36.1822 77.0607 36.1228 77.1229 36.0539C77.1851 35.985 77.2234 35.8947 77.2354 35.7807C77.2282 35.7141 77.2258 35.6476 77.221 35.5787C77.2186 35.5098 77.2162 35.4362 77.2162 35.3601C77.2162 34.6735 77.3694 34.1745 77.6781 33.868C77.9868 33.5615 78.4056 33.4071 78.9416 33.4071C79.4777 33.4071 79.8988 33.5615 80.2051 33.868C80.5114 34.1745 80.6646 34.6735 80.6646 35.3601C80.6646 35.6999 80.6239 35.9945 80.5426 36.2392C80.4612 36.484 80.3463 36.6859 80.2004 36.8403C80.052 36.9972 79.8725 37.1112 79.6595 37.1849C79.4465 37.2585 79.2072 37.2965 78.9416 37.2965V37.2918ZM78.9416 34.0985C78.6042 34.0985 78.3601 34.2102 78.2046 34.4311C78.0514 34.6521 77.9748 34.961 77.9748 35.3554C77.9748 35.7854 78.0514 36.0991 78.2046 36.2963C78.3577 36.4935 78.6042 36.5932 78.9416 36.5932C79.279 36.5932 79.5231 36.4935 79.6787 36.2963C79.8318 36.0991 79.9084 35.7854 79.9084 35.3554C79.9084 34.961 79.8318 34.6521 79.6787 34.4311C79.5255 34.2102 79.279 34.0985 78.9416 34.0985Z" fill="#29323B"/>
<path d="M81.7964 31.2213C81.7964 31.1619 81.8251 31.131 81.8873 31.131H82.4664C82.5263 31.131 82.5574 31.1619 82.5574 31.2213V36.0539C82.5574 36.2321 82.5909 36.3581 82.6603 36.427C82.7297 36.4959 82.8397 36.5291 82.9905 36.5291H83.3878C83.6295 36.5291 83.7491 36.6479 83.7491 36.8879C83.7491 37.0376 83.7204 37.1326 83.663 37.1706C83.6055 37.2086 83.5146 37.23 83.3878 37.23H82.8541C82.4736 37.23 82.2032 37.1397 82.0405 36.9568C81.8778 36.7739 81.7964 36.4887 81.7964 36.1015V31.2236V31.2213Z" fill="#29323B"/>
<path d="M83.3947 37.23C83.275 37.23 83.1937 37.2039 83.1506 37.154C83.1075 37.1041 83.0884 37.0162 83.0884 36.8903C83.0884 36.7406 83.1075 36.6432 83.1482 36.598C83.1889 36.5529 83.2702 36.5315 83.3971 36.5315H84.3902C84.5098 36.5315 84.6008 36.5553 84.6606 36.6028C84.7204 36.6503 84.7515 36.7382 84.7515 36.8618C84.7515 37.0114 84.7228 37.1088 84.6654 37.1587C84.6079 37.2086 84.517 37.23 84.3902 37.23H83.3971H83.3947Z" fill="#29323B"/>
<path d="M84.3976 37.23C84.278 37.23 84.1966 37.2039 84.1535 37.154C84.1104 37.1041 84.0913 37.0162 84.0913 36.8903C84.0913 36.7406 84.1105 36.6432 84.1511 36.598C84.1918 36.5529 84.2732 36.5315 84.4 36.5315H85.3931C85.5128 36.5315 85.6037 36.5553 85.6635 36.6028C85.7233 36.6503 85.7545 36.7382 85.7545 36.8618C85.7545 37.0114 85.7257 37.1088 85.6683 37.1587C85.6109 37.2086 85.52 37.23 85.3931 37.23H84.4H84.3976Z" fill="#29323B"/>
<path d="M85.4001 37.23C85.2804 37.23 85.199 37.2039 85.156 37.154C85.1129 37.1041 85.0938 37.0162 85.0938 36.8903C85.0938 36.7406 85.1129 36.6432 85.1536 36.598C85.1943 36.5529 85.2756 36.5315 85.4024 36.5315H86.3955C86.5152 36.5315 86.6061 36.5553 86.666 36.6028C86.7258 36.6503 86.7569 36.7382 86.7569 36.8618C86.7569 37.0114 86.7282 37.1088 86.6708 37.1587C86.6133 37.2086 86.5224 37.23 86.3955 37.23H85.4024H85.4001Z" fill="#29323B"/>
<path d="M89.1212 37.2917C88.8388 37.2917 88.5875 37.2513 88.3722 37.1705C88.1544 37.0897 87.9725 36.9638 87.8218 36.7904C87.6949 36.9828 87.5322 37.104 87.3336 37.1539C87.135 37.2038 86.9507 37.2299 86.7832 37.2299H86.3955C86.1538 37.2299 86.0342 37.1111 86.0342 36.8712C86.0342 36.7215 86.0629 36.6264 86.1203 36.5884C86.1778 36.5504 86.2687 36.529 86.3955 36.529H86.8478C86.9148 36.529 86.9794 36.5148 87.0464 36.4886C87.1134 36.4625 87.1733 36.4174 87.2259 36.3532C87.2809 36.2914 87.324 36.2059 87.3575 36.1014C87.391 35.9968 87.4078 35.8661 87.4078 35.7117C87.4006 35.6523 87.3982 35.5929 87.3982 35.5359V35.3529C87.3982 34.6663 87.5514 34.1673 87.8577 33.8608C88.164 33.5543 88.5851 33.3999 89.1212 33.3999C89.6572 33.3999 90.0784 33.5543 90.3871 33.8608C90.6934 34.1697 90.8466 34.6663 90.8466 35.3529C90.8466 35.6927 90.8059 35.9873 90.7245 36.232C90.6432 36.4768 90.5283 36.6787 90.3823 36.8331C90.234 36.99 90.0545 37.104 89.8415 37.1777C89.6285 37.2513 89.3892 37.2893 89.1236 37.2893L89.1212 37.2917ZM89.1212 34.0984C88.7838 34.0984 88.5397 34.2101 88.3841 34.4311C88.231 34.652 88.1544 34.9609 88.1544 35.3553C88.1544 35.7854 88.231 36.099 88.3841 36.2962C88.5373 36.4934 88.7838 36.5932 89.1212 36.5932C89.4586 36.5932 89.7027 36.4934 89.8582 36.2962C90.0114 36.099 90.088 35.7854 90.088 35.3553C90.088 34.9609 90.0114 34.652 89.8582 34.4311C89.7051 34.2101 89.4586 34.0984 89.1212 34.0984Z" fill="#29323B"/>
<path d="M94.3336 36.5291H95.3913C95.5421 36.5291 95.6522 36.4959 95.7216 36.427C95.791 36.3581 95.8245 36.2345 95.8245 36.0539V31.2213C95.8245 31.1619 95.8532 31.131 95.9154 31.131H96.4945C96.5543 31.131 96.5855 31.1619 96.5855 31.2213V36.0991C96.5855 36.4887 96.5041 36.7739 96.3414 36.9544C96.1787 37.1374 95.9082 37.2277 95.5277 37.2277H91.797C91.7372 37.2277 91.7061 37.1968 91.7061 37.1374V36.617C91.7061 36.5576 91.7372 36.5268 91.797 36.5268H93.5774V32.4829C93.5774 32.4235 93.6061 32.3926 93.6683 32.3926H94.2475C94.3073 32.3926 94.3384 32.4235 94.3384 32.4829V36.5268L94.3336 36.5291ZM93.3668 39.2995C93.319 39.2282 93.2783 39.145 93.2496 39.0524C93.2185 38.9597 93.2041 38.8576 93.2041 38.7435C93.2041 38.6485 93.2185 38.5487 93.2496 38.4441C93.2807 38.3396 93.3309 38.2446 93.4027 38.1567C93.4745 38.0711 93.5702 37.9975 93.6875 37.9404C93.8048 37.8834 93.9507 37.8549 94.1254 37.8549C94.281 37.8549 94.4222 37.881 94.5466 37.9357C94.6686 37.9903 94.7668 38.0664 94.8409 38.1685C94.8601 38.2113 94.8601 38.2398 94.8409 38.2588L94.6519 38.4109C94.6088 38.4465 94.5777 38.4536 94.5514 38.4299C94.4963 38.3705 94.4341 38.3206 94.3623 38.2826C94.2905 38.2446 94.2092 38.2232 94.1182 38.2232C93.9483 38.2232 93.8239 38.2731 93.7425 38.3752C93.6612 38.4774 93.6205 38.5962 93.6205 38.734C93.6205 38.8718 93.654 38.9811 93.7234 39.0785C93.7928 39.1759 93.8598 39.2496 93.9268 39.2971H94.8577C94.8936 39.2971 94.9127 39.3185 94.9127 39.3589V39.6107C94.9127 39.6535 94.8936 39.6725 94.8577 39.6725H93.0246C92.9887 39.6725 92.9696 39.6511 92.9696 39.6107V39.3589C92.9696 39.3161 92.9887 39.2971 93.0246 39.2971H93.3668V39.2995Z" fill="#29323B"/>
<path d="M98.6047 37.1397C98.6047 37.1991 98.5736 37.23 98.5138 37.23H97.9347C97.8749 37.23 97.8438 37.1991 97.8438 37.1397V31.2213C97.8438 31.1619 97.8725 31.131 97.9347 31.131H98.5138C98.5736 31.131 98.6047 31.1619 98.6047 31.2213V37.1397Z" fill="#29323B"/>
<path d="M0 41.2977C0 41.2407 0.0287129 41.2122 0.0861458 41.2122H0.682017C0.73945 41.2122 0.768162 41.2407 0.768162 41.2977V46.9524C0.768162 47.0095 0.73945 47.038 0.682017 47.038H0.0861458C0.0287129 47.038 0 47.0095 0 46.9524V41.2977Z" fill="#29323B"/>
<path d="M7.69594 47.0379C7.6385 47.0379 7.60978 47.0094 7.60978 46.9524V44.5527C7.60978 44.2224 7.53321 43.9658 7.38005 43.7829C7.2269 43.5999 6.99717 43.5096 6.68608 43.5096C6.41088 43.5096 6.18354 43.5999 6.00406 43.7805C5.82458 43.9611 5.73604 44.2058 5.73604 44.5123V46.9547C5.73604 47.0118 5.70732 47.0403 5.64989 47.0403H5.0971C5.03966 47.0403 5.01095 47.0118 5.01095 46.9547V44.555C5.01095 44.2248 4.93437 43.9682 4.78122 43.7852C4.62807 43.6023 4.39833 43.512 4.08723 43.512C3.80486 43.512 3.57752 43.6023 3.40043 43.7829C3.22574 43.9634 3.1372 44.2082 3.1372 44.5146V46.9571C3.1372 47.0141 3.10849 47.0427 3.05105 47.0427H2.49826C2.44083 47.0427 2.41211 47.0141 2.41211 46.9571V43.0249C2.41211 42.9679 2.44083 42.9394 2.49826 42.9394H3.05105C3.10849 42.9394 3.1372 42.9679 3.1372 43.0249V43.4027H3.14677C3.24489 43.2435 3.39086 43.1105 3.58709 43.0035C3.78332 42.899 4.02024 42.8444 4.30261 42.8444C4.58499 42.8444 4.82669 42.899 5.03249 43.0107C5.23589 43.1223 5.39623 43.2815 5.51109 43.4859H5.52067C5.66425 43.2863 5.84373 43.1295 6.0591 43.0154C6.27447 42.9014 6.5401 42.8444 6.85837 42.8444C7.34177 42.8444 7.7079 42.9845 7.95917 43.2649C8.21044 43.5453 8.33487 43.9183 8.33487 44.3864V46.9571C8.33487 47.0141 8.30616 47.0427 8.24873 47.0427H7.69594V47.0379Z" fill="#29323B"/>
<path d="M12.4246 47.0379C12.3672 47.0379 12.3385 47.0094 12.3385 46.9524V46.5936H12.3289C12.2308 46.748 12.0824 46.8763 11.879 46.9785C11.678 47.0807 11.4196 47.1329 11.1013 47.1329C10.9051 47.1329 10.7232 47.1068 10.5533 47.0569C10.3834 47.0046 10.2374 46.9286 10.113 46.8264C9.98854 46.7243 9.89281 46.596 9.81863 46.4415C9.74444 46.2871 9.71094 46.1065 9.71094 45.9022C9.71094 45.4674 9.85452 45.149 10.1393 44.9423C10.4241 44.7356 10.8189 44.6334 11.3262 44.6334H12.2667C12.3002 44.6334 12.3194 44.6168 12.3194 44.5812V44.2818C12.3194 43.9967 12.2499 43.79 12.1112 43.6641C11.9724 43.5381 11.7115 43.4764 11.3262 43.4764C11.0893 43.4764 10.8955 43.5025 10.7399 43.5571C10.5844 43.6118 10.4456 43.6807 10.3259 43.7662C10.2733 43.8066 10.2326 43.8042 10.2039 43.7567L9.97178 43.3623C9.94785 43.3172 9.95503 43.2768 9.98853 43.2435C10.1441 43.1247 10.3403 43.0273 10.5748 42.9513C10.8117 42.8776 11.0845 42.8396 11.3956 42.8396C11.9819 42.8396 12.3983 42.9465 12.6472 43.1604C12.8937 43.3742 13.0181 43.733 13.0181 44.2343V46.95C13.0181 47.007 12.9894 47.0355 12.932 47.0355H12.4223L12.4246 47.0379ZM11.276 46.5152C11.6038 46.5152 11.8599 46.4463 12.0441 46.3061C12.2284 46.1659 12.3194 45.9687 12.3194 45.7097V45.2559C12.3194 45.2227 12.3026 45.2037 12.2667 45.2037H11.4387C11.0774 45.2037 10.8141 45.2559 10.6538 45.3629C10.4935 45.4698 10.4121 45.6385 10.4121 45.8737C10.4121 46.0851 10.4863 46.2443 10.637 46.3536C10.7878 46.4629 10.9984 46.5152 11.276 46.5152Z" fill="#29323B"/>
<path d="M19.8956 47.0379C19.8382 47.0379 19.8095 47.0094 19.8095 46.9524V44.5527C19.8095 44.2224 19.7329 43.9658 19.5798 43.7829C19.4266 43.5999 19.1969 43.5096 18.8858 43.5096C18.6106 43.5096 18.3832 43.5999 18.2038 43.7805C18.0243 43.9611 17.9357 44.2058 17.9357 44.5123V46.9547C17.9357 47.0118 17.907 47.0403 17.8496 47.0403H17.2968C17.2394 47.0403 17.2106 47.0118 17.2106 46.9547V44.555C17.2106 44.2248 17.1341 43.9682 16.9809 43.7852C16.8278 43.6023 16.598 43.512 16.2869 43.512C16.0046 43.512 15.7772 43.6023 15.6001 43.7829C15.4254 43.9634 15.3369 44.2082 15.3369 44.5146V46.9571C15.3369 47.0141 15.3082 47.0427 15.2508 47.0427H14.698C14.6405 47.0427 14.6118 47.0141 14.6118 46.9571V43.0249C14.6118 42.9679 14.6405 42.9394 14.698 42.9394H15.2508C15.3082 42.9394 15.3369 42.9679 15.3369 43.0249V43.4027H15.3465C15.4446 43.2435 15.5906 43.1105 15.7868 43.0035C15.983 42.899 16.2199 42.8444 16.5023 42.8444C16.7847 42.8444 17.0264 42.899 17.2322 43.0107C17.4356 43.1223 17.5959 43.2815 17.7108 43.4859H17.7204C17.8639 43.2863 18.0434 43.1295 18.2588 43.0154C18.4742 42.9014 18.7398 42.8444 19.0581 42.8444C19.5415 42.8444 19.9076 42.9845 20.1589 43.2649C20.4101 43.5453 20.5346 43.9183 20.5346 44.3864V46.9571C20.5346 47.0141 20.5059 47.0427 20.4484 47.0427H19.8956V47.0379Z" fill="#29323B"/>
<path d="M23.9856 46.5318C23.9449 46.4915 23.9449 46.4511 23.9856 46.413L24.4163 46.0448C24.457 46.0115 24.5001 46.0163 24.5456 46.0614C24.6365 46.1469 24.7561 46.2277 24.9045 46.3061C25.0505 46.3822 25.2156 46.4225 25.3999 46.4225C25.7445 46.4225 26.0125 46.3204 26.2015 46.1184C26.3906 45.9165 26.4863 45.6005 26.4863 45.1728V41.3C26.4863 41.243 26.515 41.2145 26.5725 41.2145H27.1683C27.2258 41.2145 27.2545 41.243 27.2545 41.3V45.1728C27.2545 45.8238 27.0846 46.3133 26.7448 46.6411C26.4049 46.969 25.9479 47.133 25.3735 47.133C25.0864 47.133 24.8184 47.0759 24.5719 46.9619C24.3254 46.8478 24.1292 46.7053 23.9856 46.5342V46.5318Z" fill="#29323B"/>
<path d="M31.3631 47.0379C31.3057 47.0379 31.277 47.0094 31.277 46.9524V46.5936H31.2674C31.1693 46.748 31.0209 46.8763 30.8175 46.9785C30.6165 47.0807 30.358 47.1329 30.0398 47.1329C29.8435 47.1329 29.6617 47.1068 29.4918 47.0569C29.3219 47.0046 29.1759 46.9286 29.0514 46.8264C28.927 46.7243 28.8313 46.596 28.7571 46.4415C28.6829 46.2871 28.6494 46.1065 28.6494 45.9022C28.6494 45.4674 28.793 45.149 29.0778 44.9423C29.3625 44.7356 29.7574 44.6334 30.2647 44.6334H31.2052C31.2387 44.6334 31.2578 44.6168 31.2578 44.5812V44.2818C31.2578 43.9967 31.1884 43.79 31.0496 43.6641C30.9108 43.5381 30.65 43.4764 30.2647 43.4764C30.0278 43.4764 29.834 43.5025 29.6784 43.5571C29.5229 43.6118 29.3841 43.6807 29.2644 43.7662C29.2118 43.8066 29.1711 43.8042 29.1424 43.7567L28.9103 43.3623C28.8863 43.3172 28.8935 43.2768 28.927 43.2435C29.0826 43.1247 29.2788 43.0273 29.5133 42.9513C29.7502 42.8776 30.023 42.8396 30.3341 42.8396C30.9204 42.8396 31.3368 42.9465 31.5857 43.1604C31.8321 43.3742 31.9566 43.733 31.9566 44.2343V46.95C31.9566 47.007 31.9279 47.0355 31.8704 47.0355H31.3607L31.3631 47.0379ZM30.2145 46.5152C30.5423 46.5152 30.7984 46.4463 30.9826 46.3061C31.1669 46.1659 31.2578 45.9687 31.2578 45.7097V45.2559C31.2578 45.2227 31.2411 45.2037 31.2052 45.2037H30.3772C30.0158 45.2037 29.7526 45.2559 29.5923 45.3629C29.4319 45.4698 29.3506 45.6385 29.3506 45.8737C29.3506 46.0851 29.4248 46.2443 29.5755 46.3536C29.7263 46.4629 29.9369 46.5152 30.2145 46.5152Z" fill="#29323B"/>
<path d="M33.6413 47.038C33.5839 47.038 33.5552 47.0095 33.5552 46.9524V41.2977C33.5552 41.2407 33.5839 41.2122 33.6413 41.2122H34.1941C34.2515 41.2122 34.2803 41.2407 34.2803 41.2977V43.4052H34.2898C34.388 43.2388 34.5291 43.1034 34.7158 42.9989C34.9025 42.8943 35.1513 42.8397 35.4624 42.8397C35.8238 42.8397 36.1277 42.9228 36.3694 43.0892C36.6111 43.2555 36.7834 43.5002 36.8863 43.8257C36.9437 43.992 36.982 44.1607 37.0035 44.3365C37.0251 44.5123 37.0347 44.7262 37.0347 44.9828C37.0347 45.2394 37.0251 45.458 37.0035 45.6338C36.982 45.8096 36.9437 45.9831 36.8863 46.147C36.7834 46.4725 36.6111 46.7172 36.3694 46.8835C36.1277 47.0499 35.8262 47.133 35.4624 47.133C35.1513 47.133 34.9025 47.0784 34.7158 46.9691C34.5291 46.8598 34.3856 46.7244 34.2898 46.558H34.2803V46.9524C34.2803 47.0095 34.2515 47.038 34.1941 47.038H33.6413ZM35.2901 46.463C35.7496 46.463 36.0511 46.2539 36.1971 45.8381C36.2306 45.7288 36.2569 45.6077 36.2713 45.4699C36.2856 45.332 36.2928 45.1705 36.2928 44.9804C36.2928 44.7903 36.2856 44.6383 36.2713 44.5005C36.2569 44.3627 36.233 44.2367 36.1971 44.1227C36.0535 43.7117 35.752 43.5049 35.2901 43.5049C34.8283 43.5049 34.5148 43.7117 34.376 44.1227C34.3425 44.2249 34.3162 44.3437 34.3018 44.4743C34.2874 44.605 34.2803 44.7737 34.2803 44.9804C34.2803 45.1871 34.2874 45.3558 34.3018 45.4912C34.3162 45.6267 34.3401 45.7407 34.376 45.8381C34.5148 46.2563 34.8187 46.463 35.2901 46.463Z" fill="#29323B"/>
<path d="M38.4797 42.0104C38.4223 42.0104 38.3936 41.9819 38.3936 41.9249V41.3C38.3936 41.243 38.4223 41.2145 38.4797 41.2145H39.066C39.1234 41.2145 39.1521 41.243 39.1521 41.3V41.9249C39.1521 41.9819 39.1234 42.0104 39.066 42.0104H38.4797ZM38.4965 47.0379C38.439 47.0379 38.4103 47.0094 38.4103 46.9524V43.0202C38.4103 42.9632 38.439 42.9347 38.4965 42.9347H39.0492C39.1067 42.9347 39.1354 42.9632 39.1354 43.0202V46.9524C39.1354 47.0094 39.1067 47.0379 39.0492 47.0379H38.4965Z" fill="#29323B"/>
<path d="M40.8542 47.038C40.7968 47.038 40.7681 47.0094 40.7681 46.9524V43.0202C40.7681 42.9632 40.7968 42.9347 40.8542 42.9347H41.407C41.4644 42.9347 41.4932 42.9632 41.4932 43.0202V43.4408H41.5027C41.5937 43.265 41.7325 43.12 41.9119 43.0084C42.0938 42.8967 42.3212 42.842 42.5987 42.842C42.7663 42.842 42.9218 42.8682 43.0702 42.9228C43.2185 42.9775 43.343 43.0535 43.4459 43.1509C43.4866 43.1913 43.4913 43.2317 43.4626 43.2697L43.1444 43.6903C43.1109 43.7354 43.0702 43.7425 43.0247 43.7069C42.9266 43.6427 42.8261 43.5952 42.7232 43.562C42.6203 43.5287 42.5078 43.5097 42.3858 43.5097C42.0699 43.5097 41.8425 43.619 41.7037 43.8399C41.5649 44.0585 41.4956 44.3508 41.4956 44.7095V46.9548C41.4956 47.0118 41.4668 47.0403 41.4094 47.0403H40.8566L40.8542 47.038Z" fill="#29323B"/>
<path d="M46.8223 41.2977C46.8223 41.2407 46.851 41.2122 46.9084 41.2122H48.988C49.5814 41.2122 50.0241 41.35 50.3161 41.6279C50.6104 41.9059 50.7564 42.2766 50.7564 42.7446C50.7564 43.0868 50.6822 43.3624 50.5363 43.5667C50.3903 43.7734 50.2012 43.9207 49.9715 44.0134V44.03C50.0696 44.0585 50.1701 44.1084 50.2778 44.1797C50.3831 44.251 50.4812 44.3413 50.5674 44.4529C50.6535 44.5646 50.7229 44.6977 50.778 44.8521C50.833 45.0065 50.8593 45.18 50.8593 45.3748C50.8593 45.9237 50.6942 46.3371 50.364 46.6174C50.0337 46.8978 49.5599 47.038 48.9449 47.038H46.9084C46.851 47.038 46.8223 47.0095 46.8223 46.9524V41.2977ZM48.9712 43.7307C49.2991 43.7307 49.5527 43.6475 49.7298 43.4812C49.9069 43.3149 49.9978 43.0963 49.9978 42.8207C49.9978 42.5451 49.9093 42.3193 49.7298 42.153C49.5503 41.9867 49.2991 41.9036 48.9712 41.9036H47.6431C47.6096 41.9036 47.5904 41.9202 47.5904 41.9558V43.6784C47.5904 43.7117 47.6072 43.7307 47.6431 43.7307H48.9712ZM47.5904 46.2919C47.5904 46.3252 47.6072 46.3442 47.6431 46.3442H49.0143C49.3661 46.3442 49.6317 46.2563 49.8159 46.0828C50.0002 45.9094 50.0912 45.6766 50.0912 45.3843C50.0912 45.0921 50.0002 44.8616 49.8159 44.6858C49.6317 44.5123 49.3637 44.4244 49.0143 44.4244H47.6431C47.6096 44.4244 47.5904 44.4411 47.5904 44.4767V46.2919Z" fill="#29323B"/>
<path d="M52.3025 42.0104C52.245 42.0104 52.2163 41.9819 52.2163 41.9249V41.3C52.2163 41.243 52.245 41.2145 52.3025 41.2145H52.8888C52.9462 41.2145 52.9749 41.243 52.9749 41.3V41.9249C52.9749 41.9819 52.9462 42.0104 52.8888 42.0104H52.3025ZM52.3192 47.0379C52.2618 47.0379 52.2331 47.0094 52.2331 46.9524V43.0202C52.2331 42.9632 52.2618 42.9347 52.3192 42.9347H52.872C52.9294 42.9347 52.9581 42.9632 52.9581 43.0202V46.9524C52.9581 47.0094 52.9294 47.0379 52.872 47.0379H52.3192Z" fill="#29323B"/>
<path d="M57.2724 47.038C57.215 47.038 57.1862 47.0094 57.1862 46.9524V44.5527C57.1862 44.2225 57.1097 43.9659 56.9565 43.7829C56.8034 43.6 56.5736 43.5097 56.2625 43.5097C55.9801 43.5097 55.7528 43.6 55.5757 43.7805C55.401 43.9611 55.3125 44.2058 55.3125 44.5123V46.9548C55.3125 47.0118 55.2838 47.0403 55.2263 47.0403H54.6735C54.6161 47.0403 54.5874 47.0118 54.5874 46.9548V43.0226C54.5874 42.9656 54.6161 42.9371 54.6735 42.9371H55.2263C55.2838 42.9371 55.3125 42.9656 55.3125 43.0226V43.4004H55.3221C55.4202 43.2412 55.5662 43.1081 55.7624 43.0012C55.9586 42.8967 56.1955 42.842 56.4779 42.842C56.9254 42.842 57.2772 42.9822 57.5308 43.2626C57.7845 43.5429 57.9113 43.916 57.9113 44.384V46.9548C57.9113 47.0118 57.8826 47.0403 57.8252 47.0403H57.2724V47.038Z" fill="#29323B"/>
<path d="M61.5847 47.038C61.5272 47.038 61.4985 47.0095 61.4985 46.9524V46.4131C61.4985 46.3798 61.5105 46.3466 61.532 46.3181L64.3965 41.9321V41.9226H61.6876C61.6301 41.9226 61.6014 41.8941 61.6014 41.837V41.2977C61.6014 41.2407 61.6301 41.2122 61.6876 41.2122H65.191C65.2484 41.2122 65.2771 41.2407 65.2771 41.2977V41.837C65.2771 41.8703 65.2652 41.9036 65.2436 41.9321L62.3696 46.3181V46.3276H65.191C65.2484 46.3276 65.2771 46.3561 65.2771 46.4131V46.9524C65.2771 47.0095 65.2484 47.038 65.191 47.038H61.5847Z" fill="#29323B"/>
<path d="M69.1253 47.0379C69.0679 47.0379 69.0392 47.0094 69.0392 46.9524V46.5936H69.0296C68.9315 46.748 68.7831 46.8763 68.5797 46.9785C68.3787 47.0807 68.1202 47.1329 67.802 47.1329C67.6057 47.1329 67.4239 47.1068 67.254 47.0569C67.0841 47.0046 66.9381 46.9286 66.8136 46.8264C66.6892 46.7243 66.5935 46.596 66.5193 46.4415C66.4451 46.2871 66.4116 46.1065 66.4116 45.9022C66.4116 45.4674 66.5552 45.149 66.84 44.9423C67.1247 44.7356 67.5196 44.6334 68.0269 44.6334H68.9674C69.0009 44.6334 69.02 44.6168 69.02 44.5812V44.2818C69.02 43.9967 68.9506 43.79 68.8118 43.6641C68.673 43.5381 68.4122 43.4764 68.0269 43.4764C67.79 43.4764 67.5962 43.5025 67.4406 43.5571C67.2851 43.6118 67.1463 43.6807 67.0266 43.7662C66.974 43.8066 66.9333 43.8042 66.9046 43.7567L66.6725 43.3623C66.6485 43.3172 66.6557 43.2768 66.6892 43.2435C66.8448 43.1247 67.041 43.0273 67.2755 42.9513C67.5124 42.8776 67.7852 42.8396 68.0963 42.8396C68.6826 42.8396 69.099 42.9465 69.3479 43.1604C69.5943 43.3742 69.7188 43.733 69.7188 44.2343V46.95C69.7188 47.007 69.6901 47.0355 69.6326 47.0355H69.1229L69.1253 47.0379ZM67.9767 46.5152C68.3045 46.5152 68.5606 46.4463 68.7448 46.3061C68.9291 46.1659 69.02 45.9687 69.02 45.7097V45.2559C69.02 45.2227 69.0033 45.2037 68.9674 45.2037H68.1394C67.778 45.2037 67.5148 45.2559 67.3545 45.3629C67.1941 45.4698 67.1128 45.6385 67.1128 45.8737C67.1128 46.0851 67.187 46.2443 67.3377 46.3536C67.4885 46.4629 67.6991 46.5152 67.9767 46.5152Z" fill="#29323B"/>
<path d="M71.3869 42.0104C71.3295 42.0104 71.3008 41.9819 71.3008 41.9249V41.3C71.3008 41.243 71.3295 41.2145 71.3869 41.2145H71.9732C72.0307 41.2145 72.0594 41.243 72.0594 41.3V41.9249C72.0594 41.9819 72.0307 42.0104 71.9732 42.0104H71.3869ZM71.4037 47.0379C71.3462 47.0379 71.3175 47.0094 71.3175 46.9524V43.0202C71.3175 42.9632 71.3462 42.9347 71.4037 42.9347H71.9565C72.0139 42.9347 72.0426 42.9632 72.0426 43.0202V46.9524C72.0426 47.0094 72.0139 47.0379 71.9565 47.0379H71.4037Z" fill="#29323B"/>
<path d="M76.2614 47.038C76.204 47.038 76.1753 47.0095 76.1753 46.9524V46.558H76.1657C76.0676 46.7244 75.9264 46.8598 75.7398 46.9691C75.5531 47.0784 75.3042 47.133 74.9931 47.133C74.6318 47.133 74.3279 47.0499 74.0862 46.8835C73.8445 46.7172 73.6722 46.4725 73.5693 46.147C73.5118 45.9807 73.4735 45.8096 73.452 45.6338C73.4305 45.458 73.4209 45.2394 73.4209 44.9828C73.4209 44.7262 73.4305 44.51 73.452 44.3365C73.4712 44.1631 73.5118 43.992 73.5693 43.8257C73.6722 43.5002 73.8445 43.2555 74.0862 43.0892C74.3279 42.9228 74.6294 42.8397 74.9931 42.8397C75.3042 42.8397 75.5531 42.8919 75.7398 42.9989C75.9264 43.1058 76.07 43.2412 76.1657 43.4052H76.1753V41.2977C76.1753 41.2407 76.204 41.2122 76.2614 41.2122H76.8142C76.8717 41.2122 76.9004 41.2407 76.9004 41.2977V46.9524C76.9004 47.0095 76.8717 47.038 76.8142 47.038H76.2614ZM75.1654 46.463C75.6368 46.463 75.9408 46.2539 76.0796 45.8381C76.1131 45.7407 76.1394 45.6243 76.1537 45.4912C76.1681 45.3582 76.1753 45.1871 76.1753 44.9804C76.1753 44.7737 76.1681 44.6074 76.1537 44.4743C76.1394 44.3437 76.1155 44.2249 76.0796 44.1227C75.9408 43.7117 75.6368 43.5049 75.1654 43.5049C74.694 43.5049 74.402 43.7117 74.2585 44.1227C74.225 44.2367 74.1986 44.3627 74.1843 44.5005C74.1699 44.6383 74.1627 44.7975 74.1627 44.9804C74.1627 45.1634 74.1699 45.332 74.1843 45.4699C74.1986 45.6077 74.2226 45.7288 74.2585 45.8381C74.402 46.2563 74.7036 46.463 75.1654 46.463Z" fill="#29323B"/>
<path d="M84.8452 47.038C84.7997 47.038 84.7686 47.0095 84.7494 46.9524L83.4979 42.6092H83.4811L82.2391 46.9524C82.2224 47.0095 82.1865 47.038 82.1362 47.038H81.6624C81.6098 47.038 81.5787 47.0095 81.5667 46.9524L80.1524 41.2977C80.1357 41.2407 80.1572 41.2122 80.2218 41.2122H80.7914C80.856 41.2122 80.8895 41.2407 80.8943 41.2977L81.9376 45.6243H81.9544L83.17 41.2977C83.1868 41.2407 83.2227 41.2122 83.2729 41.2122H83.7133C83.7659 41.2122 83.7994 41.2407 83.8162 41.2977L85.0581 45.6243H85.0749L86.0919 41.2977C86.1087 41.2407 86.147 41.2122 86.2044 41.2122H86.7644C86.8218 41.2122 86.8457 41.2407 86.8338 41.2977L85.4195 46.9524C85.4075 47.0095 85.374 47.038 85.3166 47.038H84.8428H84.8452Z" fill="#29323B"/>
<path d="M90.1766 47.0379C90.1192 47.0379 90.0904 47.0094 90.0904 46.9524V46.5936H90.0809C89.9828 46.748 89.8344 46.8763 89.631 46.9785C89.43 47.0807 89.1715 47.1329 88.8532 47.1329C88.657 47.1329 88.4751 47.1068 88.3052 47.0569C88.1353 47.0046 87.9894 46.9286 87.8649 46.8264C87.7405 46.7243 87.6448 46.596 87.5706 46.4415C87.4964 46.2871 87.4629 46.1065 87.4629 45.9022C87.4629 45.4674 87.6065 45.149 87.8912 44.9423C88.176 44.7356 88.5709 44.6334 89.0782 44.6334H90.0187C90.0522 44.6334 90.0713 44.6168 90.0713 44.5812V44.2818C90.0713 43.9967 90.0019 43.79 89.8631 43.6641C89.7243 43.5381 89.4635 43.4764 89.0782 43.4764C88.8413 43.4764 88.6474 43.5025 88.4919 43.5571C88.3363 43.6118 88.1976 43.6807 88.0779 43.7662C88.0253 43.8066 87.9846 43.8042 87.9559 43.7567L87.7237 43.3623C87.6998 43.3172 87.707 43.2768 87.7405 43.2435C87.896 43.1247 88.0923 43.0273 88.3268 42.9513C88.5637 42.8776 88.8365 42.8396 89.1476 42.8396C89.7339 42.8396 90.1503 42.9465 90.3992 43.1604C90.6456 43.3742 90.7701 43.733 90.7701 44.2343V46.95C90.7701 47.007 90.7414 47.0355 90.6839 47.0355H90.1742L90.1766 47.0379ZM89.0279 46.5152C89.3558 46.5152 89.6118 46.4463 89.7961 46.3061C89.9804 46.1659 90.0713 45.9687 90.0713 45.7097V45.2559C90.0713 45.2227 90.0545 45.2037 90.0187 45.2037H89.1907C88.8293 45.2037 88.5661 45.2559 88.4057 45.3629C88.2454 45.4698 88.164 45.6385 88.164 45.8737C88.164 46.0851 88.2382 46.2443 88.389 46.3536C88.5398 46.4629 88.7503 46.5152 89.0279 46.5152Z" fill="#29323B"/>
<path d="M94.9582 48.5799C94.9008 48.5799 94.8721 48.5514 94.8721 48.4943V46.558H94.8625C94.7644 46.7243 94.6232 46.8597 94.4365 46.969C94.2499 47.0783 94.001 47.1329 93.6899 47.1329C93.3286 47.1329 93.0246 47.0498 92.7829 46.8835C92.5412 46.7171 92.3689 46.4724 92.266 46.1469C92.2086 45.9806 92.1703 45.8095 92.1488 45.6337C92.1272 45.4579 92.1177 45.2393 92.1177 44.9827C92.1177 44.7261 92.1272 44.5099 92.1488 44.3364C92.1679 44.163 92.2086 43.9919 92.266 43.8256C92.3689 43.5001 92.5412 43.2554 92.7829 43.0891C93.0246 42.9228 93.3262 42.8396 93.6899 42.8396C94.001 42.8396 94.2499 42.8919 94.4365 42.9988C94.6232 43.1057 94.7668 43.2411 94.8625 43.4051H94.8721V43.0202C94.8721 42.9632 94.9008 42.9346 94.9582 42.9346H95.511C95.5684 42.9346 95.5971 42.9632 95.5971 43.0202V48.4943C95.5971 48.5514 95.5684 48.5799 95.511 48.5799H94.9582ZM93.8622 46.4629C94.3336 46.4629 94.6375 46.2538 94.7763 45.838C94.8098 45.7406 94.8362 45.6242 94.8505 45.4912C94.8649 45.3581 94.8721 45.187 94.8721 44.9803C94.8721 44.7736 94.8649 44.6073 94.8505 44.4743C94.8362 44.3436 94.8122 44.2248 94.7763 44.1226C94.6375 43.7116 94.3336 43.5049 93.8622 43.5049C93.3908 43.5049 93.0988 43.7116 92.9552 44.1226C92.9217 44.2367 92.8954 44.3626 92.8811 44.5004C92.8667 44.6382 92.8595 44.7974 92.8595 44.9803C92.8595 45.1633 92.8667 45.332 92.8811 45.4698C92.8954 45.6076 92.9193 45.7287 92.9552 45.838C93.0988 46.2562 93.4003 46.4629 93.8622 46.4629Z" fill="#29323B"/>
<path d="M97.4517 47.038C97.3942 47.038 97.3655 47.0095 97.3655 46.9524V43.5691C97.3655 43.5358 97.3488 43.5168 97.3129 43.5168H96.9587C96.9013 43.5168 96.8726 43.4883 96.8726 43.4313V43.0203C96.8726 42.9632 96.9013 42.9347 96.9587 42.9347H97.3129C97.3464 42.9347 97.3655 42.9181 97.3655 42.8824V42.5308C97.3655 42.0461 97.4684 41.704 97.6718 41.5068C97.8752 41.3096 98.1935 41.2122 98.6243 41.2122H98.9425C99 41.2122 99.0287 41.2407 99.0287 41.2977V41.7943C99.0287 41.8513 99 41.8798 98.9425 41.8798H98.7176C98.586 41.8798 98.4783 41.8893 98.3993 41.9059C98.318 41.9226 98.2557 41.9535 98.2103 42.001C98.1648 42.0485 98.1337 42.1103 98.1145 42.1887C98.0978 42.2695 98.0882 42.3716 98.0882 42.4975V42.8824C98.0882 42.9157 98.105 42.9347 98.1409 42.9347H98.9425C99 42.9347 99.0287 42.9632 99.0287 43.0203V43.4313C99.0287 43.4883 99 43.5168 98.9425 43.5168H98.1409C98.1074 43.5168 98.0882 43.5335 98.0882 43.5691V46.9524C98.0882 47.0095 98.0595 47.038 98.0021 47.038H97.4493H97.4517Z" fill="#29323B"/>
<path d="M62.0048 50.6969C62.0048 50.6422 62.0335 50.6161 62.0885 50.6161H65.2713C65.3263 50.6161 65.3526 50.6422 65.3526 50.6969V50.9725C65.3526 51.0271 65.3263 51.0533 65.2713 51.0533H62.5265C62.493 51.0533 62.4762 51.0699 62.4762 51.1032V53.1227C62.4762 53.156 62.493 53.1726 62.5265 53.1726H64.886C64.941 53.1726 64.9674 53.1987 64.9674 53.2534V53.529C64.9674 53.5836 64.941 53.6098 64.886 53.6098H62.5265C62.493 53.6098 62.4762 53.6264 62.4762 53.6573V56.0499C62.4762 56.1045 62.4475 56.1307 62.3925 56.1307H62.0838C62.0287 56.1307 62 56.1045 62 56.0499V50.6992L62.0048 50.6969Z" fill="#29323B"/>
<path d="M67.5661 56.2114C67.2072 56.2114 66.9009 56.1259 66.652 55.9525C66.4007 55.779 66.2212 55.5319 66.1135 55.2064C66.0705 55.0757 66.037 54.9356 66.0154 54.7811C65.9939 54.6267 65.9819 54.4318 65.9819 54.1943C65.9819 53.9567 65.9915 53.769 66.0154 53.6145C66.0394 53.4601 66.0705 53.3175 66.1135 53.1892C66.2212 52.8637 66.4031 52.6166 66.652 52.4432C66.9032 52.2697 67.2072 52.1842 67.5661 52.1842C67.9251 52.1842 68.2314 52.2697 68.485 52.4432C68.7387 52.6166 68.9182 52.8637 69.0283 53.1892C69.0713 53.3199 69.1048 53.4601 69.1264 53.6145C69.1479 53.769 69.1599 53.9614 69.1599 54.1943C69.1599 54.4271 69.1479 54.6291 69.1264 54.7811C69.1048 54.9356 69.0713 55.0781 69.0283 55.2064C68.9182 55.5319 68.7387 55.779 68.485 55.9525C68.2314 56.1259 67.9251 56.2114 67.5661 56.2114ZM67.5661 55.7909C67.8222 55.7909 68.0399 55.7291 68.2194 55.6056C68.3989 55.482 68.5281 55.3038 68.6023 55.071C68.6406 54.9641 68.6669 54.8429 68.6837 54.7098C68.7004 54.5768 68.7076 54.4057 68.7076 54.1943C68.7076 53.9828 68.7004 53.8189 68.6837 53.6882C68.6669 53.5575 68.6406 53.4363 68.6023 53.327C68.5257 53.0942 68.3989 52.916 68.2194 52.7924C68.0399 52.6689 67.8222 52.6071 67.5661 52.6071C67.3101 52.6071 67.0995 52.6689 66.92 52.7924C66.7405 52.916 66.6113 53.0942 66.5371 53.327C66.4988 53.4363 66.4725 53.5551 66.4558 53.6882C66.439 53.8212 66.4318 53.9899 66.4318 54.1943C66.4318 54.3986 66.439 54.5768 66.4558 54.7098C66.4725 54.8429 66.4988 54.9617 66.5371 55.071C66.6137 55.3038 66.7405 55.482 66.92 55.6056C67.0995 55.7291 67.3149 55.7909 67.5661 55.7909Z" fill="#29323B"/>
<path d="M72.9075 56.1306C72.8525 56.1306 72.8262 56.1044 72.8262 56.0498V55.596H72.819C72.7209 55.786 72.5749 55.9357 72.3787 56.045C72.1824 56.1543 71.9503 56.2113 71.6847 56.2113C71.2492 56.2113 70.9165 56.0854 70.6844 55.8312C70.4523 55.577 70.3374 55.2158 70.3374 54.7454V52.3457C70.3374 52.291 70.3637 52.2649 70.4188 52.2649H70.6964C70.7514 52.2649 70.7777 52.291 70.7777 52.3457V54.6313C70.7777 55.4035 71.1127 55.7908 71.7828 55.7908C71.9288 55.7908 72.0676 55.767 72.1944 55.7171C72.3212 55.6672 72.4337 55.596 72.5246 55.5033C72.618 55.4083 72.6898 55.2942 72.7448 55.1635C72.7998 55.0305 72.8262 54.8808 72.8262 54.7145V52.3481C72.8262 52.2934 72.8525 52.2673 72.9075 52.2673H73.1851C73.2402 52.2673 73.2665 52.2934 73.2665 52.3481V56.0545C73.2665 56.1092 73.2402 56.1353 73.1851 56.1353H72.9075V56.1306Z" fill="#29323B"/>
<path d="M77.3731 56.1306C77.3181 56.1306 77.2917 56.1045 77.2917 56.0499V53.7642C77.2917 52.992 76.9519 52.6047 76.2699 52.6047C75.9708 52.6047 75.7195 52.6998 75.5137 52.8875C75.3103 53.0776 75.2074 53.3413 75.2074 53.681V56.0475C75.2074 56.1021 75.1811 56.1283 75.126 56.1283H74.8485C74.7934 56.1283 74.7671 56.1021 74.7671 56.0475V52.341C74.7671 52.2864 74.7934 52.2602 74.8485 52.2602H75.126C75.1811 52.2602 75.2074 52.2864 75.2074 52.341V52.8043H75.2146C75.3127 52.6142 75.4587 52.4646 75.6549 52.3505C75.8511 52.2365 76.0881 52.1794 76.3656 52.1794C76.8012 52.1794 77.1362 52.3054 77.3731 52.5596C77.61 52.8138 77.7273 53.1797 77.7273 53.6549V56.0475C77.7273 56.1021 77.701 56.1283 77.6459 56.1283H77.3683L77.3731 56.1306Z" fill="#29323B"/>
<path d="M81.661 56.1307C81.606 56.1307 81.5797 56.1045 81.5797 56.0499V55.5794H81.5725C81.4792 55.7624 81.3404 55.9144 81.1561 56.0332C80.9718 56.152 80.7158 56.2114 80.3879 56.2114C79.7011 56.2114 79.2608 55.9026 79.0646 55.2872C79.0095 55.1304 78.9736 54.9641 78.9545 54.7883C78.9354 54.6124 78.9258 54.4176 78.9258 54.2014C78.9258 53.9852 78.9354 53.7808 78.9545 53.605C78.9736 53.4292 79.0095 53.2629 79.0646 53.1061C79.2608 52.4907 79.7011 52.1818 80.3879 52.1818C80.7158 52.1818 80.9694 52.2412 81.1561 52.36C81.3404 52.4788 81.4792 52.6309 81.5725 52.8138H81.5797V50.6969C81.5797 50.6422 81.606 50.6161 81.661 50.6161H81.9386C81.9937 50.6161 82.02 50.6422 82.02 50.6969V56.0475C82.02 56.1021 81.9937 56.1283 81.9386 56.1283H81.661V56.1307ZM80.4765 55.7909C80.7206 55.7909 80.9288 55.7339 81.101 55.6198C81.2733 55.5058 81.3954 55.3371 81.472 55.109C81.5103 54.9997 81.5366 54.8762 81.5533 54.7312C81.5701 54.5887 81.5773 54.4105 81.5773 54.199C81.5773 53.9876 81.5701 53.8094 81.5533 53.6644C81.5366 53.5195 81.5103 53.3912 81.472 53.2843C81.3954 53.0562 81.271 52.8875 81.101 52.7734C80.9288 52.6594 80.7206 52.6024 80.4765 52.6024C80.2324 52.6024 80.0098 52.6594 79.8447 52.7758C79.6796 52.8922 79.5575 53.0609 79.481 53.2819C79.4379 53.4054 79.4092 53.548 79.3948 53.7024C79.3805 53.8593 79.3733 54.0232 79.3733 54.1966C79.3733 54.3701 79.3805 54.534 79.3948 54.6885C79.4092 54.8429 79.4379 54.9807 79.481 55.1066C79.5575 55.3276 79.6772 55.4963 79.8447 55.6127C80.0098 55.7291 80.2228 55.7861 80.4765 55.7861V55.7909Z" fill="#29323B"/>
<path d="M84.8177 52.5857C84.5784 52.5857 84.3846 52.6119 84.2362 52.6618C84.0878 52.714 83.9562 52.7853 83.8414 52.8756C83.7935 52.9136 83.7528 52.9112 83.7193 52.8685L83.5805 52.6665C83.5542 52.6237 83.5614 52.5857 83.6045 52.5525C83.7456 52.4337 83.9179 52.341 84.1237 52.2769C84.3271 52.2127 84.5688 52.1794 84.8464 52.1794C85.0977 52.1794 85.3107 52.2008 85.4926 52.2436C85.672 52.2864 85.8204 52.36 85.9329 52.4622C86.0477 52.5643 86.1315 52.6974 86.1865 52.859C86.2416 53.0205 86.2679 53.2201 86.2679 53.4601V56.0475C86.2679 56.1021 86.2392 56.1283 86.1841 56.1283H85.9185C85.8635 56.1283 85.8348 56.1021 85.8348 56.0475V55.6412H85.8276C85.751 55.8028 85.6122 55.9382 85.4064 56.0475C85.203 56.1544 84.9398 56.209 84.6191 56.209C84.2266 56.209 83.9108 56.114 83.6715 55.9216C83.4322 55.7291 83.3125 55.444 83.3125 55.0662C83.3125 54.6884 83.4393 54.3891 83.693 54.2037C83.9467 54.0184 84.3128 53.9234 84.7914 53.9234H85.7797C85.8132 53.9234 85.83 53.9068 85.83 53.8759V53.4791C85.83 53.3223 85.8156 53.1868 85.7845 53.0728C85.7558 52.9588 85.7007 52.8661 85.6218 52.7924C85.5428 52.7188 85.4399 52.6665 85.3083 52.6332C85.1791 52.6 85.0163 52.5857 84.8201 52.5857H84.8177ZM84.7124 55.8051C85.0498 55.8051 85.3179 55.7267 85.5213 55.5699C85.7247 55.4131 85.8276 55.2016 85.8276 54.9379V54.3463C85.8276 54.313 85.8108 54.2988 85.7773 54.2988H84.8488C84.4588 54.2988 84.1788 54.3606 84.0065 54.4865C83.8366 54.61 83.7504 54.8025 83.7504 55.0615C83.7504 55.3038 83.8342 55.4891 83.9993 55.6174C84.1644 55.7457 84.4013 55.8075 84.71 55.8075L84.7124 55.8051Z" fill="#29323B"/>
<path d="M88.8309 56.1544C88.4599 56.1544 88.1991 56.076 88.0459 55.9192C87.8928 55.7623 87.8162 55.4915 87.8162 55.109V52.7021C87.8162 52.6689 87.7995 52.6522 87.766 52.6522H87.3568C87.3017 52.6522 87.2754 52.6261 87.2754 52.5715V52.3434C87.2754 52.2887 87.3017 52.2626 87.3568 52.2626H87.766C87.7995 52.2626 87.8162 52.2459 87.8162 52.2127V51.1031C87.8162 51.0485 87.8425 51.0223 87.8976 51.0223H88.1752C88.2302 51.0223 88.2565 51.0485 88.2565 51.1031V52.2127C88.2565 52.2459 88.2733 52.2626 88.3068 52.2626H89.0415C89.0965 52.2626 89.1228 52.2887 89.1228 52.3434V52.5715C89.1228 52.6261 89.0965 52.6522 89.0415 52.6522H88.3068C88.2733 52.6522 88.2565 52.6689 88.2565 52.7021V55.0852C88.2565 55.3442 88.3044 55.5176 88.4001 55.6032C88.4958 55.6887 88.6586 55.7338 88.8859 55.7338H89.0415C89.0965 55.7338 89.1228 55.76 89.1228 55.8146V56.0736C89.1228 56.1282 89.0965 56.1544 89.0415 56.1544H88.8285H88.8309Z" fill="#29323B"/>
<path d="M90.2928 51.2338C90.2377 51.2338 90.2114 51.2076 90.2114 51.153V50.6992C90.2114 50.6445 90.2377 50.6184 90.2928 50.6184H90.6517C90.7068 50.6184 90.7331 50.6445 90.7331 50.6992V51.153C90.7331 51.2076 90.7068 51.2338 90.6517 51.2338H90.2928ZM90.3335 56.1306C90.2784 56.1306 90.2521 56.1045 90.2521 56.0498V52.3433C90.2521 52.2887 90.2784 52.2626 90.3335 52.2626H90.6111C90.6661 52.2626 90.6924 52.2887 90.6924 52.3433V56.0498C90.6924 56.1045 90.6661 56.1306 90.6111 56.1306H90.3335Z" fill="#29323B"/>
<path d="M93.5188 56.2114C93.1598 56.2114 92.8535 56.1259 92.6046 55.9525C92.3533 55.779 92.1739 55.5319 92.0662 55.2064C92.0231 55.0757 91.9896 54.9356 91.9681 54.7811C91.9465 54.6267 91.9346 54.4318 91.9346 54.1943C91.9346 53.9567 91.9441 53.769 91.9681 53.6145C91.9896 53.4601 92.0231 53.3175 92.0662 53.1892C92.1739 52.8637 92.3557 52.6166 92.6046 52.4432C92.8559 52.2697 93.1598 52.1842 93.5188 52.1842C93.8777 52.1842 94.184 52.2697 94.4377 52.4432C94.6913 52.6166 94.8708 52.8637 94.9809 53.1892C95.024 53.3199 95.0575 53.4601 95.079 53.6145C95.1006 53.769 95.1125 53.9614 95.1125 54.1943C95.1125 54.4271 95.1006 54.6291 95.079 54.7811C95.0575 54.9356 95.024 55.0781 94.9809 55.2064C94.8708 55.5319 94.6913 55.779 94.4377 55.9525C94.184 56.1259 93.8777 56.2114 93.5188 56.2114ZM93.5188 55.7909C93.7748 55.7909 93.9926 55.7291 94.1721 55.6056C94.3515 55.482 94.4808 55.3038 94.5549 55.071C94.5932 54.9641 94.6196 54.8429 94.6363 54.7098C94.6531 54.5768 94.6602 54.4057 94.6602 54.1943C94.6602 53.9828 94.6531 53.8189 94.6363 53.6882C94.6196 53.5551 94.5932 53.4363 94.5549 53.327C94.4784 53.0942 94.3515 52.916 94.1721 52.7924C93.9926 52.6689 93.7748 52.6071 93.5188 52.6071C93.2627 52.6071 93.0521 52.6689 92.8726 52.7924C92.6932 52.916 92.5639 53.0942 92.4897 53.327C92.4515 53.4363 92.4251 53.5551 92.4084 53.6882C92.3916 53.8212 92.3845 53.9899 92.3845 54.1943C92.3845 54.3986 92.3916 54.5768 92.4084 54.7098C92.4251 54.8429 92.4515 54.9617 92.4897 55.071C92.5663 55.3038 92.6932 55.482 92.8726 55.6056C93.0521 55.7291 93.2675 55.7909 93.5188 55.7909Z" fill="#29323B"/>
<path d="M98.9556 56.1306C98.9006 56.1306 98.8743 56.1045 98.8743 56.0499V53.7642C98.8743 52.992 98.5345 52.6047 97.8524 52.6047C97.5533 52.6047 97.302 52.6998 97.0962 52.8875C96.8928 53.0776 96.7899 53.3413 96.7899 53.681V56.0475C96.7899 56.1021 96.7636 56.1283 96.7086 56.1283H96.431C96.3759 56.1283 96.3496 56.1021 96.3496 56.0475V52.341C96.3496 52.2864 96.3759 52.2602 96.431 52.2602H96.7086C96.7636 52.2602 96.7899 52.2864 96.7899 52.341V52.8043H96.7971C96.8952 52.6142 97.0412 52.4646 97.2374 52.3505C97.4337 52.2365 97.6706 52.1794 97.9482 52.1794C98.3837 52.1794 98.7187 52.3054 98.9556 52.5596C99.1925 52.8138 99.3098 53.1797 99.3098 53.6549V56.0475C99.3098 56.1021 99.2835 56.1283 99.2284 56.1283H98.9508L98.9556 56.1306Z" fill="#29323B"/>
</svg>
