<svg width="31" height="28" viewBox="0 0 31 28" fill="none" xmlns="http://www.w3.org/2000/svg">
<path d="M7.44698 27.5574C7.60535 27.561 7.76284 27.5327 7.91008 27.4742C8.0583 27.4154 8.19307 27.3271 8.30626 27.2147L8.30722 27.2137L13.4665 22.0359C13.4666 22.0357 13.4668 22.0355 13.467 22.0353C13.6891 21.8145 13.8145 21.5145 13.8156 21.2013C13.8167 20.8878 13.6933 20.5868 13.4724 20.3643C13.2515 20.1419 12.9513 20.0163 12.6378 20.0152C12.3244 20.0141 12.0233 20.1375 11.8008 20.3584L11.8002 20.359L8.63161 23.5276V21.9609C8.63161 21.6476 8.50714 21.3471 8.28558 21.1255C8.06401 20.9039 7.76351 20.7795 7.45017 20.7795H5.89388L9.06009 17.6215C9.28722 17.3999 9.41726 17.0974 9.42167 16.7801C9.42608 16.4623 9.30406 16.1557 9.08244 15.9278L8.90418 16.1012L9.08244 15.9278C8.86081 15.7 8.55775 15.5695 8.23991 15.5651C7.92208 15.5606 7.6155 15.6827 7.38764 15.9043L7.38762 15.9043L7.38532 15.9066L2.20248 21.0801C2.02163 21.2413 1.89465 21.4542 1.83885 21.6901C1.78241 21.9288 1.80161 22.179 1.8938 22.4062C1.98599 22.6335 2.14659 22.8264 2.35333 22.9582C2.55822 23.0889 2.79836 23.1531 3.04101 23.1424H6.26873V26.376C6.26873 26.6893 6.3932 26.9898 6.61476 27.2114C6.83558 27.4322 7.1348 27.5566 7.44698 27.5574ZM7.44698 27.5574C7.44592 27.5574 7.44486 27.5573 7.4438 27.5573L7.45017 27.3074V27.5574C7.44911 27.5574 7.44805 27.5574 7.44698 27.5574ZM23.9632 27.5511L23.7195 27.5573C23.5601 27.5614 23.4015 27.5331 23.2533 27.4742C23.105 27.4154 22.9703 27.3271 22.8571 27.2147L22.8564 27.2141L17.6776 22.0352L17.6708 22.0284L17.6645 22.0211C17.471 21.7951 17.3698 21.5043 17.3813 21.207C17.3928 20.9097 17.516 20.6276 17.7265 20.4172C17.9369 20.2068 18.2189 20.0835 18.5163 20.072C18.8136 20.0605 19.1043 20.1617 19.3303 20.3552L19.3377 20.3615L19.3445 20.3683L22.5038 23.5276V21.9609C22.5038 21.6476 22.6283 21.3471 22.8498 21.1255C23.0714 20.9039 23.3719 20.7795 23.6852 20.7795H25.2542L22.1108 17.6197L22.1042 17.6131L22.0982 17.606C21.9046 17.38 21.8035 17.0893 21.815 16.7919C21.8265 16.4946 21.9497 16.2126 22.1601 16.0021C22.3705 15.7917 22.6526 15.6685 22.9499 15.657C23.2473 15.6455 23.538 15.7466 23.764 15.9402L23.7708 15.946L23.7772 15.9523L28.9654 21.0846L28.9656 21.0848C29.1322 21.2501 29.2458 21.4612 29.292 21.6913L29.0469 21.7405L29.292 21.6913C29.3381 21.9214 29.3147 22.16 29.2248 22.3767C29.1348 22.5934 28.9823 22.7785 28.7867 22.9082C28.5914 23.0378 28.3619 23.1063 28.1275 23.1051M23.9632 27.5511L28.1282 22.8551M23.9632 27.5511V27.4934M23.9632 27.5511V27.4934M28.1275 23.1051C28.1273 23.1051 28.127 23.1051 28.1268 23.1051L28.1282 22.8551M28.1275 23.1051H28.1282V22.8551M28.1275 23.1051H24.8946M28.1282 22.8551H24.8946V23.1051M24.8946 23.1051V26.3387C24.8946 26.652 24.7701 26.9525 24.5486 27.1741C24.3869 27.3358 24.1832 27.4457 23.9632 27.4934M24.8946 23.1051H24.6446L23.9632 27.4934" fill="#E4A430" stroke="#E4A430" stroke-width="0.5"/>
<path d="M15.7958 25.1078L15.7968 25.1078C16.1068 25.1065 16.4038 24.9834 16.6238 24.7651L16.6246 24.7644L28.0813 13.3077L28.0814 13.3076C29.47 11.9176 30.25 10.0332 30.25 8.0685C30.25 6.10375 29.47 4.21937 28.0814 2.82941L28.0812 2.82924C26.6913 1.44063 24.8069 0.660636 22.8421 0.660636C20.8774 0.660636 18.993 1.44063 17.6031 2.82924L15.5815 4.84219L13.5627 2.83186C12.8834 2.1096 12.0661 1.53093 11.1592 1.13014C10.251 0.728774 9.27136 0.513965 8.27854 0.498462C7.28571 0.482959 6.2999 0.667077 5.3796 1.03989C4.4593 1.4127 3.62328 1.9666 2.92116 2.66872C2.21904 3.37083 1.66514 4.20686 1.29233 5.12715C0.919518 6.04745 0.7354 7.03327 0.750904 8.0261C0.766407 9.01892 0.981215 9.99851 1.38258 10.9067C1.78339 11.8137 2.36208 12.631 3.08439 13.3103L14.5283 24.7821C14.5284 24.7823 14.5285 24.7824 14.5287 24.7825C14.6709 24.9261 14.8476 25.0308 15.0419 25.0866C15.2265 25.1397 15.4211 25.1468 15.6088 25.1078L15.7958 25.1078ZM19.3141 4.53577L19.3154 4.5345C20.2607 3.60011 21.5363 3.07609 22.8654 3.07609C24.1941 3.07609 25.4692 3.59972 26.4144 4.53345C27.3482 5.47865 27.8718 6.75378 27.8718 8.08247C27.8718 9.41131 27.348 10.6866 26.4141 11.6318C26.4138 11.632 26.4136 11.6323 26.4134 11.6325L15.5817 22.4275L4.76743 11.6316C4.76733 11.6315 4.76723 11.6314 4.76713 11.6313C4.06333 10.9262 3.58381 10.0287 3.38891 9.05169C3.19399 8.07455 3.29249 7.06158 3.67201 6.1403C4.05153 5.21902 4.69511 4.4306 5.52173 3.87428C6.34827 3.31802 7.32088 3.01868 8.31715 3.01393C8.98157 3.01161 9.63981 3.1414 10.2536 3.39575C10.8674 3.65011 11.4245 4.02395 11.8926 4.49554L11.8932 4.49621L14.7528 7.35575L14.7533 7.35627C14.9746 7.57632 15.2741 7.69983 15.5862 7.69983C15.8979 7.69983 16.1969 7.57665 16.4182 7.35717C16.4185 7.35687 16.4188 7.35657 16.4191 7.35627L19.3141 4.53577Z" fill="#E4A430" stroke="#E4A430" stroke-width="0.5"/>
</svg>
