<svg width="24" height="25" viewBox="0 0 24 25" fill="none" xmlns="http://www.w3.org/2000/svg">
<path d="M16.95 12.8235C17.7504 12.1443 18.3923 11.3042 18.8323 10.3603C19.2723 9.41641 19.5 8.39075 19.5 7.35294C19.5 5.40282 18.7098 3.53257 17.3033 2.15363C15.8968 0.774683 13.9891 0 12 0C10.0109 0 8.10322 0.774683 6.6967 2.15363C5.29018 3.53257 4.5 5.40282 4.5 7.35294C4.49999 8.39075 4.7277 9.41641 5.16769 10.3603C5.60767 11.3042 6.24963 12.1443 7.05 12.8235C4.95021 13.7557 3.1687 15.2611 1.91847 17.1596C0.668243 19.0582 0.00220778 21.2696 0 23.5294C0 23.9194 0.158035 24.2935 0.43934 24.5693C0.720644 24.8451 1.10218 25 1.5 25C1.89782 25 2.27936 24.8451 2.56066 24.5693C2.84196 24.2935 3 23.9194 3 23.5294C3 21.1893 3.94821 18.945 5.63604 17.2902C7.32387 15.6355 9.61305 14.7059 12 14.7059C14.3869 14.7059 16.6761 15.6355 18.364 17.2902C20.0518 18.945 21 21.1893 21 23.5294C21 23.9194 21.158 24.2935 21.4393 24.5693C21.7206 24.8451 22.1022 25 22.5 25C22.8978 25 23.2794 24.8451 23.5607 24.5693C23.842 24.2935 24 23.9194 24 23.5294C23.9978 21.2696 23.3318 19.0582 22.0815 17.1596C20.8313 15.2611 19.0498 13.7557 16.95 12.8235ZM12 11.7647C11.11 11.7647 10.24 11.506 9.49993 11.0212C8.75991 10.5364 8.18314 9.8474 7.84254 9.04125C7.50195 8.23511 7.41283 7.34805 7.58647 6.49225C7.7601 5.63645 8.18868 4.85035 8.81802 4.23335C9.44736 3.61636 10.2492 3.19618 11.1221 3.02595C11.995 2.85572 12.8998 2.94309 13.7221 3.277C14.5443 3.61092 15.2471 4.17638 15.7416 4.9019C16.2361 5.62741 16.5 6.48038 16.5 7.35294C16.5 8.52301 16.0259 9.64516 15.182 10.4725C14.3381 11.2999 13.1935 11.7647 12 11.7647Z" fill="#E4A430"/>
</svg>
