<svg width="20" height="22" viewBox="0 0 20 22" fill="none" xmlns="http://www.w3.org/2000/svg">
<rect width="20" height="22" fill="#1E1E1E"/>
<g id="Waqf - Organizations">
<rect width="1584" height="1858" transform="translate(-491 -1148)" fill="white"/>
<g id="Group 3946">
<rect id="Rectangle 38" x="-379" y="-191" width="433" height="399" rx="10" fill="#F4F4F4"/>
<g id="Group 3943">
<g id="Group 3942">
<g id="Frame 427320751">
<path id="Vector" d="M10.4 11C13.494 11 16 8.53875 16 5.5C16 2.46125 13.494 0 10.4 0C7.306 0 4.8 2.46125 4.8 5.5C4.8 8.53875 7.306 11 10.4 11ZM10.4 12.5714C12.5869 12.5714 16.1464 13.2402 18.4809 14.5712C19.4344 15.5245 20 16.564 20 17.6V22H0V17.6C0 14.256 6.92896 12.5714 10.4 12.5714Z" fill="#53B4AE"/>
</g>
</g>
</g>
</g>
</g>
</svg>
