<svg width="26" height="25" viewBox="0 0 26 25" fill="none" xmlns="http://www.w3.org/2000/svg">
<path d="M25.4893 13.7562C25.3018 13.6028 25.0745 13.5046 24.8334 13.4728C24.5922 13.441 24.3469 13.4768 24.1253 13.5762C22.7517 14.1982 21.2582 14.5183 19.7475 14.5145C16.9531 14.5112 14.2733 13.4149 12.2925 11.4646C10.3117 9.51442 9.19046 6.86845 9.17331 4.10366C9.17924 3.23716 9.28824 2.37436 9.49808 1.53308C9.5426 1.30884 9.5259 1.07692 9.44969 0.861198C9.37348 0.645476 9.24052 0.453758 9.06451 0.305795C8.88849 0.157833 8.67579 0.0589765 8.44831 0.0194112C8.22084 -0.0201542 7.98681 0.00100216 7.77035 0.0807007C5.73386 0.986712 3.96358 2.39006 2.62581 4.1589C1.28804 5.92775 0.426685 8.00403 0.122668 10.1927C-0.181348 12.3814 0.0819519 14.6106 0.887833 16.6709C1.69371 18.7312 3.01572 20.5551 4.72967 21.9711C6.44361 23.3871 8.49323 24.3487 10.686 24.7657C12.8787 25.1827 15.1426 25.0414 17.265 24.355C19.3874 23.6685 21.2986 22.4596 22.819 20.8417C24.3395 19.2237 25.4193 17.25 25.957 15.1057C26.0225 14.8602 26.013 14.601 25.9298 14.3609C25.8465 14.1207 25.6933 13.9103 25.4893 13.7562ZM13.1484 22.3548C10.9683 22.3395 8.84622 21.658 7.07275 20.4033C5.29928 19.1487 3.96111 17.3824 3.24146 15.3462C2.52181 13.3101 2.45587 11.1036 3.05265 9.02889C3.64944 6.9542 4.87978 5.11273 6.57522 3.75663V4.10366C6.57866 7.55913 7.96756 10.8721 10.4371 13.3155C12.9066 15.7589 16.2551 17.1331 19.7475 17.1365C20.6645 17.1398 21.5792 17.045 22.4755 16.8537C21.5791 18.5317 20.2366 19.9356 18.5929 20.9141C16.9492 21.8926 15.0667 22.4085 13.1484 22.4062V22.3548Z" fill="#E4A430"/>
</svg>
